<?xml version="1.0" encoding="UTF-8" standalone="no"?>
<!-- Created with Inkscape (http://www.inkscape.org/) -->

<svg
   xmlns:dc="http://purl.org/dc/elements/1.1/"
   xmlns:cc="http://creativecommons.org/ns#"
   xmlns:rdf="http://www.w3.org/1999/02/22-rdf-syntax-ns#"
   xmlns:svg="http://www.w3.org/2000/svg"
   xmlns="http://www.w3.org/2000/svg"
   xmlns:sodipodi="http://sodipodi.sourceforge.net/DTD/sodipodi-0.dtd"
   xmlns:inkscape="http://www.inkscape.org/namespaces/inkscape"
   width="806.33051"
   height="800"
   id="svg3140"
   version="1.1"
   inkscape:version="0.48.4 r9939"
   sodipodi:docname="Новый документ 2">
  <defs
     id="defs3142" />
  <sodipodi:namedview
     id="base"
     pagecolor="#ffffff"
     bordercolor="#666666"
     borderopacity="1.0"
     inkscape:pageopacity="0.0"
     inkscape:pageshadow="2"
     inkscape:zoom="0.35"
     inkscape:cx="-435.46978"
     inkscape:cy="157.56906"
     inkscape:document-units="px"
     inkscape:current-layer="layer1"
     showgrid="false"
     fit-margin-top="0"
     fit-margin-left="0"
     fit-margin-right="0"
     fit-margin-bottom="0"
     inkscape:window-width="1920"
     inkscape:window-height="1018"
     inkscape:window-x="-8"
     inkscape:window-y="-8"
     inkscape:window-maximized="1" />
  <metadata
     id="metadata3145">
    <rdf:RDF>
      <cc:Work
         rdf:about="">
        <dc:format>image/svg+xml</dc:format>
        <dc:type
           rdf:resource="http://purl.org/dc/dcmitype/StillImage" />
        <dc:title></dc:title>
      </cc:Work>
    </rdf:RDF>
  </metadata>
  <g
     inkscape:label="Layer 1"
     inkscape:groupmode="layer"
     id="layer1"
     transform="translate(-216.18407,110.06875)">
    <g
       id="g3183"
       transform="matrix(2.5385694,0,0,2.5385694,-332.6142,-1061.5071)">
      <path
         sodipodi:nodetypes="sssssssssssssssssss"
         inkscape:connector-curvature="0"
         id="path3005"
         d="m 501.82462,479.85287 c -11.186,-0.42577 -16.10216,10.5102 -23.03115,16.6249 -12.52706,11.05489 -29.16061,23.79178 -41.89251,30.48184 -37.93081,19.93102 -74.03932,27.11633 -113.91887,27.20516 -12.96077,0.0289 -26.50015,-2.47453 -38.00077,-5.5624 -11.21949,-3.01239 -19.20246,-4.37755 -30.3739,-7.61083 -10.58259,-3.06285 -22.19774,1.58851 -28.4732,8.46586 -5.35067,5.86386 -9.72153,18.50627 -6.26546,27.62015 4.13401,10.90165 15.83101,19.34217 27.14701,22.39191 15.16123,4.08606 30.51895,4.85684 45.99226,6.18446 21.963,1.88443 44.17468,1.51773 66.06704,-2.0517 13.70897,-2.23517 26.72239,-6.83041 40.40625,-9.4062 22.01231,-4.1435 42.84574,-13.44452 62.18974,-24.50609 14.98301,-8.56781 27.95883,-19.941 40.99726,-31.30576 7.95485,-6.93373 24.36883,-14.65436 24.29051,-26.74995 -0.0559,-8.63738 -3.95459,-16.89957 -8.2809,-24.24985 -2.55274,-4.33703 -11.6659,-7.33405 -16.85331,-7.5315 z m -10.71875,69 c 0.0808,-0.008 -0.21048,0.0201 0,0 z"
         style="fill:#ff4d4d;fill-opacity:1;stroke:none" />
      <path
         sodipodi:nodetypes="ccccccccccc"
         inkscape:connector-curvature="0"
         id="path3018"
         d="m 484.57462,525.57162 c -18.65108,0.41704 -27.41112,16.53942 -43.73656,23.56235 -20.90639,10.57263 -49.77646,23.77311 -73.24353,25.72483 -15.57974,2.55457 -34.53339,4.6812 -51.08068,4.0727 3.34351,25.39077 -19.57355,23.82197 -42.75163,25.23362 -9.15307,-5.61709 -20.56634,-2.63129 -20.9063,7.71875 -20.02108,108.07189 152.50663,72.83419 222.32714,39.40529 16.7547,-10.24547 33.62684,-21.93503 44.32662,-38.77058 7.47956,-13.83768 5.55784,-30.32275 5.15874,-45.47846 -1.42617,-12.69204 -3.80853,-27.42025 -15.7813,-34.531 -7.10288,-4.96252 -15.51764,-7.80541 -24.3125,-6.9375 z"
         style="fill:#ffa54f;fill-opacity:1;stroke:none" />
      <path
         sodipodi:nodetypes="ssssssssssssssssssssssssssssssssccscccssssscccsccsssssssssssccc"
         inkscape:connector-curvature="0"
         id="path3022"
         d="m 461.54337,545.63412 c -0.65098,0.12488 -1.125,0.66529 -1.125,1.3125 0,0.73967 0.61727,1.34375 1.40625,1.34375 0.78898,0 1.4375,-0.60408 1.4375,-1.34375 0,-0.73967 -0.64852,-1.3125 -1.4375,-1.3125 -0.0986,0 -0.18825,-0.0178 -0.28125,0 z m -2.21875,7.84375 c -0.78898,0 -1.40625,0.8839 -1.40625,1.96875 0,1.08485 0.74354,0.83233 1.53252,0.83233 0.78898,0 1.31123,0.25252 1.31123,-0.83233 0,-1.08485 -0.64852,-1.96875 -1.4375,-1.96875 z m -13.46875,9.8125 c -0.64104,0 -1.15625,0.50202 -1.15625,1.09375 0,0.59173 0.51521,1.0625 1.15625,1.0625 0.64104,0 1.15625,-0.47077 1.15625,-1.0625 0,-0.59173 -0.51521,-1.09375 -1.15625,-1.09375 z m -11.15625,0.90625 c -0.59173,0 -1.0625,0.55964 -1.0625,1.25 0,0.69036 0.47077,1.25 1.0625,1.25 0.59173,0 1.0625,-0.55964 1.0625,-1.25 0,-0.69036 -0.47077,-1.25 -1.0625,-1.25 z m -11.875,7.3125 c -0.93691,0 -1.6875,0.79503 -1.6875,1.78125 0,0.98622 0.75059,1.78125 1.6875,1.78125 0.93691,0 1.6875,-0.79503 1.6875,-1.78125 0,-0.98622 -0.75059,-1.78125 -1.6875,-1.78125 z m -24.28125,5.53125 c -0.83829,0 -1.53125,0.7374 -1.53125,1.625 0,0.8876 0.69296,1.59375 1.53125,1.59375 0.83829,0 1.5,-0.70615 1.5,-1.59375 0,-0.8876 -0.66171,-1.625 -1.5,-1.625 z m -22.34375,5.71875 c -1.03553,0 -1.875,0.79503 -1.875,1.78125 0.33485,2.53595 3.6893,1.90163 3.75,0 0,-0.98622 -0.83947,-1.78125 -1.875,-1.78125 z m -38.125,3.03125 c -2.93041,0.10491 -2.06114,2.46344 0,2.5 2.95989,-0.0996 2.09917,-2.4628 0,-2.5 z m 50.625,0.53125 c -0.24656,0 -0.4375,0.27982 -0.4375,0.625 0,0.34518 0.19094,0.625 0.4375,0.625 0.24656,0 0.46875,-0.27982 0.46875,-0.625 0,-0.34518 -0.22219,-0.625 -0.46875,-0.625 z m -28.125,3.125 c 0,1.3314 0.92834,2.4375 2.0625,2.4375 5.56967,-2.26635 -1.932,-7.43065 -2.0625,-2.4375 z m -11.0625,-1.6875 c -0.78898,0 -1.4375,0.7374 -1.4375,1.625 0.63465,2.34951 2.32291,1.49072 2.875,0 0,-0.8876 -0.64852,-1.625 -1.4375,-1.625 z m -22.21875,7.6875 c -0.93691,0 -1.71875,0.75059 -1.71875,1.6875 0,0.93691 0.78184,1.6875 1.71875,1.6875 0.93691,0 1.6875,-0.75059 1.6875,-1.6875 0,-0.93691 -0.75059,-1.6875 -1.6875,-1.6875 z m 14.53125,2.125 c -0.39449,0 -0.6875,0.3687 -0.6875,0.8125 0,0.4438 0.29301,0.8125 0.6875,0.8125 0.39449,0 0.71875,-0.3687 0.71875,-0.8125 0,-0.4438 -0.32426,-0.8125 -0.71875,-0.8125 z m -30.96875,11.09375 c -2.57483,0.0815 -1.8185,2.09398 0,2.125 2.57483,-0.0815 1.8185,-2.09398 0,-2.125 z"
         style="color:#000000;fill:#af5602;fill-opacity:1;stroke:none;stroke-width:0.30000001;marker:none;visibility:visible;display:inline;overflow:visible;enable-background:accumulate" />
      <path
         inkscape:connector-curvature="0"
         id="path3060"
         d="m 492.16837,524.85287 c -18.81488,-1.16625 -33.65221,11.67296 -48,21.875 -15.77406,9.37169 -32.68466,17.10069 -50.73347,20.83228 -16.63672,5.20211 -34.16864,6.67421 -51.29889,9.53453 -9.19833,2.22171 -25.07947,-1.26508 -25.32686,12.42296 -2.24207,12.60893 -15.79331,17.17145 -27.07122,16.77273 -7.33821,-1.57001 -5.16751,6.27021 1.21821,4 11.27682,-0.0877 24.36275,-4.14328 28.43098,-15.875 -0.56642,-12.8119 11.03242,-12.05193 20.5,-13.09375 15.95061,-2.07833 31.94106,-4.43141 47.66862,-7.83075 15.78234,-4.50022 32.03049,-8.08777 46.26888,-16.66925 19.58094,-7.8713 33.77736,-28.35739 56.45286,-27.95512 12.5539,-1.96087 19.78231,10.46164 26.4219,18.88872 10.83162,13.98487 14.28582,32.74474 12.48596,50.03815 -2.96582,13.56791 -15.72058,21.62058 -25.82589,29.8596 -13.3116,9.00956 -27.77273,16.14176 -41.62863,24.26235 -14.8797,8.19527 -30.25114,15.5759 -46.78125,19.8125 -27.5097,6.44669 -55.36023,12.00454 -83.5625,14.1875 -13.58071,1.72815 -26.40999,-2.78695 -38.48811,-8.42955 -12.02978,-4.48003 -18.53371,-15.83091 -25.82439,-25.5705 -6.75747,-9.42309 -12.43467,-20.09702 -10.90681,-32.06283 -1.67728,-4.39411 4.9291,-20.526 -2.62444,-14.34342 -2.17757,10.47019 -2.35642,22.33859 0.9062,32.59375 6.67614,13.28713 15.41661,25.69572 25.65625,36.4375 9.93275,6.86692 21.42229,11.44368 33,14.59375 24.04185,2.97532 47.92632,-3.08265 71.59375,-6.5937 23.82264,-4.91761 48.20625,-9.81187 69.48634,-22.21483 15.46907,-7.81207 30.31439,-16.76481 45.38866,-25.28517 11.90209,-8.20088 24.54919,-17.06378 31.51072,-30.04234 5.63384,-15.72994 1.72018,-33.37782 -4.22942,-48.45766 -5.86165,-10.79318 -13.36987,-21.19603 -23.09375,-28.78125 -3.46651,-2.29888 -7.45447,-3.28766 -11.5937,-2.9062 z"
         style="fill:#000000;fill-opacity:1;fill-rule:nonzero;stroke:none" />
      <path
         inkscape:connector-curvature="0"
         id="path3064"
         d="m 508.23087,476.63412 c -11.66914,1.25546 -19.81716,11.46256 -27.90625,18.99995 -9.10598,10.67798 -18.46874,21.42263 -30.99125,28.2234 -21.66178,15.83843 -48.882,19.22282 -73.94625,26.7141 -19.85064,3.53766 -40.20804,2.7039 -60.2662,2.02233 -21.0002,-0.83897 -41.76807,-5.42459 -60.82914,-14.35587 -11.14982,-6.37201 -26.68029,-3.27451 -32.95837,8.40793 -5.80084,10.31974 -6.93686,23.7904 -2.19629,34.67561 7.44872,12.6807 23.87083,12.5968 36.15625,17.53125 12.25511,3.33233 25.10364,3.92471 37.37853,7.04644 3.01338,-8.44235 -17.87696,-5.4002 -24.18082,-8.38791 -12.27161,-1.85385 -24.03,-6.15597 -35.82271,-9.84603 -11.66754,-3.51673 -13.56672,-16.7383 -12.0625,-27.125 1.15997,-11.64672 11.05841,-23.88245 23.78679,-21.3922 12.97577,3.87757 25.01562,10.59493 38.43196,13.2047 26.64977,5.82863 54.27796,5.29819 81.38029,3.92642 18.6768,-2.3732 36.59132,-8.63749 54.75162,-13.38889 19.11182,-5.6298 36.29083,-16.68723 51.18059,-29.69378 10.6495,-11.77047 20.5754,-25.50461 35.40625,-32.25 14.18911,-2.03472 25.41086,17.08841 16.65625,28.5312 -2.43458,8.79903 -18.76506,13.90987 -16.65159,21.84187 9.8334,-5.31822 18.30876,-15.43197 23.08914,-25.81062 3.37866,-13.23906 -6.60498,-27.85605 -20.4063,-28.8749 z"
         style="fill:#000000;fill-opacity:1;fill-rule:nonzero;stroke:none" />
      <path
         inkscape:connector-curvature="0"
         id="path3066"
         d="m 232.42755,569.70163 c -2.14989,2.96018 -4.07184,6.31822 -4.11404,10.07996 0.77118,2.12143 -1.45389,4.96328 -3.47031,2.94045 -0.92203,-1.39097 -0.43652,-3.18502 -0.39112,-4.74862 0.47498,-4.07297 2.55723,-7.77536 5.04943,-10.95071 1.74407,-1.56115 4.29045,0.8079 2.92604,2.67892 z"
         style="fill:#000000;fill-opacity:1;fill-rule:nonzero;stroke:none" />
      <path
         inkscape:connector-curvature="0"
         id="path3068"
         d="m 232.49761,542.2245 c 1.58854,2.85601 3.91656,5.21369 5.67227,7.94388 0.99227,2.46499 -2.88789,3.73826 -3.84246,1.41752 -1.88615,-2.59458 -4.13574,-4.98898 -5.52004,-7.90515 -0.63901,-2.2518 2.60624,-3.50255 3.69023,-1.45625 z"
         style="fill:#000000;fill-opacity:1;fill-rule:nonzero;stroke:none" />
      <path
         inkscape:connector-curvature="0"
         id="path3070"
         d="m 243.95121,554.54465 c 2.68972,-3.55944 6.09075,-6.61916 10.10222,-8.61521 1.59122,-2.044 5.36524,-0.24269 3.7464,2.21472 -1.6429,1.51945 -3.90827,2.19789 -5.63276,3.64007 -2.03521,1.61787 -3.78799,3.55388 -5.39915,5.58106 -1.8254,1.67338 -4.45395,-0.99156 -2.81671,-2.82064 z"
         style="fill:#000000;fill-opacity:1;fill-rule:nonzero;stroke:none" />
      <path
         inkscape:connector-curvature="0"
         id="path3072"
         d="m 241.37236,565.22844 c 2.64661,0.0922 5.45621,-0.40147 7.87834,0.96643 2.53833,1.13348 4.36342,3.431 5.67818,5.79805 0.81838,2.53596 -3.13784,3.5257 -3.93874,1.148 -1.30021,-2.0901 -3.42635,-4.08307 -6.05833,-3.91248 -1.49325,-0.072 -3.02805,0.16778 -4.48753,-0.17187 -2.03881,-0.84059 -1.2635,-3.98716 0.92808,-3.82813 z"
         style="fill:#000000;fill-opacity:1;fill-rule:nonzero;stroke:none" />
      <path
         id="path3084"
         d="m 483.94962,536.13412 c -0.27542,-0.007 -0.56972,0.0124 -0.875,0.0625 -0.2058,0.0337 -0.41921,0.0599 -0.625,0.0937 -2.25814,0.3588 -4.52494,0.67849 -6.6875,1.46875 -2.22517,0.76205 -4.44965,1.5421 -6.625,2.4375 -4.65174,1.69154 -2.24549,8.28529 2.40625,6.59375 2.13482,-0.87854 4.31629,-1.65878 6.5,-2.40625 1.78045,-0.64853 3.6418,-0.86655 5.5,-1.15625 0.22104,-0.0362 0.4352,-0.0888 0.65625,-0.125 4.5792,-0.75108 3.88127,-6.86704 -0.25,-6.96875 z m -27.78125,6.375 c -0.49907,0.0539 -1.05039,0.20406 -1.59375,0.5 -0.62014,0.33776 -1.2189,0.67099 -1.84375,1 -1.62776,0.93431 -3.20943,1.98843 -4.65625,3.1875 -1.32765,1.11781 -2.73705,2.07684 -4.28125,2.875 -1.62544,0.82867 -3.27844,1.65438 -4.96875,2.34375 -4.52314,2.01028 -1.67939,8.41654 2.84375,6.40625 1.80214,-0.73714 3.54581,-1.61969 5.28125,-2.5 2.01721,-1.03225 3.88497,-2.30504 5.625,-3.75 1.13096,-0.92972 2.35115,-1.74976 3.625,-2.46875 0.58635,-0.30505 1.13834,-0.62139 1.71875,-0.9375 3.80348,-2.07156 1.74347,-7.03327 -1.75,-6.65625 z m -30.875,17.90625 c -0.59574,0.0663 -1.21143,0.16225 -1.8125,0.15625 -1.96713,0.10907 -3.92147,0.30123 -5.84375,0.75 -2.14467,0.46768 -4.27682,0.98719 -6.4375,1.375 -1.83704,0.24956 -3.67616,0.3601 -5.53125,0.3125 -4.94974,0 -4.94974,7 0,7 2.16425,0.0535 4.32477,-0.0944 6.46875,-0.375 2.35408,-0.39819 4.66774,-0.96046 7,-1.46875 1.55685,-0.36908 3.15597,-0.5402 4.75,-0.625 0.72806,-0.006 1.43344,-0.0779 2.15625,-0.15625 4.92027,-0.53941 4.17027,-7.50816 -0.75,-6.96875 z m -34.34375,7.1875 c -0.50175,-0.0148 -1.04633,0.0623 -1.625,0.28125 0.01,0.0142 0.0213,0.0483 0.0312,0.0625 -0.29338,0.1141 -0.58777,0.0655 -0.90625,0.0625 -0.64561,-0.006 -1.29208,-0.014 -1.9375,-0.0312 -1.60217,-0.048 -3.1847,-0.10207 -4.78125,-0.25 -4.92518,-0.49252 -5.64394,6.47623 -0.71875,6.96875 1.75796,0.16573 3.54812,0.22785 5.3125,0.28125 1.47153,0.0652 2.92079,0.0903 4.375,-0.15625 l 1.09375,-0.375 c 4.05069,-1.53289 2.66848,-6.74029 -0.84375,-6.84375 z m -24.65625,3.3125 c -0.5019,0.008 -1.02575,0.12967 -1.59375,0.375 -0.11855,0.053 -0.25645,0.10325 -0.375,0.15625 -0.75547,0.29917 -1.54139,0.52794 -2.34375,0.65625 -1.15419,0.1146 -2.30601,0.2449 -3.46875,0.1875 -4.94975,0 -4.94975,7 0,7 1.39295,0.0544 2.77284,-0.0814 4.15625,-0.21875 1.40711,-0.15944 2.76686,-0.58452 4.09375,-1.0625 0.23246,-0.0987 0.45504,-0.18255 0.6875,-0.28125 3.97601,-1.71731 2.35702,-6.87047 -1.15625,-6.8125 z m -41,0.3125 c -2.10777,0.0118 -4.21419,0.0243 -6.3125,0.25 -2.26326,0.27418 -4.58835,0.6101 -6.65625,1.625 -1.69701,0.93115 -3.23287,2.05496 -4.59375,3.4375 -3.5,3.5 1.46875,8.46875 4.96875,4.96875 0.89267,-0.85754 1.81992,-1.70044 2.9375,-2.25 1.32095,-0.52967 2.75081,-0.67937 4.15625,-0.84375 1.83639,-0.18553 3.68757,-0.1774 5.53125,-0.1875 1.97056,-0.005 3.93569,-0.003 5.90625,0 0.85262,0.0565 1.7089,0.136 2.53125,0.375 0.9033,0.25752 1.75034,0.71054 2.59375,1.125 1.14329,0.53583 2.3183,1.02123 3.53125,1.375 1.15645,0.2673 2.31925,0.41676 3.5,0.53125 0.70391,0.0602 1.41929,0.0972 2.125,0.125 4.94601,0.19239 5.196,-6.80761 0.25,-7 -0.57626,-0.0221 -1.14377,-0.0476 -1.71875,-0.0937 -0.76724,-0.0702 -1.52391,-0.17348 -2.28125,-0.3125 -0.81147,-0.19965 -1.54421,-0.62017 -2.3125,-0.9375 -1.24987,-0.61237 -2.52789,-1.1954 -3.875,-1.5625 -1.41625,-0.36679 -2.84763,-0.5867 -4.3125,-0.625 -1.98761,-0.003 -3.98114,-0.005 -5.96875,0 z"
         style="fill:#f2c200;fill-opacity:1;fill-rule:nonzero;stroke:none"
         inkscape:connector-curvature="0" />
      <path
         inkscape:connector-curvature="0"
         id="path3096"
         d="m 479.54337,506.91537 c -5.14787,4.99294 -12.31301,3.81691 -18.69393,5.7166 -4.97219,4.30982 -11.3497,5.37735 -16.86193,8.54134 -7.54668,4.84617 -13.54561,14.04476 -23.52337,13.54167 -6.2244,0.88609 -13.86325,-5.01169 -18.88952,0.20039 -4.29253,4.49637 -4.26712,15.96016 -10.9708,16.55694 -5.99825,-1.21635 -11.41547,-7.19569 -17.76238,-4.73016 -4.16263,4.04343 -11.01822,-5.06044 -14.77088,2.16928 -5.68232,7.44374 -13.47268,-6.32848 -19.53156,2.15134 -3.31522,6.02415 -9.79624,5.28157 -15.47996,3.53649 -3.74693,-1.2855 -13.76049,-4.11109 -10.3291,3.12862 6.1365,2.62432 13.00569,3.73439 19.65718,4.28129 6.52217,1.68533 10.11763,-11.27031 14.41137,-6.6398 5.4739,4.60663 12.87959,1.19088 16.83863,-3.2978 5.51523,5.38255 11.29685,-2.59195 16.57374,1.60331 5.17607,2.20491 12.21035,6.74826 17.11376,1.64669 4.37938,-4.69652 5.62308,-11.64968 9.1875,-16.625 9.01503,1.94575 19.40238,3.93453 27.43269,-1.96685 6.87124,-4.1683 11.7964,-11.97285 20.17409,-13.20615 6.35222,-3.88702 12.41827,-7.3491 20.15518,-6.81524 3.56731,-0.98012 12.86565,-7.25984 5.26929,-9.79296 z m -72.78125,31.09375 c -0.25033,0.59918 -0.67474,0.7185 0,0 z m -42.625,13.5 c -0.34236,0.5651 -0.8473,0.39516 0,0 z"
         style="fill:#f40107;fill-opacity:1;fill-rule:nonzero;stroke:none" />
      <path
         inkscape:connector-curvature="0"
         id="path3098"
         d="m 490.73087,497.47787 c -8.4981,0.59549 -6.20086,12.755 -13.56522,15.6461 -4.28887,7.10152 -13.12746,0.26686 -18.62228,5.35375 -5.95989,2.19532 -9.58696,8.80246 -16.74221,5.9305 -8.0641,1.88033 -15.2613,6.28412 -22.85149,9.3507 -7.46318,-3.10245 -15.28295,-0.69761 -19.71875,6.06255 -6.43888,-0.29141 -14.6129,-0.0706 -20.60789,4.19319 -7.54973,6.86901 -17.11885,1.32532 -25.36086,-0.78694 -13.49494,0.62876 -25.58091,10.66703 -39.4473,7.90151 -6.40365,1.21093 -15.09088,-9.52425 -18.83917,-2.39442 3.90727,6.40069 13.58866,7.31131 20.59897,8.71166 13.03004,1.53909 24.5285,-6.49651 37.0625,-8.25 6.32813,2.03771 12.95857,4.7176 19.65407,4.30237 8.10056,-2.12858 15.00193,-9.82321 23.98876,-7.42302 7.82258,3.11444 10.02058,-11.07439 17.84609,-7.04718 7.64361,2.77959 13.9627,-3.82137 20.87561,-5.93058 6.7134,-5.10101 15.93271,0.78949 21.44797,-6.55784 5.92124,-7.33325 16.00386,-0.73385 22.32518,-6.70924 5.73026,-4.25351 9.93674,-9.72029 11.98732,-16.60321 3.259,1.74075 17.19368,1.98979 10.98581,-4.80178 -3.64462,-0.44634 -7.36237,-0.34787 -11.01711,-0.94812 z m -91.90625,43 c 0.40124,0.24458 -0.59904,-0.0352 0,0 z"
         style="fill:#ffc3be;fill-opacity:1;fill-rule:nonzero;stroke:none" />
      <path
         inkscape:connector-curvature="0"
         id="path3106"
         d="m 312.37352,522.58328 c -6.59719,-7.61462 -12.14594,-17.40192 -11.80189,-27.73952 1.98869,-14.23601 15.49205,-24.71208 14.27379,-39.75961 -1.81319,-15.82668 -13.97269,-28.32866 -15.82369,-44.19789 -1.14384,-9.94264 -2.6395,-20.1695 -0.92644,-30.10255 6.85599,-2.6168 1.69042,10.28499 3.40311,14.27357 0.62306,10.48205 1.43544,21.28355 6.441,30.74274 5.22682,11.84255 13.58723,24.1382 10.18064,37.68724 -2.2201,11.95802 -12.61515,20.85126 -13.64717,33.09477 0.71226,8.98592 5.48908,17.23059 11.26379,23.9506 0.87996,1.98767 -1.97106,3.74977 -3.36314,2.05065 z"
         style="fill:#dcdcdc;fill-opacity:1;fill-rule:nonzero;stroke:none" />
      <path
         inkscape:connector-curvature="0"
         id="path3108"
         d="m 377.43742,490.60586 c -8.9336,-8.61582 -11.77433,-23.55169 -4.34397,-33.97916 4.57101,-6.61295 9.68158,-14.13375 7.53033,-22.6391 -3.8841,-16.79804 -12.55562,-32.72559 -11.85531,-50.41001 -1.18722,-3.0875 0.62287,-12.96642 3.98218,-6.79601 -0.63261,12.40104 1.31275,24.80277 5.7406,36.40206 3.29582,11.11892 9.71752,23.102 4.56845,34.69642 -3.85494,8.19337 -12.00244,15.37244 -10.09204,25.32353 -0.9663,7.15258 8.01057,11.83778 7.37181,17.68176 -0.82169,0.77994 -2.22649,0.61732 -2.90205,-0.27949 z"
         style="fill:#dcdcdc;fill-opacity:1;fill-rule:nonzero;stroke:none" />
      <path
         inkscape:connector-curvature="0"
         id="path3110"
         d="m 430.24714,503.57867 c -5.15534,-11.02873 -8.53187,-24.41647 -2.94497,-35.9381 3.1507,-7.28997 7.31012,-15.57028 3.40838,-23.45786 -6.42454,-14.4604 -9.45389,-30.26167 -9.92375,-46.02995 4.05668,-6.40727 4.60746,4.92537 4.45369,8.1022 1.21468,12.66184 4.11028,25.15898 9.30623,36.79696 4.40725,9.24379 -0.41365,18.80449 -4.02792,27.33689 -4.73373,10.54403 -0.71186,22.3363 3.56742,32.30796 0.17245,2.17996 -3.01635,2.93348 -3.83908,0.8819 z"
         style="fill:#dcdcdc;fill-opacity:1;fill-rule:nonzero;stroke:none" />
    </g>
  </g>
</svg>
