<svg id="Layer_1" data-name="Layer 1" xmlns="http://www.w3.org/2000/svg" xmlns:xlink="http://www.w3.org/1999/xlink" viewBox="0 0 512 512"><defs><style>.cls-1{fill:#fff;}.cls-2{fill:url(#linear-gradient);}.cls-3{fill:url(#linear-gradient-2);}</style><linearGradient id="linear-gradient" x1="256" y1="492.8" x2="256" y2="326.4" gradientUnits="userSpaceOnUse"><stop offset="0" stop-color="#f2a4ba"/><stop offset="1" stop-color="#ffdce7"/></linearGradient><linearGradient id="linear-gradient-2" x1="46.99" y1="256" x2="465.01" y2="256" gradientUnits="userSpaceOnUse"><stop offset="0.16" stop-color="#f96992"/><stop offset="1" stop-color="#f96992"/></linearGradient></defs><title>church-filled</title><polygon class="cls-1" points="403.2 492.8 108.8 492.8 108.8 236.8 256 166.4 403.2 236.8 403.2 492.8"/><path class="cls-2" d="M185.6,492.8v-96a70.4,70.4,0,1,1,140.8,0v96Z"/><path class="cls-3" d="M465,245.08l-53.52-25.6h0l-24.82-11.87L275.2,154.3V76.8h38.4V38.4H275.2V0H236.8V38.4H198.4V76.8h38.4v77.5L125.33,207.61l-24.82,11.87h0L47,245.08l16.56,34.64,26-12.46V492.8A19.2,19.2,0,0,0,108.8,512H403.2a19.2,19.2,0,0,0,19.2-19.2V267.27l26,12.46ZM236.8,473.6h-32V396.8a51.27,51.27,0,0,1,32-47.45Zm38.4,0V349.35a51.27,51.27,0,0,1,32,47.45v76.8Zm108.8,0H345.6V396.8a89.6,89.6,0,0,0-179.2,0v76.8H128V248.9l128-61.22L384,248.9Z"/></svg>