<?xml version="1.0" encoding="utf-8"?>
<!-- Generator: Adobe Illustrator 20.1.0, SVG Export Plug-In . SVG Version: 6.00 Build 0)  -->
<svg version="1.1" id="Calque_1" xmlns="http://www.w3.org/2000/svg" xmlns:xlink="http://www.w3.org/1999/xlink" x="0px" y="0px"
	 viewBox="0 0 432 432" style="enable-background:new 0 0 432 432;" xml:space="preserve">
<style type="text/css">
	.st0{fill:#EC5F62;}
	.st1{fill:#C9973C;}
	.st2{fill:#C9973D;}
	.st3{fill:#CC7B26;}
	.st4{fill:#B36927;}
	.st5{fill:#E83F3F;}
	.st6{fill:#FED173;}
	.st7{fill:#FDD98C;}
	.st8{fill:#F1F2F2;}
	.st9{fill:#F7A52D;}
	.st10{fill:#E94871;}
	.st11{fill-rule:evenodd;clip-rule:evenodd;fill:#C9973D;}
	.st12{fill:#CB9B3F;}
	.st13{fill:#3AAA35;}
	.st14{fill:#E30613;}
	.st15{fill:#E94374;}
	.st16{fill:#F08898;}
	.st17{fill:#79BD6E;}
	.st18{fill:#F7A645;}
	.st19{fill-rule:evenodd;clip-rule:evenodd;fill:#CB9A3E;}
	.st20{fill:#CB9A3E;}
	.st21{fill:#BE1622;}
	.st22{fill:#936037;}
</style>
<g>
	<g>
		<g>
			<path d="M128.2,59.6c0,0,0-0.1-0.1-0.2L128.2,59.6z"/>
			<path d="M122.8,58.7c0.4,0,0.9,0,1.3-0.1c0.7,0,1.5,0,2.3,0.2c0.2,0.4,0.4,0.9,0.5,1.3c0.3,1,0.7,1.9,1,2.8
				c1.2,2.9,2.5,5.6,3.7,8.4c0.4,1,0.9,2.1,1.4,3c0.7,1.2,1,2.4,1.5,3.6c0.4,1,0.3,1.8-0.1,2.6c-1.2,2.7-2.1,5.5-3,8.3
				c-0.6,1.9-1.2,3.8-1.8,5.7c-0.1,0.6-0.4,1.5-0.7,2c-0.1,0.4-0.3,0.2-0.7,0.3c-0.6,0-1.2,0.1-1.7,0.1c-0.4,0.1-0.8,0-1.2,0.1
				c-0.1,0-0.4,0.2-0.4,0.4c-0.1,0.3,0,0.6,0.2,0.7c0.1,0.1,0.3,0.2,0.4,0.2c0.4,0.1,0.9,0.1,1.2,0.1c1.1-0.1,2.3-0.2,3.4-0.2
				c2.3-0.1,10.1-0.4,11.4-0.2c0.3,0.1,0.6,0,0.8-0.1c0.4-0.1,0.7-0.5,0.6-0.8c0-0.4-0.4-0.7-0.7-0.7h-1.5c-0.5,0-1.1,0-1.8-0.1
				c0.1-0.4,0.1-0.7,0.1-1.1c0.2-1.2,0.5-2.4,0.8-3.7c0.5-2.4,1.1-4.8,1.9-7.2l2.6-7.3c1.1-2.8,2.1-5.6,3.2-8.5
				c0.7-1.8,1.2-3.6,1.9-5.4c0.5-1.3,1-2.6,1.4-4c0.4-1.4,0.7-1.4,0.7-1.4c0.8,0.1,3.3,0.2,4,0.2c0.5,0.1,0.9-0.1,0.9-0.6
				c0.1-0.4-0.2-0.8-0.8-0.9c-0.2,0-0.4,0-0.7-0.1c-1.6-0.1-3.1-0.2-4.6-0.4c-1.1-0.1-2.1-0.2-3.2-0.3c-2.2-0.1-4.4-0.4-6.6-0.4
				c-0.2-0.1-0.5-0.1-0.7,0c-0.2,0.1-0.4,0.3-0.4,0.4c-0.1,0.3,0.1,0.6,0.4,0.7c0.2,0.1,0.4,0.1,0.7,0.1c0.7,0.1,1.4,0.1,2.1,0.1
				c0.5,0,1,0.2,1,0.2c-1.1,3.3-1.5,4.1-2.2,5.6l-1.1,2.8c-0.7,1.9-1.4,3.9-2,5.8c-0.1,0.1-0.1,0.2-0.1,0.4
				c-0.6,1.3-2.1,5.2-2.3,5.5c-0.2-0.1-1.7-4-2.3-5.4c-1.2-2.5-2.3-4.9-3.4-7.4c-0.7-1.4-1.2-2.8-1.7-4.2l-0.1-0.3l-0.4-1
				c1.4,0,3.7-0.1,5.1-0.1c0.4,0,0.9,0,1.2-0.1c0.4-0.1,0.5-0.8,0.1-1.1c-0.2-0.1-0.4-0.2-0.7-0.3c-0.4,0-1,0-1.4,0.1l-3.4,0.2
				c-1.8,0-3.6-0.1-5.4-0.1c-0.4,0-0.7,0-1.1,0.1c-0.3,0.1-0.5,0.7-0.2,1C122.3,58.5,122.5,58.6,122.8,58.7z"/>
			<path d="M156.1,82.7c0.4,2.4,1.1,4.8,2.4,7c0.4,0.9,1,1.7,1.5,2.6c0.7,1.2,1.8,2,2.6,2.8c1.3,1.1,2.9,1.7,4.3,2.3
				c1,0.4,2.2,0.6,3.2,1c1,0.2,2,0.2,3.1-0.1c1.1-0.3,2.1-0.9,3.1-1.5c1-0.5,1.7-1.3,2.3-2.1c0.9-1,1.8-2.1,2.3-3.4
				c0.4-0.9,0.8-1.5,1.2-2.4c0.3-1,0.7-1.9,0.9-2.7c0.4-1.7,1-3.3,1.1-4.9c0.6-3.5,0.5-10.1-0.3-13.8c-1.6-7-3.4-12.4-9.2-12.9
				c-0.3-0.1-4.1-0.7-7.6,1.4c-1,0.5-2,1-2.8,1.9c-0.4,0.4-1,0.9-1.5,1.4c-0.7,0.7-1.3,1.5-1.8,2.4C155.4,71.4,155.3,77,156.1,82.7z
				 M166.3,66.1c0.6-1.8,1.3-3.2,2.2-4.7c1.4-2.1,2.5-3.1,5.4-4.4c1.5-0.7,3.4-0.1,4.4,1.1c2.1,2.2,6.3,13.4,4,23.6
				c-0.1,1.4-0.6,2.7-0.9,4.2l-0.7,1.7c-0.7,1.8-2.5,4.9-6.1,4.8c-0.7-0.1-1.4-0.4-2-0.8c-1.3-0.9-2.3-2-3.2-3.3
				c-0.4-0.7-1-1.6-1.2-2.3c-0.8-1.7-1.5-3.3-1.8-5c-0.2-1-0.4-2-0.6-2.9v-1c-0.1-1.3-0.2-2.6-0.4-4
				C165.4,70.7,165.6,68.4,166.3,66.1z"/>
			<path d="M190.4,58c0.1,0,0.1-0.1,0.3-0.1h0.7v1.7c-0.4,7-0.7,13.3-0.5,18.6c0.1,4.4,0.4,10,1.3,12c0.2,0.5,0.4,1,0.7,1.5
				c0.1,0.3,0.2,0.4,0.4,0.7c0.1,0.1,0.1,0.1,0.2,0.3c0.7,1.2,2.7,4.3,6.7,5.3c0.9,0.2,1.7,0.4,2.5,0.4c0.5,0,1.1-0.1,1.6-0.2
				c1.2-0.1,2.3-0.7,3.4-1.1c5.3-1.8,9.5-11.7,11-17.7c1.1-4.6,1.8-11.3,1.8-12.6l0.1-8.5v-0.8c0.1-0.5,0.1-0.4,0.6-0.4h1
				c0.8,0.1,1.7-0.1,1.9-0.4c0.3-0.2,0.4-0.4,0.3-0.6c0-0.2-0.2-0.4-0.4-0.5c-0.3-0.1-0.6-0.1-0.8-0.1c-0.1,0-2.8,0.4-4,0.4h-0.8
				l-0.7-0.1h-2.1c-0.3,0-0.6,0.1-0.7,0.4c-0.2,0.2-0.2,0.4-0.2,0.6c0.1,0.2,0.3,0.4,0.7,0.4c0.1,0.1,0.3,0.1,0.6,0.1h0.3l1.7-0.1
				h0.3c0.6,0,0.7,0.2,0.7,0.9v0.4c0,2.5-0.1,4.3-0.1,4.9c-0.1,5.1-0.1,5.1-0.4,7.4l-0.1,0.9c-0.1,0.4-0.1,0.9-0.2,1.4
				c0,0.4-0.1,0.7-0.1,1.3c-1,5.9-2.2,9.4-4.3,13.5c-0.7,1.7-1.8,3.4-3.2,5.1c-0.7,0.7-1.5,1.5-2.6,1.7c-0.5,0.1-1.1,0.2-1.7,0.2
				c-0.2,0-0.5,0-0.8-0.1c-0.7-0.2-1.3-0.4-1.8-0.8c-3.3-1.9-4.9-4.6-5.4-9c-0.1-0.5-0.1-1-0.1-1.5c-0.1-0.1-0.1-1.2-0.1-2.9
				c-0.1-5.6-0.4-16.2-0.3-17.3v-0.5l0.1-5.1c0.4,0,0.7-0.1,1-0.1c1-0.1,2,0.4,2-1c0.1-0.1,0.1,0,0-0.2c0-0.6-1.1-0.1-2.1-0.2
				c-1.3,0.1-2.8,0.1-4.3,0.1h-3.7c-0.5,0-0.9,0.2-1,0.7c-0.1,0.2-0.1,0.4,0.1,0.7C189.9,57.8,190.2,58,190.4,58z"/>
			<path d="M239.9,59.6c0.5,0.1,0.9,0,1.4,0c0.7,0,1,0.2,1,1c0.1,1.2,0.1,1.7,0.4,3.1l0.2,2.6c0.1,1.5,0.3,3,0.6,4.6
				c0.2,1.8,0.6,3.5,1.2,10.3c0.1,1.2,1.2,10.5,1.4,11.7c0.1,1.5,0.6,3,1,4.6c0.1,0.4,0.4,0.6,0.7,0.7l0.8-0.2
				c0.5-0.3,1-0.4,1.5-0.4c1.2-0.1,2.3-0.3,3.5-0.3c0.7,0,1.4-0.7,1.3-1.5c0.1-0.5,0.2-1.1,0.4-1.5c0.4-1.3,0.7-2.6,1.2-3.9
				c0.3-0.8,0.4-1.7,0.8-2.6c0.5-1.5,0.9-3.2,1.5-4.8c0.4-1.3,1.4-5.1,1.5-5.1c0.1,0,0.4,1.5,0.5,2.1c0.1,1,1.1,5.6,1.3,6.7
				c0.5,1.9,1,4,1.6,5.8c0.5,1.8,1.2,3.4,1.4,5.2c0.1,0.5,0.4,0.8,0.8,0.8c0.4-0.1,0.8,0,1.2-0.1c4.5-0.3,5.7-0.1,5.9-1.5
				c0.1-0.3,0.2-0.7,0.3-1c0.4-1.8,0.7-3.5,1.2-5.4c0.4-1.5,0.7-3.2,1-4.9c0.1-0.5,0.1-1.1,0.3-1.7c0.5-2.1,0.8-4,1.2-6
				c0.1-0.7,0.3-1.5,0.4-2.1l3.7-16.4c0,0,0-0.1,0.1-0.1c0.6,0,1.2-0.2,2-0.3c0.4-0.2,1,0.1,1.2-1c0.1-0.3-0.1-0.7-0.4-0.9
				c-3.9-0.1-12.5,0.4-13.1,0.6c-0.2,0-0.4,0.1-0.7,0.1c-0.2,0.1-0.4,0.3-0.4,0.5c0.1,0.6,0.6,0.9,1.2,1l2.9,0.1h0.4l-0.3,1.8
				c-0.4,0.7-1.8,8-3.1,13.9c-0.3,1.5-0.8,2.8-1,4.3c-0.4,1.2-1.3,6.5-1.6,7.7c-0.2,1-0.4,1.8-0.6,2.8l-1,3.4
				c-0.1,0.4-0.4,1.2-0.5,1.7c-0.1-0.1-0.4-0.7-0.4-0.8c-0.7-1.5-1-3.2-1.5-4.8c-0.4-1.5-0.8-2.9-1.2-4.5c-0.7-2.4-1.1-5.5-1.4-6.7
				c-0.2-1.4-0.4-2.7-0.4-4c0-0.1-0.1-0.2-0.1-0.3c-0.1-0.4-0.2-0.4-0.4-0.6c-0.6-0.4-1.5,0-1.5,0.8c-0.1,0.7-0.1,1.2-1,4.5
				c-0.3,1.4-0.7,2.6-1.1,4l-1.2,3.2l-1.2,4.3c-0.3,1.2-0.7,2.4-0.7,1.4c-0.2-1-0.5-3.3-0.7-4c-0.2-1.5-0.6-3.1-0.7-4.5l-0.5-4.6
				c-0.2-1.2-0.3-2.5-0.6-3.7l-0.7-5.8c-0.3-1.6-0.6-3.3-0.7-4.9c-0.1-1.2-0.4-2.3-0.4-3.4c0-0.4-0.1-0.9,0.1-1.2
				c0.5-0.1,1.1,0,1.7,0c0.6,0.1,1-0.2,1.1-0.8c0.4-0.4,0.1-0.9-0.8-0.9c-0.6,0.1-5,0.1-5.6,0.1c-0.6,0.1-6.5,0.1-7,0.9
				c-0.2,0.2-0.4,0.5-0.2,0.8C239.4,59.5,239.7,59.6,239.9,59.6z"/>
			<path d="M289.7,58.4c0.1,0,0.3,0.1,0.4,0c0.5,0,1,0,1.6-0.1h2c0.1,0.1,0.1,0.2,0.1,0.2c0,1.6-0.2,9-0.3,10.8
				c0,0.5-0.1,7.3-0.1,9.1c0,1.8-0.2,3.4-0.1,5.3c-0.1,1-0.2,11.1-0.2,12.5c0,0.7-0.2,0.2-1,0.4c-0.2-0.1-0.4,0-0.7,0.1
				c-0.1,0-0.4,0-0.7,0.1c-0.4,0.1-0.5,0.7-0.5,1c0.1,0.4,0.4,0.7,1,0.7h0.4c0.8-0.1,1.8-0.1,2.9-0.2c2-0.1,4,0.2,6.1-0.1
				c0.3,0.1,0.7,0.1,0.9,0.1c0.4,0.1,0.7,0,0.9,0c0.5,0.1,0.9-0.1,1.2-0.2c0.2-0.2,0.3-1,0.1-1.3c-0.2-0.3-0.6-0.4-1-0.4
				c-0.3,0.1-0.6,0.1-1,0.1c-0.4,0.1-0.7,0-1-0.1c-0.1-0.1-0.1-0.2-0.1-0.3c-0.1-0.2-0.1-0.5-0.1-0.7l0.1-2.6c0-0.4,0-0.7,0.3-6.8
				c0-0.7,0-1.2-0.1-1.8c0-1.1,0.4-14.8,0.5-16.7c0.1-1.1,0.2-2.1,0.1-3c0.1-0.5,0-1.2,0.1-1.7c0.1-1.4,0.3-2.7,0.4-4
				c0-0.1,0.1-0.2,0.1-0.4c0.1-0.1,0.3-0.2,0.5-0.2h2.7c0.4-0.1,0.7-0.4,1-0.9c-0.1-0.9-1.7-0.5-2.9-0.7l-2.6,0.1
				c-0.7,0.1-1.5,0-2.3,0c-1.1,0.1-7,0.1-8.4,0.3l-0.3,0.1c-0.4,0.2-0.6,0.5-0.6,0.7S289.3,58.2,289.7,58.4z"/>
			<path d="M312.7,95.2c-0.1,0.1-0.1,0.1-0.2,0.1h-1.1c-0.3,0.1-0.7,0.1-1,0.3c-0.5,0.2-0.7,1.1-0.1,1.5c0.2,0.1,0.4,0.1,0.7,0.2
				c0.3,0,0.7,0,1-0.1c1.5-0.1,3.1-0.1,4.6,0.1l5.9,0.7c0.4,0.1,0.8,0.1,1.2,0.1c0.9,0.1,1.7,0.1,2.5,0.1c0.9,0,1.7,0.1,2.4,0.1
				c0.9-0.1,1.7-0.1,2.5-0.1c0.5,0,1.2-0.1,1.8-0.2c1-0.1,1.6-0.5,2.3-1.2c1-0.8,1.4-1.8,2.1-2.9c0.3-0.5,0.1-1-0.4-1.3
				c-0.3-0.3-0.7,0-1,0.3c0,0-0.1,0-0.1,0.1c-0.4,0.7-0.7,1.1-1,1.8c-0.5,0.7-1.2,1.2-2.1,1.3c-0.9,0.2-1.8,0.3-2.5,0.3
				c-1,0.1-2.1,0-3,0.1c-1.3-0.1-2.6-0.1-4-0.3c-0.4,0-0.9-0.1-1.2-0.3c-0.1-0.1-0.1-0.1-0.1-0.1c0-1.3-0.1-2.6-0.1-3.9
				c0-1.1-0.2-9-0.2-12l0.1-5.6c0-1.4,0.1-3,0.2-4.5c0.1-1.2,0.1-2.6,0.3-3.9c-0.1-1.5,0.1-2.9,0.1-4.3c-0.1-1.1,0-2.1,0.1-3.2
				c0-0.5,0-1,0.3-1.5c0.2-0.1,0.4-0.1,0.6-0.1c0.5-0.1,1.2-0.2,1.7-0.1c0.4,0,0.6-0.3,0.8-0.6c0.1-0.1,0.1-0.4-0.1-0.5
				c-0.2-0.2-0.7-0.4-1-0.4c-0.4,0.1-0.7,0-1,0.1c-0.4,0.1-0.7,0-1.1,0l-2.6,0.1c-0.8,0-1.5,0-2.3-0.1c-1.3,0-2.6,0.1-3.9,0.1h-1.4
				c-0.3-0.1-0.7-0.1-1.1-0.1c-0.4-0.1-0.7,0.1-1,0.4c-0.2,0.1-0.2,0.4,0.1,0.7c0.4,0.3,0.7,0.4,1.1,0.4h1.8
				c0.4,0.1,0.6,0.3,0.5,0.7c0.1,0.7,0.2,1.6,0.1,2.4c-0.1,2.6-0.2,5.1-0.3,7.6c-0.1,1.1-0.1,2.1-0.1,3.2c0,1.6-0.1,3.2-0.2,5.1
				c0,1.5-0.1,2.9-0.1,4.5c0.1,2.3-0.4,11.9-0.4,12.5C312.7,93.7,312.8,94.6,312.7,95.2z"/>
			<path d="M344.7,95.2c-0.1,0.1-0.1,0.1-0.2,0.1h-1.1c-0.3,0.1-0.7,0.1-1,0.3c-0.5,0.2-0.7,1.1-0.1,1.5c0.2,0.1,0.4,0.1,0.7,0.2
				c0.3,0,0.7,0,1-0.1c1.5-0.1,3.1-0.1,4.6,0.1l5.9,0.7c0.4,0.1,0.8,0.1,1.2,0.1c0.9,0.1,1.7,0.1,2.5,0.1c0.9,0,1.7,0.1,2.4,0.1
				c0.9-0.1,1.7-0.1,2.5-0.1c0.5,0,1.2-0.1,1.8-0.2c1-0.1,1.6-0.5,2.3-1.2c1-0.8,1.4-1.8,2.1-2.9c0.3-0.5,0.1-1-0.4-1.3
				c-0.3-0.3-0.7,0-1,0.3c0,0-0.1,0-0.1,0.1c-0.4,0.7-0.7,1.1-1,1.8c-0.5,0.7-1.2,1.2-2.1,1.3c-0.9,0.2-1.8,0.3-2.5,0.3
				c-1,0.1-2.1,0-3,0.1c-1.3-0.1-2.6-0.1-4-0.3c-0.4,0-0.9-0.1-1.2-0.3c-0.1-0.1-0.1-0.1-0.1-0.1c0-1.3-0.1-2.6-0.1-3.9
				c0-1.1-0.2-9-0.2-12l0.1-5.6c0-1.4,0.1-3,0.2-4.5c0.1-1.2,0.1-2.6,0.3-3.9c-0.1-1.5,0.1-2.9,0.1-4.3c-0.1-1.1,0-2.1,0.1-3.2
				c0-0.5,0-1,0.3-1.5c0.2-0.1,0.4-0.1,0.6-0.1c0.5-0.1,1.2-0.2,1.7-0.1c0.4,0,0.6-0.3,0.8-0.6c0.1-0.1,0.1-0.4-0.1-0.5
				c-0.2-0.2-0.7-0.4-1-0.4c-0.4,0.1-0.7,0-1,0.1c-0.4,0.1-0.7,0-1.1,0l-2.6,0.1c-0.8,0-1.5,0-2.3-0.1c-1.3,0-2.6,0.1-3.9,0.1h-1.4
				c-0.3-0.1-0.7-0.1-1.1-0.1c-0.4-0.1-0.7,0.1-1,0.4c-0.2,0.1-0.2,0.4,0.1,0.7c0.4,0.3,0.7,0.4,1.1,0.4h1.8
				c0.4,0.1,0.6,0.3,0.5,0.7c0.1,0.7,0.2,1.6,0.1,2.4c-0.1,2.6-0.2,5.1-0.3,7.6c-0.1,1.1-0.1,2.1-0.1,3.2c0,1.6-0.1,3.2-0.2,5.1
				c0,1.5-0.1,2.9-0.1,4.5c0.1,2.3-0.4,11.9-0.4,12.5C344.8,93.7,344.9,94.6,344.7,95.2z"/>
		</g>
		<g>
			<path d="M72.1,182.6c0.7,4.5,1.7,8.3,3.1,11.4c1.3,3.1,3,5.2,5.1,6.2c1.3,0.7,2.8,1,4.3,0.8c1.6-0.1,3-0.8,4.4-2.1
				c1.4-1.3,2.6-3.2,3.6-5.8c1-2.6,1.6-6.1,1.8-10.3c0.2-4.3-0.1-9.4-0.8-15.5c-0.8-6.1-2.3-13.3-4.5-21.5c3.1,1.3,6.1,1.6,9.1,0.9
				c3-0.7,5.7-1.9,8.3-3.7c2.4-1.7,4.6-3.6,6.6-5.9c-0.3,1.8-0.5,3.7-0.7,5.6c-0.3,3.6-0.3,7.3,0,10.8s0.9,6.8,1.8,9.8
				c0.9,2.9,2.2,5.4,3.7,7.3c1.5,2,3.4,3.1,5.5,3.5c1.4,0.2,2.7-0.1,4-1c1.3-0.9,2.5-2.2,3.6-3.9c1.1-1.7,2.1-3.8,3.1-6.1
				c1-2.4,1.8-4.9,2.5-7.6c0.7-2.7,1.3-5.5,1.8-8.4c0.5-2.9,0.9-5.8,1.1-8.5c1.5,0.4,3.1,0.5,4.7,0.4c1.6-0.1,3.3-0.5,4.9-1.2
				c1.6-0.7,3.2-1.7,4.7-2.9c1-0.8,1.9-1.7,2.8-2.7c0.3,0.3,0.6,0.6,1,0.9c1.9,1.6,4.1,2.7,6.5,3.3c-0.3,0.7-0.6,1.5-0.9,2.3
				c-0.3,0.8-0.6,1.6-0.9,2.4c-0.9,2.6-1.8,5.4-2.6,8.3c-0.8,3-1.5,5.9-2.1,8.9c-0.5,3-0.9,5.8-1,8.6c-0.1,2.7,0,5.2,0.5,7.3
				c0.5,2.2,1.3,3.9,2.5,5.2c1.2,1.3,2.8,2,4.8,2.1c1.3,0,2.7-0.4,4.1-1.3c1.4-0.9,2.9-2.2,4.4-3.8c1.5-1.6,3-3.6,4.5-5.8
				c1.5-2.2,3-4.6,4.5-7.1c1.5-2.5,2.9-5.2,4.4-8c1.4-2.8,2.8-5.5,4-8.3c0.5-1.2,1-2.3,1.5-3.4c0,0.6,0,1.3,0,1.9
				c0,4.3,0.4,8.4,1,12.5c0.6,4.1,1.4,7.8,2.5,11c1.1,3.3,2.3,6,3.8,8c1.5,2.1,3.2,3.2,5.1,3.5c0.8,0.1,1.7-0.2,2.6-0.8
				c1-0.6,2-1.7,3.2-3.2c1.2-1.5,2.5-3.6,4-6.2c1.5-2.6,3.1-5.9,5-9.8c1.9-3.9,4-8.6,6.3-14c0.8-1.9,1.7-4,2.6-6.1
				c-0.4,3.5-0.8,7-1.1,10.6c-0.3,3.9-0.6,7.7-0.7,11.4c-0.1,3.7-0.1,7.1,0.1,10.1c0.2,3,0.6,5.6,1.3,7.7c0.6,2.1,1.5,3.4,2.7,3.9
				c1.6,0.7,3.3,0.4,5.2-1.1c1.9-1.5,3.8-3.6,5.7-6.5c1.9-2.8,3.8-6.1,5.6-9.8c1.9-3.7,3.6-7.4,5.1-11.2c1.5-3.7,2.9-7.3,4-10.6
				s1.9-5.9,2.4-7.9c1.9,0.1,4.1,0.3,6.6,0.3s5.2-0.1,8.1-0.6c-0.2,3.2-0.3,6.5-0.3,9.9c0.1,3.4,0.3,6.6,0.7,9.8
				c0.4,3.2,0.9,6.2,1.7,9.1c0.7,2.9,1.6,5.4,2.5,7.5c1,2.2,2.1,3.9,3.3,5.2c1.2,1.3,2.6,2.1,4.1,2.3c0.8,0.1,1.7-0.2,2.6-0.8
				c1-0.6,2-1.7,3.2-3.2c1.2-1.5,2.5-3.6,4-6.2c1.5-2.6,3.1-5.9,5-9.8c1.9-3.9,4-8.6,6.3-14c1.9-4.4,4-9.4,6.3-14.9
				c0.4,0.4,0.8,0.8,1.2,1.1c1.9,1.6,4.1,2.7,6.5,3.3c-0.3,0.7-0.6,1.5-0.9,2.3c-0.3,0.8-0.6,1.6-0.9,2.4c-0.9,2.6-1.8,5.4-2.6,8.3
				c-0.8,3-1.5,5.9-2.1,8.9c-0.5,3-0.9,5.8-1,8.6c-0.1,2.7,0,5.2,0.5,7.3c0.5,2.2,1.3,3.9,2.5,5.2c1.2,1.3,2.8,2,4.8,2.1
				c1.3,0,2.7-0.4,4.1-1.3c1.4-0.9,2.9-2.2,4.4-3.8c1.5-1.6,3-3.6,4.5-5.8c1.5-2.2,3-4.6,4.5-7.1c1.5-2.5,2.9-5.2,4.4-8
				c1.4-2.8,2.8-5.5,4-8.3c1.4-3,2.7-5.9,3.8-8.7c1.1-2.8,2.1-5.3,2.9-7.6c0.1-0.3,0.1-0.6-0.1-0.7c-0.2-0.1-0.5-0.2-0.8-0.2
				c-0.3,0-0.7,0-1,0.1c-0.3,0.1-0.5,0.2-0.6,0.3c-0.6,1.8-1.5,3.8-2.5,6.2c-1,2.4-2.1,4.9-3.4,7.7c-1.2,2.6-2.6,5.4-4,8.1
				c-1.4,2.8-2.9,5.5-4.4,8.1c-1.5,2.6-3,5.1-4.5,7.4c-1.5,2.3-3,4.3-4.3,6c-1.4,1.7-2.7,3-3.9,3.9c-1.2,0.9-2.3,1.3-3.2,1.2
				c-0.6-0.1-1-0.8-1.2-2.1c-0.2-1.3-0.2-3,0-5c0.1-2,0.4-4.3,0.8-6.9c0.4-2.6,0.8-5.2,1.3-8c0.5-2.7,1-5.4,1.5-8
				c0.5-2.6,1.1-5,1.5-7.1c0.5-2.1,0.9-3.8,1.2-5.2c0.3-1.4,0.5-2.2,0.6-2.3c-0.3-0.2-1-0.5-1.9-0.8c-0.9-0.3-2-0.7-3.1-1.2
				c-1.1-0.5-2.3-1.1-3.5-1.8c-1.2-0.7-2.2-1.5-3.1-2.4c0.2-1,0.4-1.9,0.5-2.8c0.1-0.9,0.3-1.8,0.4-2.6c0.9-5.4,0.9-9.5-0.1-12.3
				c-1-2.8-3-3.8-5.9-3.1c-2,0.5-3.3,1.7-3.9,3.8c-0.7,2-0.8,4.4-0.3,7c0.5,2.6,1.4,5.3,2.9,8c0.7,1.3,1.5,2.5,2.4,3.6
				c-2.8,6.8-5.5,13-8.1,18.6c-2.9,6.4-5.4,11.8-7.7,16.2c-2.3,4.5-4.2,7.8-5.7,10.1c-1.6,2.3-2.7,3.3-3.4,3.1
				c-1.2-0.4-2.1-1.5-2.8-3.4c-0.7-1.9-1.1-4.2-1.4-6.9c-0.3-2.7-0.4-5.6-0.4-8.8c0-3.2,0.1-6.3,0.2-9.4c0.1-3,0.3-5.8,0.4-8.4
				c0.2-2.6,0.3-4.6,0.3-6c2.3-1.3,4.4-2.8,6.1-4.5c1.7-1.7,3.1-3.4,4.1-5.2c1-1.8,1.7-3.5,2-5.2c0.3-1.7,0.2-3.2-0.3-4.5
				c-0.5-1.3-1.4-2.4-2.6-3.1c-1.3-0.8-3-1.1-5.1-1c-1.9,0.1-3.6,0.8-5.1,2.1c-1.5,1.3-2.7,3-3.8,5.1c-1.1,2.1-1.9,4.6-2.6,7.4
				c-0.7,2.8-1.2,5.8-1.5,8.9c-2.2,0.4-4.6,0.6-7.1,0.7c-2.5,0-4.9-0.1-7.1-0.4c0.6-2,1.2-4.1,1.6-6.4c0.4-2.3,0.7-4.6,0.7-6.8
				c0.1-2.2-0.1-4.2-0.4-5.9c-0.4-1.8-1-3.1-1.9-4c-1.2-1.1-2.4-1.7-3.7-1.8c-1.3-0.1-2.5,0.2-3.7,0.9c-1.2,0.7-2.2,1.6-3.2,2.9
				c-1,1.3-1.7,2.8-2.3,4.4c-0.6,1.6-0.9,3.3-0.9,5.1c0,1.8,0.2,3.6,0.9,5.2c0.6,1.7,1.7,3.3,3.2,4.7c1.5,1.4,3.4,2.6,5.9,3.6
				c-2.1,7-4.2,13.3-6.5,18.9c-2.3,5.5-4.4,10.2-6.4,13.9c-2,3.8-3.9,6.6-5.5,8.6c-1.6,2-2.8,2.9-3.6,2.8c-0.6,0-0.9-1.1-1-3.2
				c0-2.1,0.1-4.8,0.4-8.1c0.3-3.4,0.8-7.2,1.4-11.6c0.6-4.4,1.2-8.9,1.8-13.5c0.6-4.6,1.2-9.3,1.8-13.9c0.6-4.6,1-8.9,1.3-12.9
				c0.2-1,0-1.7-0.7-2.3c-0.6-0.6-1.4-0.9-2.3-1c-0.9-0.1-1.8,0-2.6,0.4c-0.8,0.4-1.3,1.1-1.5,2c-0.2,0.7-0.5,2.2-0.9,4.4
				c-0.4,2.2-0.9,4.8-1.4,7.9c-0.1,0.4-0.1,0.7-0.2,1.1c-2.7,6.5-5.3,12.4-7.7,17.8c-2.9,6.4-5.4,11.8-7.7,16.2
				c-2.3,4.5-4.2,7.8-5.7,10.1c-1.6,2.3-2.7,3.3-3.4,3.1c-1.2-0.4-2.1-1.5-2.8-3.4c-0.7-1.9-1.1-4.2-1.4-6.9
				c-0.3-2.7-0.4-5.6-0.4-8.8c0-3.2,0.1-6.3,0.2-9.4c0.1-3,0.3-5.8,0.4-8.4c0.2-2.6,0.3-4.6,0.3-6c2.3-1.3,4.4-2.8,6.1-4.5
				c1.7-1.7,3.1-3.4,4.1-5.2c1-1.8,1.7-3.5,2-5.2c0.3-1.7,0.2-3.2-0.3-4.5c-0.5-1.3-1.4-2.4-2.6-3.1c-1.3-0.8-3-1.1-5.1-1
				c-2.4,0.1-4.5,1.1-6.2,3.2c-1.7,2-3.2,4.6-4.3,7.8c-1.1,3.2-1.9,6.8-2.4,10.9c-0.1,1-0.2,2-0.3,3c-0.1,0.1-0.1,0.3-0.2,0.4
				c-1,2.4-2.1,4.9-3.4,7.7c-1.2,2.6-2.6,5.4-4,8.1c-1.4,2.8-2.9,5.5-4.4,8.1c-1.5,2.6-3,5.1-4.5,7.4c-1.5,2.3-3,4.3-4.3,6
				c-1.4,1.7-2.7,3-3.9,3.9c-1.2,0.9-2.3,1.3-3.2,1.2c-0.6-0.1-1-0.8-1.2-2.1c-0.2-1.3-0.2-3,0-5c0.1-2,0.4-4.3,0.8-6.9
				c0.4-2.6,0.8-5.2,1.3-8c0.5-2.7,1-5.4,1.5-8c0.5-2.6,1.1-5,1.5-7.1c0.5-2.1,0.9-3.8,1.2-5.2c0.3-1.4,0.5-2.2,0.6-2.3
				c-0.3-0.2-1-0.5-1.9-0.8c-0.9-0.3-2-0.7-3.1-1.2c-1.1-0.5-2.3-1.1-3.5-1.8c-1.2-0.7-2.2-1.5-3.1-2.4c0.2-1,0.4-1.9,0.5-2.8
				c0.1-0.9,0.3-1.8,0.4-2.6c0.9-5.4,0.9-9.5-0.1-12.3c-1-2.8-3-3.8-5.9-3.1c-2,0.5-3.3,1.7-3.9,3.8c-0.7,2-0.8,4.4-0.3,7
				c0.5,2.6,1.4,5.3,2.9,8c0.9,1.7,2,3.2,3.3,4.6c-1.1,1.2-2.1,2.1-3.2,2.9c-1.4,1-2.8,1.7-4.2,2.2c-1.4,0.5-2.8,0.7-4.2,0.7
				c-1.4,0-2.7-0.2-4-0.6c0-2.8-0.2-5.4-0.8-7.7c-0.6-2.3-1.3-4.2-2.3-5.9c-1-1.7-2.1-3-3.3-4c-1.2-1-2.5-1.6-3.9-1.9
				c-2.5-0.5-4.7-0.1-6.7,1.2s-3.7,3.2-5.1,5.7c-1.2,2.1-2.2,4.5-3,7.1c-1.5,2.2-3.2,4.3-5.1,6.1c-2.3,2.3-4.7,4.1-7.2,5.4
				c-2.4,1.3-4.8,2-7.1,2.2c-2.3,0.2-4.2-0.3-5.8-1.6c-0.4-0.5-1-0.8-1.7-0.8c-0.7,0-1.2,0.1-1.8,0.4c-0.5,0.3-0.9,0.8-1.1,1.4
				c-0.2,0.6-0.1,1.3,0.3,2.1c2,6.2,3.4,11.9,4.3,17c0.9,5.1,1.5,9.7,1.6,13.7c0.1,4-0.1,7.5-0.6,10.3c-0.5,2.9-1.2,5.2-2.1,7
				c-0.9,1.8-1.8,2.9-2.9,3.6c-1.1,0.6-2.2,0.6-3.2,0.1c-0.9-0.5-1.7-1.6-2.3-3.4c-0.6-1.8-1.1-4-1.4-6.7c-0.3-2.7-0.5-5.8-0.6-9.2
				c0-3.4,0-7.1,0.1-11c0.1-3.9,0.4-7.9,0.7-12c0.3-4.2,0.8-8.3,1.2-12.4c0.5-4.1,1.1-8,1.7-11.9c0.6-3.8,1.3-7.4,2.1-10.7
				c5.4-3,9.8-6.3,13.3-9.9c3.5-3.6,6.2-7.3,8.1-11c1.9-3.7,3.1-7.3,3.7-10.7c0.5-3.4,0.6-6.5,0.1-9.2c-0.5-2.7-1.3-4.8-2.6-6.4
				c-1.3-1.6-2.8-2.4-4.5-2.3c-2.7-0.1-5.4,0.8-7.9,3c-2.5,2.1-4.8,5.1-6.9,8.9c-2.1,3.8-4.1,8.3-5.9,13.4
				c-1.8,5.2-3.4,10.7-4.7,16.6c-1.4,5.9-2.5,12-3.4,18.3c-0.9,6.3-1.6,12.5-2,18.7c-0.4,6.1-0.6,12-0.4,17.7
				C71,173,71.4,178.1,72.1,182.6z M309.4,119.3c-0.3-1.3-0.6-2.8-0.8-4.2c-0.1-0.8-0.1-1.5,0.1-2.2c0.2-0.7,0.5-1.2,0.8-1.6
				c0.3-0.4,0.7-0.5,1.2-0.4c0.4,0.1,0.8,0.5,1.1,1.2c0.3,0.7,0.5,1.8,0.6,3.3c0.1,1.5,0,3.4-0.2,5.9l-0.5,4
				c-0.1,0.3-0.3,0.2-0.6-0.3c-0.2-0.5-0.5-1.2-0.8-2.2C310,121.8,309.7,120.7,309.4,119.3z M283.7,119.2c0.9-2.9,2.2-4.5,3.9-4.9
				c1.7-0.4,2.9,0,3.6,1.1c0.7,1.1,0.9,2.6,0.5,4.5c-0.4,1.9-1.4,3.9-3,6.1c-1.6,2.2-3.8,4.2-6.8,6.1
				C282.3,126.3,282.9,122,283.7,119.2z M250.9,131.1c-1.1-1.4-1.9-3-2.2-4.8c-0.3-1.7-0.3-3.5,0-5.3c0.3-1.8,0.9-3.3,1.7-4.6
				c0.8-1.3,1.7-2.2,2.7-2.8c1.1-0.6,2.1-0.5,3.2,0.1c0.8,0.5,1.3,1.4,1.7,2.8c0.3,1.4,0.5,3,0.4,4.9c0,1.9-0.3,4-0.7,6.2
				c-0.4,2.2-1,4.4-1.7,6.6C253.8,133.6,252.1,132.6,250.9,131.1z M203,119.2c0.9-2.9,2.2-4.5,3.9-4.9c1.7-0.4,2.9,0,3.6,1.1
				c0.7,1.1,0.9,2.6,0.5,4.5c-0.4,1.9-1.4,3.9-3,6.1c-1.6,2.2-3.8,4.2-6.8,6.1C201.6,126.3,202.2,122,203,119.2z M155.1,125
				c-0.2-0.5-0.5-1.2-0.8-2.2c-0.3-1-0.6-2.1-1-3.5c-0.3-1.3-0.6-2.8-0.8-4.2c-0.1-0.8-0.1-1.5,0.1-2.2c0.2-0.7,0.5-1.2,0.8-1.6
				c0.3-0.4,0.7-0.5,1.2-0.4c0.4,0.1,0.8,0.5,1.1,1.2c0.3,0.7,0.5,1.8,0.6,3.3c0.1,1.5,0,3.4-0.2,5.9l-0.5,4
				C155.6,125.5,155.4,125.4,155.1,125z M127.2,120.3c0.8-1,1.7-1.3,2.8-0.9c1.1,0.4,2.1,1.4,3.1,2.9c1,1.5,1.8,3.4,2.6,5.6
				c0.7,2.3,1.1,4.6,1.2,7.2c-1.6-0.8-3-1.9-4.3-3.4c-1.3-1.5-2.4-3-3.3-4.5c-0.9-1.5-1.5-3-1.9-4.3
				C127,121.6,126.9,120.7,127.2,120.3z M120.3,152.7c0-3.7,0.3-7.4,0.6-11.1c0.4-3.7,0.9-7.1,1.5-10.3c0.7-3.2,1.4-5.7,2.3-7.6
				c0.1,1.2,0.5,2.5,1.2,3.9c0.7,1.4,1.6,2.9,2.7,4.2c1.1,1.4,2.4,2.6,3.8,3.7c1.4,1.1,2.9,1.9,4.3,2.4c-0.5,4.7-1.2,9-2.1,13.1
				c-0.8,4-1.8,7.5-2.9,10.5c-1.1,3-2.2,5.4-3.4,7.2c-1.2,1.8-2.3,2.9-3.5,3.2s-2.1-0.4-2.8-2.2c-0.7-1.7-1.2-4.1-1.5-7
				C120.4,159.7,120.2,156.4,120.3,152.7z M85.2,111.4c0.6-2.4,1.3-5,2.1-7.8c0.9-2.8,1.8-5.8,2.9-8.8c1.1-3.1,2.3-5.9,3.5-8.6
				c1.2-2.7,2.5-5.1,3.9-7.1c1.3-2.1,2.7-3.5,4-4.4c1.1-0.7,2-0.5,2.9,0.6c0.8,1.1,1.3,2.8,1.5,5.1c0.2,2.3,0,5-0.6,8.2
				c-0.6,3.2-1.7,6.4-3.3,9.8c-1.7,3.4-4,6.7-6.9,10c-2.9,3.3-6.6,6.2-11.1,8.7C84.3,115.6,84.6,113.8,85.2,111.4z"/>
		</g>
		<path d="M266,201.1c0,0,0-0.1-0.1-0.2L266,201.1z"/>
		<g>
			<path d="M180.3,212.8c-0.1,1.2-0.1,2.3-0.2,3.4c-0.1,2.1-0.1,4.2-0.2,6.3c-0.1,3-0.2,6-0.3,9c0.1,0.5-0.1,0.8-0.8,1
				c-0.5,0-0.9,0.1-1.2,0.1c-0.6,0.1-1.2,0.4-1.8,0.4c-0.2,0-0.4,0.1-0.6,0.3c-0.2,0.4-0.4,0.7-0.2,1.1c0.1,0.3,0.4,0.4,0.8,0.5
				c0.2-0.1,0.4-0.1,0.7-0.2c1.2-0.4,2.4-0.4,3.4-0.4c1.7,0,3.5-0.2,5.1-0.3c1.5-0.1,3-0.3,4.4-0.2c2.1-0.1,4.3-0.1,6.5-0.9
				c4.5-1,7.3-4.6,8.1-7.1c0.4-0.9,0.5-1.9,0.4-2.8c-0.3-3.1-2.4-7.1-3.4-7.9c-1.2-1.2-2.6-2.3-4.3-2.9c-0.4-0.1-0.8-0.3-1.1-0.4
				c-0.1-0.1-0.2-0.2-0.4-0.5c0.4-0.2,0.7-0.4,1-0.5c1.8-0.7,3.4-1.7,5-2.8c1.6-0.9,2.3-2.3,2.8-4c0.3-1,0.4-2.1,0.2-3.1
				c-0.2-1.2-0.7-2.5-1.5-3.5c-1.7-1.8-3.4-3.2-5.8-3.7c-1-0.3-1.9-0.5-2.9-0.7c-3-0.4-5.9-0.3-9-0.2c-1.5,0.1-2.9,0.4-4.5,0.7
				c-0.8,0.1-3.5,0.4-4.8,1.2c-0.1,0.1-0.3,0.1-0.4,0.2c-0.1,0.1-0.1,0.4-0.1,0.5c0.1,0.1,0.2,0.1,0.4,0.2c0.1,0,0.2-0.1,0.4-0.1
				c0.6-0.1,0.7-0.1,4-0.7c0.4,0,0.6,0.2,0.7,0.7c0,0.1,0.1,0.4,0,0.7c0.1,1.2,0.1,2.4,0.3,3.7l-0.2,9
				C180.4,210.1,180.3,211.5,180.3,212.8z M189,208.3c0.2-2.9,0.4-5.8,0.4-8.7c-0.1-1.7,0.4-3.2,0.5-4.8c0.1-0.5,0.3-0.7,0.7-0.7
				c0.7,0,1.5,0,2.2,0.1c1.2,0.2,2.6,0.4,3.7,0.7c1.8,0.5,3.4,1.5,4.8,3c0.8,1.2,1.4,2.3,1.3,3.9c-0.1,0.9-0.1,1.8-0.5,2.6
				c-0.6,1-1.2,1.9-2.1,2.5c-3.1,2-6.3,3.2-9.7,3.9c-0.3,0.1-0.7,0.1-1.2,0.2c0-0.3-0.1-0.5-0.1-0.7
				C188.9,209.6,188.9,209,189,208.3z M188.4,227.8c0-1.6,0.1-3.2,0.1-5c0.1-0.7,0.1-1.6,0.1-2.4c0-0.7-0.1-1.5,0-2.1
				c0-1.5,0.1-3.1,0.1-4.7c0-0.1,0.1-0.4,0.2-0.6c1.1-0.1,2-0.3,3-0.1c0.4,0,0.7,0.1,1.1,0.1c2.1,0,3.6,0.9,5.3,1.8
				c2.3,1.3,3.4,3.7,4.3,6.4c0.1,0.5,0.1,1,0.1,1.3c0.1,0.9,0.1,1.9-0.3,2.6c-0.7,1.8-1.8,3.2-3.2,4.1c-2,1.2-3.6,2.1-6.2,2.4
				c-1,0.1-2.1,0.1-3,0.3c-0.5-0.1-0.8-0.1-1.2-0.1c-0.4-0.1-0.6-0.3-0.6-0.8C188.4,230,188.4,228.9,188.4,227.8z"/>
			<path d="M212.4,234.9l4-0.2c1.5,0,3.2,0,4.5-0.1c1.5-0.1,2.5,0.1,3.9,0.1c2.2,0.2,4.5,0.1,6.7,0c2-0.1,3.7-0.9,5.2-2.1
				c0.5-0.7,0.7-1.4,0.9-2c0.2-0.4,0-0.6-0.3-0.8c-0.3-0.1-0.6,0.1-0.8,0.3c-0.3,0.2-0.7,0.7-0.8,1c-0.4,0.9-1.1,1.3-2,1.6
				c-0.4,0.1-0.8,0.3-1.3,0.4c-1.3,0.4-3,0.4-4.4,0.2c-2.3-0.1-4.6-0.2-7.1-0.4c-0.9-0.1-1-0.3-1-1.2c-0.1-0.7,0-1.1,0-1.7
				c0.1-1.9,0.1-3.7,0.1-5.6c0-1.8,0.1-3.3,0.2-5.1c0.1-1,0.1-1.9,0-2.9c0.1-0.3,0.1-1,0.1-1c0.7-0.2,2.1-0.1,2.6-0.1l6.3,0.2h0.1
				c0.4-0.1,0.6-0.3,0.7-0.6c0.2-0.3,0.1-0.6-0.2-0.9s-0.8-0.2-1.3-0.2c-2.3,0.3-4.8,0.1-7.3,0c-0.6-0.1-0.8-0.4-0.7-0.7
				c-0.1-0.5,0-0.9,0-1.3c0.1-1.9,0.2-3.8,0.3-5.8l0.5-7.6c0.1-1.2,0.1-2.1,0.2-3.2c0.1-0.6,0-0.7,0.1-0.7h3.5
				c3.2-0.1,6.2-0.4,9.4,0c0.7,0,1-0.2,1.3-0.7c0.1-0.2,0.1-0.4,0-0.7c-0.2-0.1-0.6-0.4-1.2-0.4c-3,0.3-5.8,0.1-7.8,0.3
				c-1.9,0.1-4,0.1-5.8,0.1c-0.5,0-6.3,0.4-9,0.4c-0.9,0-1.9,0.1-2.8,0.1c-0.3,0-0.4,0-0.6,0.1c-0.1,0.1-0.2,0.4-0.3,0.7
				c-0.1,0.2,0.1,0.3,0.4,0.3c0.4,0.1,0.6,0,1.1,0c0.7,0,1.3,0,2.1-0.1c0,1.5-0.8,23-0.8,24.4c-0.1,3.2-0.2,6.4-0.3,9.6
				c0,1.5,0.1,3,0.1,4.5v0.7C211.4,234.6,211.9,234.9,212.4,234.9z"/>
			<path d="M290.4,193.5c0.4-0.1,0.7-0.1,1-0.1c0.3,0,0.5-0.1,0.7-0.2c0.4-0.2,0.3-0.5,0-0.9c-0.1-0.1-0.4-0.1-0.5-0.1
				c-0.4,0-0.6-0.1-1,0c-0.7,0.1-1.3,0.1-2,0.1c-0.4-0.1-1,0.1-1.5-0.1c-1.8-0.1-3.4,0-5.3,0c-0.4,0-0.8,0.1-1.2,0.1
				c-0.4,0.1-0.7,0.4-0.7,0.7c0,0.3,0.2,0.5,0.7,0.5c0.3,0.1,0.6,0.1,0.8,0.1c0.1,0,0.3,0,0.3,0.2c0,0.1,0,0.3-0.1,0.4
				c-0.3,0.5-0.7,1-1,1.5c-0.3,0.5-0.8,1-1,1.6c-0.2,0.3-0.4,0.5-0.7,0.7c-0.1,0.3-0.4,0.5-0.5,0.7c-0.9,1.7-1.9,3.2-3.2,4.8
				l-0.6,0.9c-0.6,0.9-1.2,1.8-1.8,2.7c-0.1,0.1-0.2,0.2-0.4,0.2c-0.2-0.2-0.4-0.5-0.4-0.8c-0.2-0.4-0.4-0.8-0.6-1.2
				c-0.4-1-0.8-1.9-1.2-3.1c-0.4-1.1-0.8-2.3-1.4-3.3c-0.7-1.2-1.3-2.6-2.1-3.7c-0.2-0.2-0.4-0.4-0.4-0.7l0.2-0.1
				c0.2,0,0.4,0,0.7-0.1c0.7-0.1,1.2-0.1,1.8-0.2c0.3,0,0.4-0.1,0.4-0.6c0.1-0.3,0-0.4-0.2-0.7c-0.6-0.1-4.8,0-5.6,0.1
				c-1.1,0.1-2.3,0.2-3.3,0.3l-3.2,0.3l-2.1,0.2c-0.2,0-0.4,0.1-0.5,0.2c-0.3,0.1-0.5,0.5-0.4,0.7c0.1,0.3,0.3,0.4,0.6,0.4h0.5
				c0.5,0,1-0.1,1.5-0.1c0.1,0,0.4,0.1,0.6,0.1c0.1,0.2,0.1,0.4,0.1,0.6c0.1,0.7,0.1,1.4,0.1,2.2c-0.1,0.6,0,1.3,0,2
				c0.1,0.5,0,1,0.1,1.5c0,0.4-0.1,1,0,1.4c0.1,1.7,0,3.4,0.1,5.1c-0.1,1.2-0.1,2.4-0.1,3.7c0,2.5-0.1,4.9-0.1,7.4
				c-0.1,1.2-0.1,2.4-0.1,3.7c-0.1,4.1-0.2,6.7-0.3,9.4c0,0.1,0,0.4-0.1,0.6c-0.4,0.1-0.6,0.1-0.9,0.1c-0.1,0-0.4,0-0.6,0.1
				c-0.5,0.1-0.7,0.3-0.7,0.7c0,0.2,0,0.4,0.1,0.4c0.4,0.2,0.9,0.4,1.3,0.2c0.7-0.1,1.3-0.1,2-0.1c0.8,0.1,6.7-0.4,7.2-0.2
				c0.4,0,0.5-0.1,0.7-0.4c0.1-0.4,0.1-0.6-0.2-0.7c-0.1-0.1-0.4-0.3-0.7-0.4c-0.1-0.1-0.4-0.2-0.6-0.3c0-0.3,0-0.5,0.1-0.9l0.4-7.6
				c-0.1-1.4,0-2.7,0.2-4c0-1.5,0.1-2.8,0.1-4.3c-0.1-0.4-0.1-0.8,0.1-1.2c0.1-1.5,0.1-3,0.1-4.4l0.4-6.9v-5.1c0-0.1,0-0.4,0.2-0.4
				c0.1,0.1,0.2,0.1,0.2,0.2c0.2,0.3,0.4,0.7,0.6,1c0.5,0.9,1.1,1.8,1.4,2.8c0.4,1.1,0.9,2.3,1.4,3.4c0.4,1.2,1.1,2.7,1.7,3.9
				c0.1,0.4,0.2,1,0.4,1.3c0.1,0,0.2,0.1,0.4,0.1c0.6,0.3,0.9,0.1,1.2-0.4c0-0.1,0.1-0.1,0.1-0.2c0.5-1,1.1-1.9,1.8-2.8
				c0.1-0.1,0.2-0.3,0.3-0.5c0.5-1,1-1.7,1.5-2.3c0.7-0.8,1.2-1.5,1.7-2.3c0.6-0.9,1-1.9,1.7-2.9c0.5-0.8,1.2-1.8,1.8-2.6
				c0.1-0.1,0.2-0.4,0.5-0.4c0.1,0.1,0.1,0.4,0.1,0.6c0,1-0.1,1.9-0.1,2.7c0,2.2-0.1,4.3-0.1,6.3l-0.2,4.3v3.8
				c-0.1,1.5-0.1,3.1-0.1,4.6c0,0.6-0.1,1.2-0.1,1.8c-0.1,1.4-0.1,3-0.1,4.5c-0.1,1.7-0.2,3.2-0.1,4.8c0,1.2-0.2,2.2-0.3,3.2
				c-0.6,0.4-1,1-1.1,1.8c0.6,0.7,1.2,0.9,2,0.4c0.4-0.2,0.7-0.3,1.2-0.3c0.9,0,1.7-0.4,2.6-0.4c0.4-0.1,1-0.1,1.4-0.1
				c1,0.1,2-0.1,3-0.3c0.3-0.1,0.4-0.4,0.6-0.7c0.1-0.2,0-0.4-0.2-0.5c-0.2-0.1-0.4-0.3-0.7-0.2c-0.3,0-0.5,0.1-0.7,0.1
				c-0.3,0.1-0.4-0.1-0.4-0.4v-0.2l0.2-3.7c0.1-1.2,0.3-2.5,0.4-3.9c0.1-1.4,0-2.9,0.1-4.3c0-2.2-0.2-4.3-0.1-6.4c0-1-0.1-2-0.2-2.9
				c0-1,0.1-2.1,0.1-3.1c-0.2-3-0.1-6.2,0.1-9.2c0-0.3,0.1-0.5,0.1-0.8v-2.6c-0.1-0.1,0-0.3,0-0.4
				C289.9,193.6,290,193.6,290.4,193.5z"/>
			<path d="M315.3,228c0.5-2.4,1.1-4.8,1.9-7.2l2.6-7.3c1.1-2.8,2.1-5.6,3.2-8.5c0.7-1.8,1.2-3.6,1.9-5.4c0.5-1.3,1-2.6,1.4-4
				c0.4-1.4,0.7-1.4,0.7-1.4c0.8,0.1,3.3,0.2,4,0.2c0.5,0.1,0.9-0.1,0.9-0.6c0.1-0.4-0.2-0.8-0.8-0.9c-0.2,0-0.4,0-0.7-0.1
				c-1.6-0.1-3.1-0.2-4.6-0.4c-1.1-0.1-2.1-0.2-3.2-0.3c-2.2-0.1-4.4-0.4-6.6-0.4c-0.2-0.1-0.5-0.1-0.7,0c-0.2,0.1-0.4,0.3-0.4,0.4
				c-0.1,0.3,0.1,0.6,0.4,0.7c0.2,0.1,0.4,0.1,0.7,0.1c0.7,0.1,1.4,0.1,2.1,0.1c0.5,0,1,0.2,1,0.2c-1.1,3.3-1.5,4.1-2.2,5.6
				l-1.1,2.8c-0.7,1.9-1.4,3.9-2,5.8c-0.1,0.1-0.1,0.2-0.1,0.4c-0.6,1.3-2.1,5.2-2.3,5.5c-0.2-0.1-1.7-4-2.3-5.4
				c-1.2-2.5-2.3-4.9-3.4-7.4c-0.7-1.4-1.2-2.8-1.7-4.2l-0.1-0.3l-0.4-1c1.4,0,3.7-0.1,5.1-0.1c0.4,0,0.9,0,1.2-0.1
				c0.4-0.1,0.5-0.8,0.1-1.1c-0.2-0.1-0.4-0.2-0.7-0.3c-0.4,0-1,0-1.4,0.1l-3.4,0.2c-1.8,0-3.6-0.1-5.4-0.1c-0.4,0-0.7,0-1.1,0.1
				c-0.3,0.1-0.5,0.7-0.2,1c0.1,0.2,0.4,0.4,0.7,0.4c0.4,0,0.9,0,1.3-0.1c0.7,0,1.5,0,2.3,0.2c0.2,0.4,0.4,0.9,0.5,1.3
				c0.3,1,0.7,1.9,1,2.8c1.2,2.9,2.5,5.6,3.7,8.4c0.4,1,0.9,2.1,1.4,3c0.7,1.2,1,2.4,1.5,3.6c0.4,1,0.3,1.8-0.1,2.6
				c-1.2,2.7-2.1,5.5-3,8.3c-0.6,1.9-1.2,3.8-1.8,5.7c-0.1,0.6-0.4,1.5-0.7,2c-0.1,0.4-0.3,0.2-0.7,0.3c-0.6,0-1.2,0.1-1.7,0.1
				c-0.4,0.1-0.8,0-1.2,0.1c-0.1,0-0.4,0.2-0.4,0.4c-0.1,0.3,0,0.6,0.2,0.7c0.1,0.1,0.3,0.2,0.4,0.2c0.4,0.1,0.9,0.1,1.2,0.1
				c1.1-0.1,2.3-0.2,3.4-0.2c2.3-0.1,10.1-0.4,11.4-0.2c0.3,0.1,0.6,0,0.8-0.1c0.4-0.1,0.7-0.5,0.6-0.8c0-0.4-0.4-0.7-0.7-0.7h-1.5
				c-0.5,0-1.1,0-1.8-0.1c0.1-0.4,0.1-0.7,0.1-1.1C314.8,230.5,315.1,229.2,315.3,228z"/>
		</g>
		<g>
			<path d="M366.5,269.1c-0.1-0.3-0.2-0.6-0.5-0.7c-0.3-0.1-0.6-0.2-0.8-0.3c-0.3,0-0.5,0-0.7,0.2c-1.3,0.9-2.9,2.1-5,3.5
				c-2.1,1.5-4.3,3.2-6.9,5.1c-2.5,2-5.2,4.1-8.1,6.5c-2.9,2.4-5.8,4.9-8.8,7.5l-4.1,3.8c-1.2-4.5-2.3-9.1-3.3-13.8
				c-1-4.7-1.6-9.2-1.7-13.6c-0.2-4.4,0.2-8.5,1.1-12.3c0.9-3.8,2.7-7.2,5.4-10c1.7-2.1,3.4-3.6,5.2-4.5c1.8-0.9,3.5-1.4,5.2-1.5
				c1.7-0.1,3.2,0.1,4.6,0.5c1.4,0.5,2.6,1.1,3.5,1.8c1.3,1,2.1,2.3,2.3,3.9c0.2,1.6,0.1,3.2-0.4,4.9c-0.5,1.7-1.4,3.2-2.6,4.7
				c-1.2,1.5-2.6,2.6-4.2,3.4c-1.6,0.8-3.3,1.2-5.2,1.1c-1.9-0.1-3.7-0.9-5.6-2.4c0-0.1-0.2-0.1-0.6,0.1c-0.4,0.1-0.7,0.4-1,0.7
				c-0.3,0.3-0.5,0.6-0.6,1.1c-0.1,0.4,0.2,0.8,0.8,1.3c1.8,1.4,3.8,2.2,6,2.2c2.2,0,4.3-0.4,6.4-1.3c2.1-0.9,3.9-2.2,5.6-3.8
				c1.7-1.6,2.9-3.5,3.7-5.5c0.8-2.1,1-4.2,0.6-6.5c-0.4-2.3-1.6-4.4-3.6-6.5c-0.9-0.9-2.3-1.7-4.2-2.2c-1.9-0.5-4-0.8-6.2-0.7
				c-2.3,0.1-4.6,0.6-7,1.4c-2.4,0.9-4.6,2.2-6.6,4.1c-3.9,3.7-6.5,7.7-7.8,12.2c-1.3,4.5-1.9,9.2-1.7,14.2c0.1,1.2,0.1,2.4,0.3,3.7
				c-2.6,4.1-5.9,8.3-9.8,12.3c-4.5,4.7-9.7,8.9-15.5,12.7c0.4-3.9,0.8-8,1.3-12.3c0.5-4.4,0.9-8.7,1.4-13.1c0.5-4.4,0.9-8.7,1.3-13
				c0.4-4.3,0.7-8.3,0.9-12c0-1-0.3-1.7-1.1-2.1c-0.8-0.4-1.6-0.6-2.6-0.4c-1,0.1-1.9,0.5-2.8,1.2c-0.9,0.7-1.5,1.6-1.7,2.8
				c-0.4,1.7-1,4-1.7,6.8c-0.8,2.8-1.6,5.8-2.6,9c-1,3.2-2,6.4-3.1,9.6c-1.1,3.2-2.1,6.1-3.2,8.7c-1,2.6-2,4.7-2.8,6.3
				c-0.9,1.6-1.5,2.4-2,2.3c-0.8,0-1.3-0.9-1.7-2.6c-0.3-1.7-0.5-3.9-0.6-6.6c0-2.7,0-5.6,0.2-8.9c0.2-3.3,0.4-6.5,0.7-9.5
				s0.6-5.9,1-8.4c0.3-2.5,0.6-4.4,0.8-5.7c-0.4-1.3-1-2.1-1.8-2.3c-0.8-0.2-1.6-0.2-2.4,0.2c-0.8,0.4-1.5,0.9-2.2,1.7
				c-0.6,0.7-1,1.4-1.1,2.1c-0.2,1.3-0.5,3.2-0.8,5.8c-0.3,2.6-0.6,5.5-0.9,8.7c-0.2,2.9-0.4,5.9-0.4,9c-1.9,5.2-3.8,9.9-5.7,14.2
				c-2.3,5.4-4.5,10.1-6.6,14c-2.1,3.9-4,7-5.8,9.4c-1.8,2.3-3.4,3.8-4.7,4.4c-1,0.4-1.8,0.1-2.4-1c-0.6-1.1-0.9-2.7-1.1-4.9
				c-0.2-2.2-0.2-4.8,0-7.9c0.2-3.1,0.5-6.3,0.9-9.9c0.4-3.5,0.9-7.2,1.5-10.9c0.6-3.7,1.2-7.4,1.8-10.9c0.7-3.5,1.3-6.8,2-10
				c0.7-3.1,1.3-5.8,1.9-8.1c0-1-0.4-1.9-1-2.5c-0.6-0.7-1.4-1.1-2.2-1.2c-0.9-0.1-1.7,0.1-2.6,0.6c-0.9,0.5-1.6,1.4-2.1,2.7
				c-3.6-1.1-6.9-1.4-9.9-0.9c-3,0.5-5.6,1.6-8,3.3c-2.3,1.7-4.4,3.8-6.1,6.3c-1.7,2.6-3.1,5.3-4.1,8.3c-0.5,1.5-1,3-1.3,4.5
				c-0.7,0.4-1.4,0.8-2.1,1c-1.7,0.6-3.3,0.9-4.8,0.8c-1.5,0-3-0.2-4.3-0.7c-1.3-0.4-2.3-0.8-3-1.3c0.5-1.3,0.9-2.7,1.3-4.3
				c0.4-1.6,0.7-3.2,0.9-4.9c0.2-1.6,0.2-3.2,0.1-4.8c-0.1-1.5-0.4-2.9-0.9-4c-0.5-1.1-1.2-2-2.2-2.6c-1-0.6-2.3-0.8-3.9-0.5
				c-1.7,0.2-3,1.1-4.1,2.6c-1.1,1.5-1.7,3.4-1.8,5.5c-0.1,2.2,0.3,4.5,1.4,7.1c1.1,2.5,2.9,5,5.5,7.3c-0.7,1.9-1.5,4.2-2.4,6.8
				c-0.9,2.6-1.8,5.3-2.8,8c-1,2.8-1.9,5.5-2.9,8.2c-1,2.7-2,5.1-3,7.3c-1,2.2-2,3.9-2.9,5.2c-0.9,1.3-1.8,2-2.6,2.1
				c-0.4,0-0.7-0.6-0.9-1.9c-0.2-1.3-0.2-3-0.2-5.2c0-2.2,0.1-4.7,0.3-7.5c0.2-2.8,0.4-5.7,0.7-8.7c0.2-3,0.5-6,0.8-9
				c0.3-3,0.6-5.7,0.8-8.1c0.2-2.4,0.5-4.5,0.6-6.2c0.2-1.7,0.3-2.8,0.3-3.4c0-0.6-0.3-1.1-1-1.5c-0.7-0.4-1.4-0.6-2.3-0.7
				c-0.9,0-1.7,0.2-2.6,0.6c-0.9,0.5-1.5,1.2-1.9,2.3c-0.9,2.4-1.9,5.2-2.8,8.3c-1,3.1-1.9,6.2-2.8,9.3c-0.9,3.1-1.8,6.2-2.7,9.2
				c-0.9,3-1.7,5.6-2.4,7.9c-0.7,2.2-1.3,4-1.8,5.3c-0.5,1.3-0.9,1.8-1.1,1.6c-0.2-0.2-0.4-1-0.5-2.4c-0.1-1.4-0.1-3.2-0.1-5.5
				c0-2.2,0.1-4.8,0.3-7.6c0.2-2.8,0.4-5.8,0.7-8.9c0.3-3.1,0.6-6.2,0.9-9.3c0.3-3.1,0.7-6.1,1.2-9c0.1-0.9-0.1-1.6-0.7-2.2
				c-0.6-0.6-1.4-1-2.3-1.2c-0.9-0.2-1.8-0.2-2.7,0.1c-0.9,0.2-1.5,0.8-1.9,1.6c-0.5,3.1-1,6.5-1.4,10.2c-0.3,3.1-0.6,6.1-0.8,9.1
				c0,0,0,0.1,0,0.1c-0.9,2.5-1.9,5.3-3,8.3c-1.1,3.1-2.3,6.3-3.6,9.6c-1.3,3.4-2.6,6.7-4,10.1c-1.4,3.3-2.8,6.5-4.2,9.6
				c-1.4,3.1-2.8,5.8-4.3,8.1c-1.4,2.4-2.8,4.3-4.2,5.8c-1.4,1.5-2.7,2.3-4,2.5c-1.4,0.2-2.6-0.5-3.4-2.2c-0.9-1.7-1.5-4.1-1.9-7.1
				c-0.4-3.1-0.6-6.7-0.6-10.9c0-4.2,0.2-8.7,0.6-13.5c0.4-4.8,0.9-9.8,1.6-15c0.7-5.2,1.5-10.2,2.4-15.2c2.2-1.8,4.5-3.9,6.7-6.5
				c2.2-2.6,4.3-5.4,6.3-8.5c2-3.1,3.9-6.3,5.7-9.6c1.8-3.3,3.3-6.6,4.6-9.9c1.3-3.2,2.4-6.3,3.2-9.4c0.8-3,1.3-5.7,1.5-8.1
				c0.1-2.4-0.1-4.3-0.7-5.9c-0.6-1.6-1.7-2.6-3.2-3c-2.8-0.9-5.5-0.4-8.1,1.4c-2.6,1.8-5.1,4.6-7.5,8.3c-2.3,3.7-4.5,8.3-6.6,13.6
				c-2.1,5.3-3.9,11.1-5.5,17.2c-1.6,6.2-3,12.6-4.2,19.2c-0.4,2.2-0.7,4.4-1,6.6c-1.8,4.7-3.5,9-5.2,12.9c-2.3,5.4-4.5,10.1-6.6,14
				c-2.1,3.9-4,7-5.8,9.4c-1.8,2.3-3.4,3.8-4.7,4.4c-1,0.4-1.8,0.1-2.4-1c-0.6-1.1-0.9-2.7-1.1-4.9c-0.2-2.2-0.2-4.8,0-7.9
				c0.2-3.1,0.5-6.3,0.9-9.9c0.4-3.5,0.9-7.2,1.5-10.9c0.6-3.7,1.2-7.4,1.8-10.9c0.7-3.5,1.3-6.8,2-10c0.7-3.1,1.3-5.8,1.9-8.1
				c0-1-0.4-1.9-1-2.5c-0.6-0.7-1.4-1.1-2.2-1.2c-0.9-0.1-1.7,0.1-2.6,0.6c-0.9,0.5-1.6,1.4-2.1,2.7c-3.6-1.1-6.9-1.4-9.9-0.9
				c-3,0.5-5.6,1.6-8,3.3c-2.3,1.7-4.4,3.8-6.1,6.3c-1.7,2.6-3.1,5.3-4.1,8.3c-1.1,3-1.8,6-2.2,9.1c-0.4,3.1-0.4,6-0.1,8.8
				c0.3,2.8,0.9,5.2,1.9,7.4c1,2.2,2.3,3.8,4,4.9c0.4,0.2,0.8,0.4,1.3,0.6c0.5,0.1,1,0,1.7-0.4c0.7-0.4,1.5-1.1,2.4-2.3
				c0.9-1.1,2.1-2.8,3.4-5c1.3-2.2,2.9-5.1,4.7-8.5c1.8-3.5,3.9-7.8,6.4-13c-0.7,3.8-1.3,7.6-1.7,11.4c-0.4,3.8-0.6,7.5-0.6,11
				s0.2,6.8,0.5,9.9c0.3,3.1,0.9,5.8,1.6,8.1c0.7,2.3,1.7,4.2,2.8,5.6c1.1,1.4,2.4,2.2,3.9,2.3c1.2,0.1,2.5-0.3,3.9-1.4
				c1.4-1.1,3-2.7,4.5-4.8c1.6-2.1,3.2-4.6,4.9-7.5c1.7-2.9,3.4-6.2,5.1-9.8c1.4-2.8,2.7-5.8,4-8.9c-0.1,0.5-0.1,1.1-0.2,1.6
				c-0.6,6.4-0.8,12.5-0.8,18.3c0,5.8,0.4,10.9,1.2,15.3c0.8,4.4,2,8,3.5,10.7s3.6,4.2,6,4.4c1.9,0.2,3.8-0.4,5.6-1.7
				c1.8-1.3,3.7-3.3,5.5-6c1.8-2.6,3.6-5.9,5.4-9.7c1.8-3.8,3.6-8.1,5.4-12.7c1.8-4.7,3.7-9.7,5.6-15.2c0.4-1,0.7-2.1,1.1-3.2
				c0,1.1,0.1,2.1,0.1,3.2c0.2,3.4,0.6,6.3,1.1,8.7c0.6,2.5,1.4,4.4,2.6,5.7c1.1,1.3,2.6,1.8,4.3,1.4c0.8-0.2,1.6-1.2,2.4-2.9
				c0.8-1.7,1.7-4.2,2.7-7.5c1-3.3,2.3-7.3,3.7-12c1.5-4.7,3.3-10.2,5.5-16.3c-1.7,7.3-2.8,13.9-3.2,19.8c-0.4,5.9-0.3,11,0.3,15
				c0.6,4.1,1.6,7.1,3,9.2c1.4,2,3.1,2.8,5.1,2.2c1.1-0.3,2.3-1.2,3.4-2.8c1.2-1.5,2.3-3.4,3.4-5.7s2.2-4.8,3.3-7.6
				c1.1-2.8,2.1-5.6,3.1-8.4c1-2.8,1.9-5.5,2.8-8.1c0.9-2.6,1.7-4.9,2.4-6.8c2,1,3.9,1.6,5.7,1.8c1.9,0.2,3.6,0.2,5.2-0.1
				c1.2-0.2,2.4-0.6,3.5-1.1c-0.1,0.6-0.2,1.1-0.3,1.7c-0.4,3.1-0.4,6-0.1,8.8c0.3,2.8,0.9,5.2,1.9,7.4c1,2.2,2.3,3.8,4,4.9
				c0.4,0.2,0.8,0.4,1.3,0.6c0.5,0.1,1,0,1.7-0.4c0.7-0.4,1.5-1.1,2.4-2.3c0.9-1.1,2.1-2.8,3.4-5c1.3-2.2,2.9-5.1,4.7-8.5
				c1.8-3.5,3.9-7.8,6.4-13c-0.7,3.8-1.3,7.6-1.7,11.4c-0.4,3.8-0.6,7.5-0.6,11s0.2,6.8,0.5,9.9c0.3,3.1,0.9,5.8,1.6,8.1
				c0.7,2.3,1.7,4.2,2.8,5.6c1.1,1.4,2.4,2.2,3.9,2.3c1.2,0.1,2.5-0.3,3.9-1.4c1.4-1.1,3-2.7,4.5-4.8c1.6-2.1,3.2-4.6,4.9-7.5
				c1.7-2.9,3.4-6.2,5.1-9.8c1.7-3.6,3.4-7.4,5.1-11.5c0.4-0.8,0.7-1.7,1-2.6c0.1,1,0.2,2,0.4,2.9c0.5,2.8,1.3,5.1,2.4,7
				c1.1,1.8,2.6,2.8,4.6,2.9c1.1,0,2.3-0.6,3.4-2s2.3-3.2,3.5-5.4c1.1-2.2,2.3-4.7,3.3-7.5c1.1-2.8,2.1-5.6,3-8.3
				c0.9-2.7,1.8-5.3,2.6-7.7c0.8-2.4,1.5-4.3,2.1-5.7l-5.6,44.2c-4.8,3.5-9,7.3-12.6,11.5c-3.5,4.1-6.5,8.3-8.8,12.6
				c-2.3,4.3-4.1,8.4-5.3,12.5c-1.2,4.1-1.8,7.9-1.9,11.3c-0.1,3.4,0.3,6.5,1.2,9c0.9,2.6,2.3,4.4,4.2,5.6c2.6,1.7,5.2,2.1,7.6,1.2
				c2.4-0.9,4.7-2.7,6.8-5.5c2.1-2.8,4-6.3,5.8-10.6c1.8-4.3,3.4-9.1,4.8-14.4s2.6-10.9,3.6-16.8c1-5.9,1.8-11.9,2.3-17.9
				c1.9-0.9,4.1-2.3,6.6-4.3c2.5-1.9,5.1-4.1,7.8-6.7c2.7-2.5,5.2-5.3,7.7-8.3c1.4-1.7,2.7-3.4,3.9-5.2c0.4,2.7,0.9,5.5,1.6,8.3
				c1.3,5.5,2.8,11,4.4,16.8c-2.2,2.4-4.1,4.9-6,7.3c-1.8,2.4-3.4,4.9-4.7,7.3c-1.3,2.4-2.2,4.7-2.9,7c-0.7,2.3-0.9,4.5-0.7,6.6
				c0.2,1.9,0.7,3.5,1.5,5s1.8,2.7,3,3.7c1.2,1,2.5,1.7,4,2.2c1.5,0.5,3,0.7,4.5,0.6c2.3-0.1,4.2-0.8,5.7-2c1.5-1.2,2.7-2.7,3.6-4.5
				c0.9-1.8,1.5-3.9,1.8-6.2c0.3-2.3,0.4-4.8,0.4-7.3s-0.3-5-0.7-7.5c-0.4-2.5-0.9-4.8-1.5-7l-2.1-7.6l4-3.8
				c2.3-2.1,4.7-4.3,7.3-6.5c2.6-2.2,5.2-4.4,7.9-6.5c2.6-2.1,5.2-4,7.7-5.9c2.5-1.9,4.8-3.5,7-5
				C366.4,269.8,366.5,269.4,366.5,269.1z M124.1,256c0.7-3.5,1.5-7.2,2.5-11c0.9-3.9,2-7.8,3.2-11.8c1.2-4,2.5-7.6,3.9-10.8
				c1.4-3.2,2.9-5.9,4.5-8c1.6-2.1,3.3-3.2,5.1-3.4c1.5-0.1,2.6,0.3,3.2,1.5c0.6,1.1,0.8,2.7,0.6,4.7c-0.2,2-0.7,4.4-1.5,7.1
				c-0.8,2.7-1.8,5.5-3.1,8.5c-1.3,3-2.7,6.1-4.3,9.2c-1.6,3.1-3.3,6.1-5,8.9c-1.8,2.8-3.5,5.4-5.4,7.8c-1.8,2.3-3.5,4.3-5.2,5.8
				C122.9,262.3,123.4,259.4,124.1,256z M83,260.1c-1.2,2.7-2.5,5.7-3.9,9c-1.4,3.3-2.9,6.6-4.5,9.9c-1.6,3.4-3,6.4-4.4,9.1
				c-1.4,2.7-2.6,4.8-3.7,6.4c-1.1,1.6-1.8,2.2-2.2,1.9c-0.7-0.5-1.1-1.5-1.4-3.2c-0.2-1.6-0.2-3.5,0-5.8c0.2-2.2,0.7-4.7,1.3-7.4
				c0.6-2.7,1.4-5.3,2.4-8c1-2.7,2.2-5.2,3.5-7.6c1.3-2.4,2.8-4.5,4.4-6.2c1.6-1.7,3.3-3,5.2-3.9c1.9-0.8,3.9-1,5.9-0.5
				C85,255.3,84.2,257.4,83,260.1z M196,261.1c0,1.4-0.2,2.9-0.4,4.3c-0.2,1.4-0.4,2.7-0.7,3.8c-0.3,1.1-0.5,2-0.8,2.5
				c-1.8-1.6-3.1-3.3-3.9-5.2c-0.8-1.8-1.1-3.6-1.1-5.2c0-1.6,0.4-3,1-4.2c0.6-1.2,1.4-2,2.4-2.5c0.9-0.4,1.6-0.3,2.1,0.2
				c0.5,0.5,0.8,1.4,1.1,2.5C195.9,258.4,196,259.7,196,261.1z M236.3,260.1c-1.2,2.7-2.5,5.7-3.9,9c-1.4,3.3-2.9,6.6-4.5,9.9
				c-1.6,3.4-3,6.4-4.4,9.1c-1.4,2.7-2.6,4.8-3.7,6.4c-1.1,1.6-1.8,2.2-2.2,1.9c-0.7-0.5-1.1-1.5-1.4-3.2c-0.2-1.6-0.2-3.5,0-5.8
				c0.2-2.2,0.7-4.7,1.3-7.4c0.6-2.7,1.4-5.3,2.4-8c1-2.7,2.2-5.2,3.5-7.6c1.3-2.4,2.8-4.5,4.4-6.2c1.6-1.7,3.3-3,5.2-3.9
				c1.9-0.8,3.9-1,5.9-0.5C238.4,255.3,237.5,257.4,236.3,260.1z M285.7,312.4c-0.4,3-0.8,6.1-1.4,9.4c-0.5,3.3-1.2,6.7-1.9,10.1
				c-0.7,3.4-1.5,6.7-2.3,9.9c-0.9,3.2-1.8,6.1-2.8,8.9c-1,2.7-2.1,5-3.2,6.9c-1.1,1.9-2.4,3.3-3.7,4.1c-1.3,0.9-2.7,1-4.1,0.4
				c-1.8-0.7-3.2-2.2-4-4.5c-0.9-2.3-1.3-5-1.2-8.2c0.1-3.2,0.6-6.8,1.7-10.7c1.1-3.9,2.7-7.9,4.8-11.9c2.1-4,4.7-8,7.9-11.8
				c3.2-3.8,6.8-7.3,11-10.5C286.3,306.8,286,309.5,285.7,312.4z M330.3,330c-0.3,1.8-0.9,3.3-1.7,4.5c-0.8,1.2-1.9,2-3.3,2.4
				c-1,0.2-2,0.3-2.9,0c-1-0.2-1.9-0.6-2.8-1.3c-0.9-0.6-1.6-1.4-2.3-2.4c-0.7-1-1.2-2.1-1.5-3.4c-0.7-4.2,0-8.5,2.2-12.9
				c2.2-4.4,5.2-8.9,9.2-13.5l1,3.9c0.3,1.2,0.6,2.8,1,4.6c0.4,1.8,0.7,3.8,1,5.9c0.2,2.1,0.4,4.2,0.5,6.3
				C330.7,326.3,330.6,328.2,330.3,330z"/>
		</g>
	</g>
	<path class="st1" d="M111.1,38.5c-0.4,0.1-0.7,0.2-1.1,0.4c-2.6,1.2-4.1,4.1-4.7,6.9c-2.1-2.1-5.5-4.3-8.2-3.8
		c-1.2,0.2-2.2,1-2.9,2.5c-1.3,2.7-0.2,6.6,1.5,9.2c0.3,0.5,0.7,1,1.1,1.4c0.1,0.1,0.2,0.2,0.3,0.3c3.4,3.5,8.5,5,11.8,8.6
		c0.1,0.2,0.4,0.2,0.7,0.1c0.5-0.1,0.9-0.4,1-0.7c1.2-4.5,4.9-8.4,6.3-12.8c0.2-0.7,0.4-1.4,0.5-2.1c0.2-1.2,0.1-2.4-0.2-3.6
		C116.3,42,114.5,37.9,111.1,38.5z"/>
	<path class="st1" d="M93.8,212.6c-0.4,0-0.9,0.1-1.4,0.2c-3.3,0.9-5.6,4-7,7.2c-2.1-2.9-5.7-6.2-9-6.1c-1.4,0-2.8,0.7-3.9,2.3
		c-2,3-1.5,7.8,0,11.2c0.3,0.7,0.6,1.3,1,1.9c0.1,0.1,0.2,0.3,0.3,0.4c3.4,4.8,9.1,7.6,12.3,12.5c0.1,0.2,0.4,0.3,0.8,0.3
		c0.6,0,1.2-0.3,1.4-0.6c2.3-5.1,7.5-9,10-14c0.4-0.8,0.7-1.6,1-2.4c0.4-1.3,0.6-2.8,0.5-4.3C99.3,217.7,98,212.5,93.8,212.6z"/>
	<path class="st1" d="M362.9,184.1c-0.5,0-1,0.1-1.6,0.2c-3.7,1-6.3,4.5-7.8,8.1c-2.4-3.3-6.4-6.9-10.1-6.9c-1.6,0-3.1,0.8-4.4,2.6
		c-2.3,3.4-1.7,8.7,0,12.6c0.3,0.8,0.7,1.5,1.1,2.1c0.1,0.2,0.2,0.3,0.3,0.5c3.8,5.4,10.1,8.5,13.8,14c0.2,0.2,0.5,0.3,0.8,0.3
		c0.6,0,1.3-0.3,1.5-0.7c2.6-5.7,8.3-10.1,11.2-15.7c0.4-0.9,0.8-1.7,1.1-2.7c0.5-1.5,0.7-3.1,0.6-4.8
		C369,189.8,367.5,184,362.9,184.1z"/>
	<path class="st1" d="M167.1,236.7c-0.2,0-0.4-0.1-0.7,0c-1.6,0.1-3,1.3-3.9,2.6c-0.7-1.6-2-3.4-3.5-3.7c-0.7-0.1-1.3,0-2,0.7
		c-1.2,1.2-1.5,3.4-1.1,5.2c0.1,0.4,0.2,0.7,0.3,1c0,0.1,0.1,0.1,0.1,0.2c1.1,2.6,3.4,4.4,4.4,7c0,0.1,0.2,0.2,0.3,0.2
		c0.3,0.1,0.6,0,0.7-0.2c1.6-2.1,4.3-3.4,6-5.4c0.3-0.3,0.5-0.6,0.7-1c0.3-0.6,0.6-1.2,0.7-1.9C169.1,239.6,169,237.1,167.1,236.7z"
		/>
	<path class="st1" d="M150.2,184c-0.3-0.1-0.6-0.1-0.9-0.1c-2.2,0.1-4,1.7-5.3,3.5c-0.9-2.1-2.7-4.6-4.7-5c-0.9-0.2-1.8,0.1-2.7,0.9
		c-1.7,1.6-2,4.6-1.5,7c0.1,0.5,0.2,0.9,0.4,1.3c0,0.1,0.1,0.2,0.1,0.3c1.5,3.5,4.6,5.9,6,9.4c0.1,0.2,0.2,0.2,0.4,0.3
		c0.3,0.1,0.8,0,0.9-0.2c2.1-2.9,5.8-4.6,8.1-7.3c0.3-0.4,0.7-0.9,0.9-1.3c0.4-0.8,0.8-1.6,0.9-2.6
		C152.9,187.9,152.8,184.5,150.2,184z"/>
	<path class="st1" d="M104.9,193.4c0.3-0.1,0.5-0.2,0.9-0.3c2.2-0.4,4.3,0.8,5.9,2.3c0.4-2.2,1.6-5.1,3.5-5.9
		c0.8-0.4,1.8-0.3,2.9,0.3c2,1.2,3,4.1,3,6.5c0,0.5,0,0.9-0.1,1.4c0,0.1,0,0.2-0.1,0.3c-0.7,3.7-3.2,6.8-3.7,10.5
		c0,0.2-0.2,0.3-0.4,0.4c-0.3,0.1-0.8,0.2-1,0c-2.7-2.3-6.7-3.2-9.5-5.4c-0.4-0.3-0.8-0.7-1.2-1.1c-0.6-0.7-1.1-1.4-1.4-2.4
		C103.1,197.8,102.5,194.5,104.9,193.4z"/>
	<path class="st1" d="M360.1,109.9c0.3-0.1,0.6-0.1,0.9-0.1c2.2,0.1,4,1.7,5.3,3.5c0.9-2.1,2.7-4.6,4.7-5c0.9-0.2,1.8,0.1,2.7,0.9
		c1.7,1.6,2,4.6,1.5,7c-0.1,0.5-0.2,0.9-0.4,1.3c0,0.1-0.1,0.2-0.1,0.3c-1.5,3.5-4.6,5.9-6,9.4c-0.1,0.2-0.2,0.2-0.4,0.3
		c-0.3,0.1-0.8,0-0.9-0.2c-2.1-2.9-5.8-4.6-8.1-7.3c-0.3-0.4-0.7-0.9-0.9-1.3c-0.4-0.8-0.8-1.6-0.9-2.6
		C357.4,113.8,357.5,110.4,360.1,109.9z"/>
	<path d="M243.6,328.1c-8.1-5.2-18.9-1.5-26.9,1.9c-7.9,3.4-15.4,7.7-22.6,12.4c-7.4-2.6-14.7-5.4-22.2-7.9
		c-14.6-4.7-35.4-7.5-42.8,10c-0.4,1.1-0.8,2.2-1,3.3c-3.3,0.8-6.3,2-9.1,3.7c-5.5,3.4-10.9,10.2-9.6,17.1c1,5.5,5.8,9.2,10.7,11.4
		c5.9,2.6,12.7,3.5,19.1,2.6c10.3-1.5,18.6-8.4,26.8-14.2c3.1-2.2,6.1-4.4,9.2-6.6c10,7.5,17.2,18.3,22.8,30.1
		c1.1,2.4,4.6,2.1,3.2-0.9c-5.6-11.8-12.9-23.2-23.1-31.4c5-3.6,9.9-7.2,15.1-10.7c1-0.6,1.9-1.3,2.9-2c6.7,2.3,13.6,4.3,20.5,5.9
		c7.3,1.8,17.1,5.4,24.5,2.8C252.5,351.7,253.3,334.3,243.6,328.1z M158.2,367.8c-7.6,5.4-15.7,10.8-25.3,10.8
		c-5.8,0-14.9-1.3-18.5-6.6c-5.6-8.2,7.5-17.3,13.9-19.1c0.4,1.8,1.3,3.6,2.7,5.1c5,5.3,13.2,4.4,19.6,2.9c2.2-0.5-0.4-4.7-2.4-4.3
		c-4.5,1-15.5,3.2-16.3-3.8c0-0.3,0-0.5,0-0.8c8.1-1.6,17-0.8,24.9,1.1c5.1,1.2,9.7,3.2,13.9,5.6
		C166.5,361.8,162.4,364.9,158.2,367.8z M183.9,349.3c-3.4,2.4-6.8,4.8-10.2,7.3c-1.9-1.2-3.9-2.4-5.9-3.4
		c-9.6-4.7-22.9-7.7-34.7-6.2c1.5-3.1,4.2-5.8,6.7-7.6c13.8-10.2,33-0.7,47,4.5c1.1,0.4,2.2,0.8,3.3,1.2
		C188,346.5,186,347.9,183.9,349.3z M245.3,344.3c-2.3,5.7-6.9,8.3-13,7.9c-10.7-0.7-22-4.5-32.2-7.7c9.4-6.1,19.5-11.7,30.3-13.9
		c4.5-0.9,10.4-1.4,13.9,2.3C247.2,335.9,246.8,340.6,245.3,344.3z"/>
</g>
</svg>
