<?xml version="1.0" encoding="UTF-8"?>
<svg viewBox="0 0 744.09448819 1052.3622047" xmlns="http://www.w3.org/2000/svg">
 <defs>
  <filter id="a">
   <feGaussianBlur stdDeviation="4.13418"/>
  </filter>
  <linearGradient id="b" x1="494.29" x2="435.71" y1="65.219" y2="1199.5" gradientUnits="userSpaceOnUse">
   <stop stop-color="#00a8f0" offset="0"/>
   <stop stop-color="#00a8f0" stop-opacity="0" offset="1"/>
  </linearGradient>
 </defs>
 <path d="m4.1635-0.98517h740.95a2.3841 2.3841 0 0 1 2.3841 2.3841v1056.7a2.3841 2.3841 0 0 1 -2.3841 2.3841h-740.95a2.3841 2.3841 0 0 1 -2.3841 -2.3841v-1056.7a2.3841 2.3841 0 0 1 2.3841 -2.3841" fill="url(#b)"/>
 <path d="m186.61 30.543c-10.55 0-19.369 6.5222-21.543 15.222-22.629 0.27019-42.262 5.1803-52.748 12.368-3.1759-2.1898-7.0641-3.4846-11.269-3.4846-10.688 0-19.356 8.3352-19.356 18.603 0 1.2313 0.12647 2.4345 0.36446 3.5992-15.88 5.7658-26.034 14.568-26.034 24.426 0 17.355 31.466 31.441 70.242 31.441 1.1389 0 2.2726-0.01034 3.3984-0.03437-0.44877 2.1867-0.68952 4.4865-0.68952 6.8545 0 14.751 9.2812 26.719 20.715 26.719 5.8234 0 11.08-3.1073 14.844-8.1039 4.1973 3.7472 9.6186 6.0063 15.544 6.0063 9.5785 0 17.858-5.9074 21.74-14.454 9.3218 2.2108 19.734 3.4502 30.723 3.4502 39.77 0 72.045-16.194 72.045-36.152 0-14.298-16.565-26.665-40.583-32.53 3.49-3.669 5.4669-7.8477 5.4669-12.276 0-14.607-21.489-26.455-47.961-26.455-4.5587 0-8.9617 0.35209-13.14 1.0087-1.73-9.1891-10.814-16.208-21.759-16.208z" fill="#fff"/>
 <path d="m540.59 104.51c-10.55 0-19.369 6.5222-21.543 15.222-22.629 0.27019-42.262 5.1803-52.748 12.368-3.1759-2.1898-7.0641-3.4846-11.269-3.4846-10.688 0-19.356 8.3352-19.356 18.603 0 1.2313 0.12647 2.4345 0.36446 3.5992-15.88 5.7658-26.034 14.568-26.034 24.426 0 17.355 31.466 31.441 70.242 31.441 1.1389 0 2.2726-0.01034 3.3984-0.03437-0.44877 2.1867-0.68952 4.4865-0.68952 6.8545 0 14.751 9.2812 26.719 20.715 26.719 5.8234 0 11.08-3.1073 14.844-8.1039 4.1973 3.7472 9.6186 6.0063 15.544 6.0063 9.5785 0 17.858-5.9074 21.74-14.454 9.3218 2.2108 19.734 3.4502 30.723 3.4502 39.77 0 72.045-16.194 72.045-36.152 0-14.298-16.565-26.665-40.583-32.53 3.49-3.669 5.4669-7.8477 5.4669-12.276 0-14.607-21.489-26.455-47.961-26.455-4.5587 0-8.9617 0.35209-13.14 1.0087-1.73-9.1891-10.814-16.208-21.759-16.208z" fill="#fff"/>
 <path d="m182.86 272.39c8.5035 3.0542 13.407 11.745 12.217 20.562 18.147 6.8052 32.311 17.11 38.333 26.91 3.2999-1.1415 6.8714-1.2345 10.26-0.01728 8.6145 3.0941 12.783 13.448 9.3118 23.112-0.41623 1.1588-0.92488 2.2546-1.5104 3.2818 10.85 10.023 16.059 21.247 12.726 30.525-5.8664 16.333-35.989 20.481-67.242 9.2561-0.91796-0.3297-1.8282-0.66764-2.7274-1.0161-0.37747 2.1879-0.96086 4.422-1.7613 6.6506-4.9865 13.883-16.512 22.459-25.728 19.149-4.6936-1.6858-7.8798-6.1319-9.2249-11.924-4.6496 2.3116-9.7827 2.8682-14.558 1.153-7.72-2.7728-12.396-10.729-12.636-19.897-8.2605-0.61787-17.072-2.4658-25.928-5.6468-32.054-11.513-52.592-36.097-45.846-54.88 4.8331-13.456 22.364-20.3 43.705-18.867-1.5726-4.4633-1.7534-8.9683-0.25645-13.136 4.9376-13.747 26.262-18.677 47.598-11.014 3.6742 1.3197 7.1039 2.9256 10.25 4.7533 4.5006-8.1473 14.194-12.123 23.016-8.9546z" fill="#fff"/>
 <path d="m132.73 581.65c-5.7602 0-10.575 3.6387-11.761 8.4923-12.355 0.15074-23.073 2.8901-28.799 6.9-1.7339-1.2217-3.8567-1.944-6.1523-1.944-5.8354 0-10.568 4.6502-10.568 10.379 0 0.68695 0.06905 1.3582 0.19898 2.008-8.6698 3.2167-14.214 8.1275-14.214 13.627 0 9.6821 17.179 17.541 38.35 17.541 0.62181 0 1.2408-0.00577 1.8554-0.01917-0.24501 1.2199-0.37645 2.503-0.37645 3.8241 0 8.2298 5.0672 14.906 11.31 14.906 3.1794 0 6.0492-1.7336 8.1045-4.5211 2.2916 2.0906 5.2514 3.3509 8.4863 3.3509 5.2295 0 9.7496-3.2957 11.869-8.0638 5.0893 1.2334 10.774 1.9248 16.774 1.9248 21.713 0 39.334-9.0348 39.334-20.169 0-7.9766-9.0437-14.876-22.157-18.148 1.9054-2.0469 2.9847-4.3782 2.9847-6.8488 0-8.1491-11.732-14.759-26.185-14.759-2.4889 0-4.8927 0.19643-7.1741 0.56274-0.94452-5.1265-5.9038-9.0422-11.88-9.0422z" fill="#fff"/>
 <path d="m540.05 364.45c-10.388 1.845-17.93 9.8089-18.549 18.755-22.233 4.2233-40.705 12.491-49.773 21.402-3.5099-1.6006-7.5646-2.1955-11.704-1.4602-10.524 1.8691-17.6 11.592-15.804 21.702 0.21533 1.2124 0.55026 2.3749 0.98825 3.48-14.627 8.4539-23.086 18.896-21.362 28.603 3.0349 17.087 36.48 25.454 74.658 18.673 1.1214-0.19916 2.2358-0.4076 3.34-0.62812-0.05946 2.2315 0.10568 4.538 0.51978 6.8694 2.5796 14.524 13.811 24.684 25.068 22.684 5.7337-1.0184 10.366-4.997 13.199-10.575 4.7879 2.9555 10.521 4.2317 16.355 3.1955 9.4309-1.675 16.549-8.9392 18.877-18.033 9.5648 0.54662 20.034-0.05399 30.853-1.9756 39.158-6.9548 68.103-28.544 64.613-48.194-2.5003-14.077-20.973-23.357-45.647-24.932 2.7946-4.2227 4.0103-8.6828 3.2359-13.043-2.5544-14.382-25.784-22.29-51.848-17.66-4.4884 0.79719-6.7634 13.166-10.763 14.544-3.3103-8.7449-15.48-25.319-26.257-23.405z" fill="#fff"/>
 <path d="m587.73 641.65c-5.7602 0-10.575 3.6387-11.761 8.4923-12.355 0.15074-23.073 2.8901-28.799 6.9-1.7339-1.2217-3.8567-1.944-6.1523-1.944-5.8354 0-10.568 4.6502-10.568 10.379 0 0.68695 0.06905 1.3582 0.19898 2.008-8.6698 3.2167-14.214 8.1275-14.214 13.627 0 9.6821 17.179 17.541 38.35 17.541 0.62181 0 1.2408-0.00577 1.8554-0.01917-0.24501 1.2199-0.37645 2.503-0.37645 3.8241 0 8.2298 5.0672 14.906 11.31 14.906 3.1794 0 6.0492-1.7336 8.1045-4.5211 2.2916 2.0906 5.2514 3.3509 8.4863 3.3509 5.2295 0 9.7496-3.2957 11.869-8.0638 5.0893 1.2334 10.774 1.9248 16.774 1.9248 21.713 0 39.334-9.0348 39.334-20.169 0-7.9766-9.0437-14.876-22.157-18.148 1.9054-2.0469 2.9847-4.3782 2.9847-6.8488 0-8.1491-11.732-14.759-26.185-14.759-2.4889 0-4.8927 0.19643-7.1741 0.56274-0.94452-5.1265-5.9038-9.0422-11.88-9.0422z" fill="#fff"/>
 <path d="m416.1 724.55c-5.6527 1.1075-9.6781 5.604-9.9092 10.595-12.095 2.5233-22.087 7.2724-26.935 12.308-1.9364-0.86549-4.1585-1.1662-6.4113-0.72486-5.7265 1.122-9.4763 6.5952-8.3749 12.217 0.13207 0.67413 0.3289 1.3196 0.58133 1.9322-7.8896 4.8236-12.386 10.709-11.328 16.106 1.8615 9.5014 20.231 13.911 41.007 9.8403 0.61021-0.11955 1.2165-0.24422 1.8171-0.37553-0.00589 1.2443 0.11182 2.5287 0.36581 3.8251 1.5823 8.0762 7.8386 13.654 13.965 12.454 3.12-0.61129 5.603-2.8643 7.084-5.995 2.6508 1.611 5.7977 2.2787 8.9722 1.6567 5.1319-1.0055 8.934-5.1088 10.097-10.195 5.2315 0.23187 10.943-0.18259 16.831-1.3361 21.308-4.1747 36.863-16.429 34.722-27.355-1.5336-7.8278-11.735-12.86-25.233-13.55 1.4763-2.375 2.0873-4.8704 1.6122-7.2949-1.5668-7.997-14.351-12.228-28.534-9.4493-2.4424 0.47853-4.7637 1.1335-6.932 1.9316-1.9126-4.8493-7.5322-7.7384-13.397-6.5894z" fill="#fff"/>
 <path d="m184.87 765.93c-5.7602 0-10.575 3.6387-11.761 8.4923-12.355 0.15074-23.073 2.8901-28.799 6.9-1.7339-1.2217-3.8567-1.944-6.1523-1.944-5.8354 0-10.568 4.6502-10.568 10.379 0 0.68695 0.06905 1.3582 0.19898 2.008-8.6698 3.2167-14.214 8.1275-14.214 13.627 0 9.6821 17.179 17.541 38.35 17.541 0.62181 0 1.2408-0.00577 1.8554-0.01917-0.24501 1.2199-0.37645 2.503-0.37645 3.8241 0 8.2298 5.0672 14.906 11.31 14.906 3.1794 0 6.0492-1.7336 8.1045-4.5211 2.2916 2.0906 5.2514 3.3509 8.4863 3.3509 5.2295 0 9.7496-3.2957 11.869-8.0638 5.0893 1.2334 10.774 1.9248 16.774 1.9248 21.713 0 39.334-9.0348 39.334-20.169 0-7.9766-9.0437-14.876-22.157-18.148 1.9054-2.0469 2.9847-4.3782 2.9847-6.8488 0-8.1491-11.732-14.759-26.185-14.759-2.4889 0-4.8927 0.19643-7.1741 0.56274-0.94452-5.1265-5.9038-9.0422-11.88-9.0422z" fill="#fff"/>
 <path d="m367.57 562.46c-5.5572-1.5156-11.16 0.72803-13.581 5.0984-11.959-3.1053-23.021-3.2828-29.599-0.92048-1.3514-1.6348-3.2093-2.8903-5.424-3.4943-5.6298-1.5354-11.419 1.7058-12.926 7.2326-0.18075 0.66274-0.29075 1.3285-0.33636 1.9896-9.2107 0.82218-15.851 4.1013-17.298 9.4073-2.5475 9.3409 11.959 21.443 32.383 27.013 0.5999 0.16361 1.1986 0.3209 1.795 0.46968-0.55736 1.1125-1.0218 2.3158-1.3694 3.5903-2.1654 7.9398 0.96654 15.714 6.9891 17.357 3.0674 0.83654 6.2922-0.08083 9.0085-2.2294 1.6608 2.6198 4.1847 4.6145 7.3056 5.4657 5.0452 1.376 10.273-0.61432 13.572-4.6568 4.5855 2.529 9.8881 4.6919 15.676 6.2704 20.948 5.713 40.325 1.6329 43.255-9.1092 2.0988-7.6956-4.8109-16.732-16.601-23.339 2.3768-1.4734 4.0315-3.4386 4.6816-5.8222 2.1442-7.8619-7.4354-17.326-21.379-21.129-2.4012-0.65486-4.772-1.0978-7.0694-1.3447 0.43763-5.1944-3.3166-10.277-9.082-11.849z" fill="#fff"/>
 <path d="m564.92 846.18c-5.6527 1.1075-9.6781 5.604-9.9092 10.595-12.095 2.5233-22.087 7.2724-26.935 12.308-1.9364-0.86549-4.1585-1.1662-6.4113-0.72486-5.7265 1.122-9.4763 6.5952-8.3749 12.217 0.13207 0.67413 0.3289 1.3196 0.58133 1.9322-7.8896 4.8236-12.386 10.709-11.328 16.106 1.8615 9.5014 20.231 13.911 41.007 9.8403 0.61021-0.11955 1.2165-0.24422 1.8171-0.37553-0.00589 1.2443 0.11182 2.5287 0.36581 3.8251 1.5823 8.0762 7.8386 13.654 13.965 12.454 3.12-0.61129 5.603-2.8643 7.084-5.995 2.6508 1.611 5.7977 2.2787 8.9722 1.6567 5.1319-1.0055 8.934-5.1088 10.097-10.195 5.2315 0.23187 10.943-0.18259 16.831-1.3361 21.308-4.1747 36.863-16.429 34.722-27.355-1.5336-7.8278-11.735-12.86-25.233-13.55 1.4763-2.375 2.0873-4.8704 1.6122-7.2949-1.5668-7.997-14.351-12.228-28.534-9.4493-2.4424 0.47853-4.7637 1.1335-6.932 1.9316-1.9126-4.8493-7.5322-7.7384-13.397-6.5894z" fill="#fff" opacity=".28"/>
 <path d="m294.92 873.32c-5.6527 1.1075-9.6781 5.604-9.9092 10.595-12.095 2.5233-22.087 7.2724-26.935 12.308-1.9364-0.8655-4.1585-1.1662-6.4113-0.7248-5.7265 1.1219-9.4763 6.5951-8.3749 12.217 0.13207 0.6742 0.3289 1.3196 0.58133 1.9323-7.8896 4.8236-12.386 10.709-11.328 16.106 1.8615 9.5015 20.231 13.911 41.007 9.8403 0.61021-0.1195 1.2165-0.2442 1.8171-0.3755-0.00589 1.2443 0.11182 2.5287 0.36581 3.8251 1.5823 8.0762 7.8386 13.654 13.965 12.454 3.12-0.6113 5.603-2.8643 7.084-5.995 2.6508 1.6109 5.7977 2.2787 8.9722 1.6567 5.1319-1.0054 8.934-5.1087 10.097-10.195 5.2315 0.2319 10.943-0.1826 16.831-1.3361 21.308-4.1747 36.863-16.429 34.722-27.355-1.5336-7.8278-11.735-12.86-25.233-13.55 1.4763-2.375 2.0873-4.8703 1.6122-7.2949-1.5668-7.997-14.351-12.228-28.534-9.4493-2.4424 0.4785-4.7637 1.1335-6.932 1.9316-1.9126-4.8493-7.5322-7.7385-13.397-6.5895z" fill="#fff" opacity=".28"/>
 <path d="m100.64 857.6c-5.6527 1.1075-9.6781 5.604-9.9092 10.595-12.095 2.5233-22.087 7.2724-26.935 12.308-1.9364-0.8655-4.1585-1.1662-6.4113-0.7248-5.7265 1.1219-9.4763 6.5951-8.3749 12.217 0.13207 0.6742 0.3289 1.3196 0.58133 1.9323-7.8896 4.8236-12.386 10.709-11.328 16.106 1.8615 9.5015 20.231 13.911 41.007 9.8403 0.61021-0.1195 1.2165-0.2442 1.8171-0.3755-0.00589 1.2443 0.11182 2.5287 0.36581 3.8251 1.5823 8.0762 7.8386 13.654 13.965 12.454 3.12-0.6113 5.603-2.8643 7.084-5.995 2.6508 1.6109 5.7977 2.2787 8.9722 1.6567 5.1319-1.0054 8.934-5.1087 10.097-10.195 5.2315 0.2319 10.943-0.1826 16.831-1.3361 21.308-4.1747 36.863-16.429 34.722-27.355-1.5336-7.8278-11.735-12.86-25.233-13.55 1.4763-2.375 2.0873-4.8703 1.6122-7.2949-1.5668-7.997-14.351-12.228-28.534-9.4493-2.4424 0.4785-4.7637 1.1335-6.932 1.9316-1.9126-4.8493-7.5322-7.7385-13.397-6.5895z" fill="#fff" opacity=".28"/>
 <path transform="matrix(.74106 0 0 .70003 75.343 121.77)" d="m408.33 235.04c-10.61 2.416-18.165 12.225-18.599 23.114-22.702 5.5046-41.457 15.865-50.555 26.851-3.6346-1.8881-7.8053-2.5441-12.034-1.5812-10.748 2.4474-17.786 14.387-15.719 26.651 0.24789 1.4708 0.61732 2.8787 1.0911 4.2154-14.808 10.523-23.248 23.361-21.263 35.135 3.494 20.728 37.973 30.346 76.967 21.467 1.1453-0.26069 2.2833-0.53273 3.4105-0.81917-0.01106 2.7145 0.20988 5.5164 0.68661 8.3445 2.9699 17.618 14.713 29.786 26.211 27.168 5.8562-1.3336 10.517-6.2485 13.296-13.078 4.9753 3.5142 10.882 4.971 16.84 3.6141 9.6323-2.1933 16.769-11.145 18.952-22.242 9.8193 0.5059 20.54-0.39834 31.59-2.9147 39.994-9.1072 69.189-35.84 65.171-59.676-2.8786-17.077-22.026-28.054-47.36-29.559 2.7709-5.1811 3.9177-10.625 3.0261-15.914-2.9408-17.446-26.936-26.676-53.557-20.614-4.5843 1.0439-8.9411 2.4728-13.011 4.2138-3.5898-10.579-14.137-16.882-25.145-14.375z" fill="#fff" filter="url(#a)" opacity=".28"/>
 <path transform="matrix(.68477 0 0 .60005 4.1343 205.49)" d="m261.9 385.76c-10.61 2.416-18.165 12.225-18.599 23.114-22.702 5.5046-41.457 15.865-50.555 26.851-3.6346-1.8881-7.8053-2.5441-12.034-1.5812-10.748 2.4474-17.786 14.387-15.719 26.651 0.24789 1.4708 0.61732 2.8787 1.0911 4.2154-14.808 10.523-23.248 23.361-21.263 35.135 3.494 20.728 37.973 30.346 76.967 21.467 1.1453-0.26069 2.2833-0.53273 3.4105-0.81917-0.01106 2.7145 0.20988 5.5164 0.68661 8.3445 2.9699 17.618 14.713 29.786 26.211 27.168 5.8562-1.3336 10.517-6.2485 13.296-13.078 4.9753 3.5142 10.882 4.971 16.84 3.6141 9.6323-2.1933 16.769-11.145 18.952-22.242 9.8193 0.5059 20.54-0.39834 31.59-2.9147 39.994-9.1072 69.189-35.84 65.171-59.676-2.8786-17.077-22.026-28.054-47.36-29.559 2.7709-5.1811 3.9177-10.625 3.0261-15.914-2.9408-17.446-26.936-26.676-53.557-20.614-4.5843 1.0439-8.9411 2.4728-13.011 4.2138-3.5898-10.579-14.137-16.882-25.145-14.375z" fill="#fff" filter="url(#a)" opacity=".28"/>
 <path transform="matrix(.74106 0 0 .70003 296.06 -187.52)" d="m408.33 235.04c-10.61 2.416-18.165 12.225-18.599 23.114-22.702 5.5046-41.457 15.865-50.555 26.851-3.6346-1.8881-7.8053-2.5441-12.034-1.5812-10.748 2.4474-17.786 14.387-15.719 26.651 0.24789 1.4708 0.61732 2.8787 1.0911 4.2154-14.808 10.523-23.248 23.361-21.263 35.135 3.494 20.728 37.973 30.346 76.967 21.467 1.1453-0.26069 2.2833-0.53273 3.4105-0.81917-0.01106 2.7145 0.20988 5.5164 0.68661 8.3445 2.9699 17.618 14.713 29.786 26.211 27.168 5.8562-1.3336 10.517-6.2485 13.296-13.078 4.9753 3.5142 10.882 4.971 16.84 3.6141 9.6323-2.1933 16.769-11.145 18.952-22.242 9.8193 0.5059 20.54-0.39834 31.59-2.9147 39.994-9.1072 69.189-35.84 65.171-59.676-2.8786-17.077-22.026-28.054-47.36-29.559 2.7709-5.1811 3.9177-10.625 3.0261-15.914-2.9408-17.446-26.936-26.676-53.557-20.614-4.5843 1.0439-8.9411 2.4728-13.011 4.2138-3.5898-10.579-14.137-16.882-25.145-14.375z" fill="#fff" filter="url(#a)" opacity=".28"/>
 <path transform="matrix(.68477 0 0 .60005 121.28 415.49)" d="m261.9 385.76c-10.61 2.416-18.165 12.225-18.599 23.114-22.702 5.5046-41.457 15.865-50.555 26.851-3.6346-1.8881-7.8053-2.5441-12.034-1.5812-10.748 2.4474-17.786 14.387-15.719 26.651 0.24789 1.4708 0.61732 2.8787 1.0911 4.2154-14.808 10.523-23.248 23.361-21.263 35.135 3.494 20.728 37.973 30.346 76.967 21.467 1.1453-0.26069 2.2833-0.53273 3.4105-0.81917-0.01106 2.7145 0.20988 5.5164 0.68661 8.3445 2.9699 17.618 14.713 29.786 26.211 27.168 5.8562-1.3336 10.517-6.2485 13.296-13.078 4.9753 3.5142 10.882 4.971 16.84 3.6141 9.6323-2.1933 16.769-11.145 18.952-22.242 9.8193 0.5059 20.54-0.39834 31.59-2.9147 39.994-9.1072 69.189-35.84 65.171-59.676-2.8786-17.077-22.026-28.054-47.36-29.559 2.7709-5.1811 3.9177-10.625 3.0261-15.914-2.9408-17.446-26.936-26.676-53.557-20.614-4.5843 1.0439-8.9411 2.4728-13.011 4.2138-3.5898-10.579-14.137-16.882-25.145-14.375z" fill="#fff" filter="url(#a)" opacity=".28"/>
</svg>