<svg width="26" height="42" xmlns="http://www.w3.org/2000/svg">
 <!-- Created with Method Draw - http://github.com/duopixel/Method-Draw/ -->
 <g>
  <title>background</title>
  <rect fill="#fff" id="canvas_background" height="44" width="28" y="-1" x="-1"/>
  <g display="none" overflow="visible" y="0" x="0" height="100%" width="100%" id="canvasGrid">
   <rect fill="url(#gridpattern)" stroke-width="0" y="0" x="0" height="100%" width="100%"/>
  </g>
 </g>
 <g>
  <title>Layer 1</title>
  <path id="svg_5" d="m1.051224,40.684883c-1.292374,-1.283051 2.024323,-1.317413 1.503265,-2.7397c0.952667,-1.884735 3.429779,-3.025558 3.794556,-5.167267c-1.004669,-0.595261 -1.582458,-2.034821 0.334229,-1.863922c1.40564,-0.899796 1.22995,-2.741119 1.652679,-4.092392c0.395966,-2.180969 0.485626,-4.388428 0.655701,-6.587326c-1.626343,-0.106232 -3.292969,-0.032227 -4.877655,-0.386642c0.045593,-1.462357 3.270081,-0.901245 3.41684,-2.281158c2.344482,-0.036026 0.129852,-3.014099 -0.824921,-3.724625c-1.222107,-1.198593 -2.036072,-3.090714 -1.106995,-4.570969c1.328827,-0.75087 4.333435,-0.293808 4.197632,-2.267075c-0.903717,-0.438095 -2.051147,-0.159882 -3.064026,-0.237366c0.062286,-0.920135 0.124573,-1.840263 0.186859,-2.760406c1.339539,-0.087616 2.679077,-0.175247 4.018646,-0.262886c-0.679932,-0.600983 -1.69754,-1.043274 -1.952179,-1.893387c0.86615,-1.210884 2.953583,-1.103996 4.449036,-1.092545c1.454132,-0.085297 4.105408,0.739586 2.123322,2.068245c-0.160675,0.326286 -1.724121,1.137573 -0.757904,1.049126c1.237091,0 2.474213,0 3.711334,0c-0.003571,0.899521 -0.031982,1.807976 0.2164,2.688255c-0.944336,0.598099 -4.006561,-0.510887 -3.134644,1.334526c0.981781,0.771545 2.485382,0.751183 3.730621,1.090981c0.726318,0.061707 1.304108,0.222672 1.042358,0.944702c0.136536,1.340576 -0.261139,2.689102 -1.344666,3.706734c-0.766998,1.061867 -2.489685,2.391197 -1.979706,3.620323c0.964844,-0.133575 1.739899,0.405197 0.969269,1.011078c0.790833,0.497986 3.575714,0.383942 2.973358,1.630661c-1.41095,0.397217 -2.926666,0.231735 -4.390503,0.272263c0.389771,3.403107 0.928711,6.806519 1.829193,10.139038c0.526154,0.739487 2.616211,1.307831 0.90094,2.271881c-0.640167,1.795303 1.40451,3.139542 2.688629,4.291809c1.411926,0.899307 0.726898,2.708786 2.724304,2.997375c1.57309,1.295914 -2.159698,1.261429 -3.118042,1.264252c-6.34433,0.058182 -12.695526,0.139572 -19.037354,-0.034302c-0.519165,-0.05571 -1.160583,-0.042969 -1.530579,-0.419281z" opacity="0.5" stroke-width="1.5" stroke="#000" fill="#000000"/>
 </g>
</svg>