<svg xmlns="http://www.w3.org/2000/svg" width="269.971" height="269.971"><path d="M260.97 186.975l-73.662 73.858-104.312.138-73.858-73.663L9 82.996 82.663 9.138 186.975 9l73.858 73.663z" fill="#e80808"/><path d="M84.514 13.61l-71.04 71.237.136 100.579 71.241 71.072 100.575-.168 71.072-71.241-.168-100.575-71.237-71.04-100.58.136z" fill="#fff"/><path d="M86.19 17.674L17.54 86.513l.134 97.237 68.843 68.68 97.233-.164 68.68-68.843-.164-97.234-68.84-68.648-97.237.133z" fill="#e80808"/><g style="text-align:start;line-height:125%;-inkscape-font-specification:Impact Condensed"><path d="M191.397 94.43h21.241c5.745 0 10.154.451 13.227 1.353 3.106.902 5.427 2.205 6.963 3.908 1.57 1.703 2.622 3.774 3.157 6.212.567 2.405.851 6.146.851 11.222v7.064c0 5.177-.534 8.951-1.603 11.322-1.069 2.372-3.04 4.192-5.912 5.461-2.839 1.27-6.563 1.904-11.172 1.904h-5.66v32.664h-21.092V94.43m21.091 13.878v20.64c.601.034 1.119.05 1.553.05 1.937 0 3.273-.467 4.008-1.402.768-.969 1.152-2.956 1.152-5.962v-6.663c0-2.772-.434-4.576-1.302-5.41-.869-.836-2.672-1.253-5.41-1.253m-29.008 33.616c0 8.15-.2 13.928-.601 17.334-.368 3.374-1.57 6.463-3.607 9.269-2.004 2.805-4.726 4.96-8.166 6.462-3.44 1.503-7.448 2.255-12.024 2.255-4.342 0-8.25-.702-11.723-2.104-3.44-1.437-6.212-3.574-8.317-6.413-2.104-2.839-3.356-5.928-3.757-9.268-.4-3.34-.601-9.185-.601-17.535v-13.877c0-8.15.184-13.911.55-17.284.402-3.407 1.604-6.513 3.608-9.319 2.037-2.805 4.776-4.96 8.216-6.462 3.44-1.503 7.448-2.255 12.024-2.255 4.342 0 8.233.718 11.673 2.154 3.473 1.403 6.262 3.524 8.366 6.363 2.105 2.839 3.357 5.928 3.758 9.268.4 3.34.601 9.185.601 17.535v13.877m-21.092-26.652c0-3.774-.217-6.18-.65-7.215-.402-1.068-1.253-1.603-2.556-1.603-1.102 0-1.954.434-2.555 1.303-.568.835-.852 3.34-.852 7.515v37.874c0 4.71.184 7.615.551 8.717.401 1.103 1.303 1.654 2.706 1.654 1.436 0 2.354-.635 2.755-1.904.401-1.27.601-4.292.601-9.068v-37.273M130.477 94.43v16.232h-12.525v64.878H96.86v-64.878H84.386V94.43h46.09m-50.9 24.549H59.988v-6.012c0-2.805-.25-4.592-.752-5.36-.5-.769-1.336-1.153-2.505-1.153-1.269 0-2.238.518-2.906 1.553-.634 1.036-.951 2.605-.951 4.71 0 2.705.367 4.742 1.102 6.112.701 1.369 2.688 3.022 5.961 4.96 9.386 5.577 15.297 10.153 17.735 13.726 2.439 3.574 3.658 9.336 3.658 17.284 0 5.779-.685 10.037-2.054 12.776-1.336 2.738-3.942 5.043-7.816 6.913-3.874 1.837-8.383 2.756-13.526 2.756-5.645 0-10.471-1.07-14.479-3.207-3.975-2.137-6.58-4.86-7.815-8.166-1.236-3.306-1.854-7.999-1.854-14.077v-5.31h19.589v9.869c0 3.039.267 4.993.801 5.861.568.868 1.553 1.303 2.956 1.303s2.438-.551 3.106-1.654c.701-1.102 1.052-2.738 1.052-4.91 0-4.775-.651-7.898-1.954-9.368-1.336-1.47-4.626-3.924-9.87-7.364-5.243-3.474-8.716-5.995-10.42-7.565-1.703-1.57-3.123-3.74-4.258-6.513-1.102-2.772-1.653-6.312-1.653-10.62 0-6.213.785-10.755 2.354-13.628 1.603-2.872 4.175-5.11 7.715-6.713 3.54-1.637 7.816-2.455 12.826-2.455 5.477 0 10.136.885 13.977 2.655 3.875 1.77 6.43 4.008 7.665 6.714 1.27 2.672 1.904 7.23 1.904 13.677v3.206" font-size="102.602" font-weight="400" font-stretch="condensed" letter-spacing="0" word-spacing="0" fill="#fff" font-family="Impact"/></g></svg>