<svg height="512pt" viewBox="0 0 512 512.00092" width="512pt" xmlns="http://www.w3.org/2000/svg"><path d="m512 256c.011719 25.550781-3.796875 50.960938-11.296875 75.386719-5.085937 16.753906-11.953125 32.910156-20.480469 48.199219-37.210937 67.492187-102.84375 114.632812-178.6875 128.332031-75.839844 13.699219-153.820312-7.5-212.289062-57.710938-45.011719-38.597656-75.191406-91.652343-85.359375-150.070312-2.152344-11.652344-3.359375-23.460938-3.621094-35.308594-.1757812-2.914063-.265625-5.828125-.265625-8.828125-.046875-36.546875 7.78125-72.679688 22.953125-105.929688 5.46875-12.3125 11.996094-24.128906 19.507813-35.3125.351562-.605468.734374-1.195312 1.148437-1.765624 12.859375-19.027344 28.207031-36.246094 45.636719-51.199219 52.835937-45.390625 121.890625-67.28125 191.226562-60.617188 69.335938 6.664063 132.957032 41.304688 176.179688 95.929688 32.214844 40.390625 51.285156 89.683593 54.640625 141.238281.53125 5.828125.707031 11.742188.707031 17.65625zm0 0" fill="#c03a2b"/><path d="m256 300.136719c-34.914062 0-44.136719-23.101563-44.136719-35.308594 0-4.875 3.953125-8.828125 8.828125-8.828125s8.828125 3.953125 8.828125 8.828125c.085938 2.84375 1.765625 17.65625 26.480469 17.65625 26.183594 0 26.484375-16.933594 26.484375-17.65625 0-4.875 3.953125-8.828125 8.828125-8.828125s8.824219 3.953125 8.824219 8.828125c0 12.207031-9.222657 35.308594-44.136719 35.308594zm0 0" fill="#802f34"/><path d="m229.519531 220.691406c0 14.625-11.859375 26.480469-26.484375 26.480469s-26.484375-11.855469-26.484375-26.480469c0-14.628906 11.859375-26.484375 26.484375-26.484375s26.484375 11.855469 26.484375 26.484375zm0 0" fill="#fff"/><path d="m211.863281 220.691406c0 4.875-3.953125 8.828125-8.828125 8.828125s-8.828125-3.953125-8.828125-8.828125 3.953125-8.828125 8.828125-8.828125 8.828125 3.953125 8.828125 8.828125zm0 0" fill="#2c2f38"/><path d="m335.449219 220.691406c0 14.625-11.855469 26.480469-26.484375 26.480469-14.625 0-26.480469-11.855469-26.480469-26.480469 0-14.628906 11.855469-26.484375 26.480469-26.484375 14.628906 0 26.484375 11.855469 26.484375 26.484375zm0 0" fill="#fff"/><path d="m317.792969 220.691406c0 4.875-3.953125 8.828125-8.828125 8.828125s-8.828125-3.953125-8.828125-8.828125 3.953125-8.828125 8.828125-8.828125 8.828125 3.953125 8.828125 8.828125zm0 0" fill="#2c2f38"/><path d="m220.691406 203.035156h-35.3125c-4.875 0-8.828125-3.953125-8.828125-8.828125s3.953125-8.828125 8.828125-8.828125h35.3125c4.875 0 8.828125 3.953125 8.828125 8.828125s-3.953125 8.828125-8.828125 8.828125zm0 0" fill="#802f34"/><path d="m326.621094 203.035156h-35.308594c-4.875 0-8.828125-3.953125-8.828125-8.828125s3.953125-8.828125 8.828125-8.828125h35.308594c4.875 0 8.828125 3.953125 8.828125 8.828125s-3.953125 8.828125-8.828125 8.828125zm0 0" fill="#802f34"/><path d="m432.550781 361.929688c-35.308593 0-17.652343 26.484374-44.136719 44.140624-2.082031 1.371094-4.277343 2.570313-6.558593 3.582032-.617188.292968-1.246094.558594-1.871094.804687-1.972656.8125-4.007813 1.46875-6.082031 1.96875l-1.035156.230469c-2.011719.402344-4.050782.667969-6.097657.792969-.785156.054687-1.582031.097656-2.375.113281-1.765625 0-3.53125 0-5.296875-.132812-18.46875-1.285157-39.484375-10.53125-67.785156-16.1875-44.140625-8.828126-26.484375-52.964844-88.277344-44.136719-61.792968 8.824219-44.136718 35.308593-70.621094 70.617187-11.28125 13.632813-27.238281 22.570313-44.753906 25.070313.527344.53125 1.058594.972656 1.585938 1.414062 56.910156 48.886719 132.40625 70.339844 206.523437 58.683594 74.113281-11.65625 139.378907-55.246094 178.539063-119.242187-10.769532-14.300782-25.25-27.71875-41.757813-27.71875zm0 0" fill="#e64c3c"/><path d="m146.980469 47.140625c-16.800781 8.066406-32.472657 18.308594-46.609375 30.453125-14.40625 12.398438-27.109375 26.648438-37.78125 42.375-.355469.476562-.679688.980469-.972656 1.5-6.222657 9.25-11.628907 19.027344-16.15625 29.21875-3.464844 7.570312-6.441407 15.355469-8.914063 23.304688-6.679687-3.585938-12.707031-8.269532-17.832031-13.859376 1.234375-3.441406 2.738281-6.710937 4.238281-10.0625 5.46875-12.3125 11.996094-24.128906 19.507813-35.3125.351562-.605468.734374-1.195312 1.148437-1.765624 12.859375-19.027344 28.207031-36.246094 45.636719-51.199219 4.769531-4.148438 9.710937-8.03125 14.832031-11.828125h.089844c11.652343-.882813 26.128906-1.855469 42.8125-2.824219zm0 0" fill="#eb7063"/><path d="m511.292969 238.34375c-5.363281-78.488281-46.589844-150.128906-111.753907-194.207031h-143.539062c-64.351562 0-118.90625 3.269531-151.832031 5.828125h-.089844c-5.121094 3.796875-10.0625 7.679687-14.832031 11.828125-17.429688 14.953125-32.777344 32.171875-45.636719 51.199219-.414063.570312-.796875 1.160156-1.148437 1.765624-7.511719 11.183594-14.039063 23-19.507813 35.3125-1.5 3.351563-3.003906 6.621094-4.238281 10.0625 12.710937 13.769532 33.898437 25.246094 69.5625 25.246094 88.273437 0 61.792968-79.449218 141.242187-70.621094 79.445313 8.828126 61.792969 52.964844 132.414063 35.3125 56.546875-14.125 67.828125 44.65625 92.742187 78.230469l.695313.953125c1.734375 2.28125 3.589844 4.464844 5.5625 6.539063.273437.292969.539062.601562.8125.882812 2.03125 2.066407 4.230468 3.96875 6.566406 5.6875l.425781.324219c2.476563 1.785156 5.144531 3.289062 7.953125 4.484375 13.417969 5.652344 25.246094 10.328125 35.132813 14.125h.089843c.085938-1.765625.085938-3.53125.085938-5.296875 0-5.914062-.175781-11.828125-.707031-17.65625zm0 0" fill="#e64c3c"/><g fill="#802f34"><path d="m450.207031 291.3125c0 14.625-11.855469 26.480469-26.480469 26.480469-14.628906 0-26.484374-11.855469-26.484374-26.480469 0-14.628906 11.855468-26.484375 26.484374-26.484375 14.625 0 26.480469 11.855469 26.480469 26.484375zm0 0"/><path d="m97.105469 335.449219c0 9.75-7.90625 17.65625-17.65625 17.65625s-17.65625-7.90625-17.65625-17.65625 7.90625-17.65625 17.65625-17.65625 17.65625 7.90625 17.65625 17.65625zm0 0"/><path d="m123.585938 114.757812c0 9.75-7.902344 17.65625-17.652344 17.65625-9.753906 0-17.65625-7.90625-17.65625-17.65625s7.902344-17.652343 17.65625-17.652343c9.75 0 17.652344 7.902343 17.652344 17.652343zm0 0"/></g></svg>