<svg id="Capa_1" enable-background="new 0 0 512 512" height="512" viewBox="0 0 512 512" width="512" xmlns="http://www.w3.org/2000/svg"><circle cx="256" cy="256" fill="#dce1eb" r="248.5"/><ellipse cx="176.443" cy="122.003" fill="#ff8870" rx="29.355" ry="23.377"/><ellipse cx="335.557" cy="122.003" fill="#ff8870" rx="29.355" ry="23.377"/><path d="m193.551 107c-4.142 0-7.5-3.358-7.5-7.5v-12c0-4.142 3.358-7.5 7.5-7.5s7.5 3.358 7.5 7.5v12c0 4.142-3.358 7.5-7.5 7.5z"/><path d="m318.449 107c-4.142 0-7.5-3.358-7.5-7.5v-12c0-4.142 3.358-7.5 7.5-7.5s7.5 3.358 7.5 7.5v12c0 4.142-3.358 7.5-7.5 7.5z"/><path d="m256 114.144c-8.478 0-16.54-3.671-22.119-10.073-2.721-3.123-2.396-7.86.727-10.582 3.123-2.721 7.86-2.396 10.582.727 2.729 3.132 6.669 4.929 10.81 4.929s8.081-1.796 10.81-4.929c2.721-3.123 7.458-3.447 10.582-.727 3.123 2.722 3.448 7.459.727 10.582-5.579 6.401-13.641 10.073-22.119 10.073z"/><path d="m336 424.5c-137.243 0-248.5-111.257-248.5-248.5 0-48.13 13.698-93.054 37.386-131.114-70.47 43.858-117.386 122.001-117.386 211.114 0 137.243 111.257 248.5 248.5 248.5 89.113 0 167.256-46.916 211.114-117.386-38.06 23.688-82.984 37.386-131.114 37.386z" fill="#cdd2e1"/><path d="m203.744 311.714h-27.935c-4.059-10.018-12.047-18.006-22.065-22.065v-27.935c0-8.284-6.716-15-15-15s-15 6.716-15 15v27.935c-10.018 4.059-18.006 12.047-22.065 22.065h-27.935c-8.284 0-15 6.716-15 15s6.716 15 15 15h27.935c4.059 10.018 12.047 18.007 22.065 22.065v27.935c0 8.284 6.716 15 15 15s15-6.716 15-15v-27.934c10.018-4.059 18.006-12.047 22.065-22.065h27.935c8.284 0 15-6.716 15-15 0-8.285-6.716-15.001-15-15.001z" fill="#dce1eb"/><circle cx="57.948" cy="242.789" fill="#dce1eb" r="20"/><circle cx="397" cy="325.023" fill="#cdd2e1" r="20"/><circle cx="320.557" cy="404" fill="#cdd2e1" r="50"/><path d="m446.928 85.46c-2.759-3.088-7.501-3.354-10.59-.594s-3.354 7.501-.594 10.59c39.502 44.195 61.256 101.21 61.256 160.544 0 132.888-108.112 241-241 241s-241-108.112-241-241 108.112-241 241-241c59.03 0 115.825 21.558 159.923 60.704 3.099 2.75 7.838 2.468 10.588-.63s2.468-7.838-.63-10.588c-46.846-41.585-107.177-64.486-169.881-64.486-68.38 0-132.667 26.629-181.02 74.98-48.351 48.353-74.98 112.64-74.98 181.02s26.629 132.667 74.98 181.02c48.353 48.351 112.64 74.98 181.02 74.98s132.667-26.629 181.02-74.98c48.351-48.353 74.98-112.64 74.98-181.02 0-63.027-23.109-123.592-65.072-170.54z"/><path d="m138.744 414.214c12.407 0 22.5-10.093 22.5-22.5v-23.19c8.151-4.405 14.904-11.158 19.31-19.31h23.19c12.407 0 22.5-10.093 22.5-22.5s-10.093-22.5-22.5-22.5h-23.19c-4.405-8.151-11.158-14.904-19.31-19.31v-23.19c0-12.407-10.093-22.5-22.5-22.5s-22.5 10.093-22.5 22.5v23.19c-8.151 4.405-14.904 11.158-19.31 19.31h-23.19c-12.407 0-22.5 10.093-22.5 22.5s10.093 22.5 22.5 22.5h23.19c4.405 8.151 11.158 14.904 19.31 19.31v23.19c0 12.407 10.093 22.5 22.5 22.5zm-30.115-75.316c-1.147-2.831-3.896-4.684-6.951-4.684h-27.934c-4.136 0-7.5-3.364-7.5-7.5s3.364-7.5 7.5-7.5h27.935c3.055 0 5.804-1.853 6.951-4.684 3.286-8.109 9.821-14.645 17.93-17.93 2.832-1.147 4.684-3.896 4.684-6.951v-27.935c0-4.136 3.364-7.5 7.5-7.5s7.5 3.364 7.5 7.5v27.935c0 3.055 1.853 5.804 4.684 6.951 8.109 3.285 14.645 9.82 17.93 17.93 1.147 2.832 3.896 4.684 6.951 4.684h27.935c4.136 0 7.5 3.364 7.5 7.5s-3.364 7.5-7.5 7.5h-27.935c-3.055 0-5.804 1.853-6.951 4.684-3.285 8.109-9.821 14.645-17.93 17.93-2.831 1.147-4.684 3.896-4.684 6.951v27.935c0 4.136-3.364 7.5-7.5 7.5s-7.5-3.364-7.5-7.5v-27.934c0-3.055-1.853-5.804-4.684-6.951-8.109-3.286-14.645-9.822-17.931-17.931z"/><path d="m85.448 242.789c0-15.164-12.336-27.5-27.5-27.5s-27.5 12.336-27.5 27.5 12.336 27.5 27.5 27.5 27.5-12.337 27.5-27.5zm-40 0c0-6.893 5.607-12.5 12.5-12.5s12.5 5.607 12.5 12.5-5.607 12.5-12.5 12.5-12.5-5.608-12.5-12.5z"/><path d="m424.5 325.023c0-15.164-12.336-27.5-27.5-27.5s-27.5 12.336-27.5 27.5 12.336 27.5 27.5 27.5 27.5-12.336 27.5-27.5zm-40 0c0-6.893 5.607-12.5 12.5-12.5s12.5 5.607 12.5 12.5-5.607 12.5-12.5 12.5-12.5-5.607-12.5-12.5z"/><path d="m320.557 446.5c-18.785 0-35.567-12.581-40.812-30.595-1.158-3.978-5.32-6.262-9.297-5.105-3.977 1.158-6.263 5.32-5.105 9.297 7.097 24.377 29.802 41.402 55.214 41.402 31.706 0 57.5-25.794 57.5-57.5s-25.794-57.5-57.5-57.5c-25.412 0-48.117 17.025-55.214 41.402-1.158 3.977 1.128 8.14 5.105 9.297 3.974 1.156 8.14-1.127 9.297-5.105 5.244-18.014 22.026-30.595 40.812-30.595 23.435 0 42.5 19.065 42.5 42.5s-19.066 42.502-42.5 42.502z"/></svg>