<svg id="Capa_1" enable-background="new 0 0 512 512" height="512" viewBox="0 0 512 512" width="512" xmlns="http://www.w3.org/2000/svg"><circle cx="256" cy="256" fill="#ff8870" r="248.5"/><ellipse cx="175.972" cy="117.015" fill="#f2f6fc" rx="23.515" ry="29.529" transform="matrix(.002 -1 1 .002 58.571 292.731)"/><ellipse cx="336.028" cy="117.365" fill="#f2f6fc" rx="23.515" ry="29.529" transform="matrix(.002 -1 1 .002 217.927 453.136)"/><path d="m193.465 107c-4.142 0-7.5-3.358-7.5-7.5v-12c0-4.142 3.358-7.5 7.5-7.5s7.5 3.358 7.5 7.5v12c0 4.142-3.358 7.5-7.5 7.5z"/><path d="m318.362 107c-4.142 0-7.5-3.358-7.5-7.5v-12c0-4.142 3.358-7.5 7.5-7.5s7.5 3.358 7.5 7.5v12c0 4.142-3.358 7.5-7.5 7.5z"/><path d="m285.007 99.155c-4.142 0-7.5 3.358-7.5 7.5 0 3.835-3.12 6.956-6.956 6.956s-6.956-3.12-6.956-6.956c0-4.142-3.358-7.5-7.5-7.5s-7.5 3.358-7.5 7.5c0 3.835-3.12 6.956-6.956 6.956s-6.956-3.12-6.956-6.956c0-4.142-3.358-7.5-7.5-7.5s-7.5 3.358-7.5 7.5c0 12.106 9.849 21.956 21.956 21.956 5.533 0 10.59-2.062 14.456-5.451 3.865 3.39 8.923 5.451 14.456 5.451 12.106 0 21.956-9.849 21.956-21.956 0-4.142-3.358-7.5-7.5-7.5z"/><path d="m336 424.5c-137.243 0-248.5-111.257-248.5-248.5 0-48.13 13.698-93.054 37.386-131.114-70.47 43.858-117.386 122.001-117.386 211.114 0 137.243 111.257 248.5 248.5 248.5 89.113 0 167.256-46.916 211.114-117.386-38.06 23.688-82.984 37.386-131.114 37.386z" fill="#ff6c52"/><path d="m490.281 173h-167.232c-11.046 0-20 8.954-20 20s-8.954 20-20 20h-86.667c-11.046 0-20 8.954-20 20s8.954 20 20 20h308.08c-.332-28.028-5.301-54.937-14.181-80z" fill="#ffe45c"/><path d="m328.383 353c0 11.046-8.954 20-20 20h-177.334c-11.046 0-20 8.954-20 20s8.954 20 20 20h64.667c11.046 0 20 8.954 20 20s8.954 20 20 20h171.746c39.237-30.212 69.189-71.878 84.858-120h-143.937c-11.046 0-20 8.954-20 20z" fill="#ffe45c"/><path d="m184.538 373h-53.489c-11.046 0-20 8.954-20 20s8.954 20 20 20h64.667c11.046 0 20 8.954 20 20s8.954 20 20 20h171.753c23.603-18.179 43.849-40.504 59.646-65.886-38.061 23.688-82.985 37.386-131.115 37.386-57.013 0-109.531-19.213-151.462-51.5z" fill="#ffda45"/><path d="m189.451 293h-179.206c2.05 13.734 5.233 27.097 9.435 40h169.771c11.046 0 20-8.954 20-20s-8.954-20-20-20z" fill="#ffe45c"/><path d="m19.68 333h123.705c-10.116-12.395-19.056-25.785-26.657-40h-106.483c2.051 13.734 5.233 27.097 9.435 40z" fill="#ffda45"/><path d="m121.551 213h-55.333c-11.046 0-20-8.954-20-20 0-11.046 8.954-20 20-20h55.333c11.046 0 20 8.954 20 20 0 11.046-8.954 20-20 20z" fill="#ffe45c"/><path d="m87.5 176c0-1.002.015-2.001.027-3h-21.309c-11.046 0-20 8.954-20 20s8.954 20 20 20h24.027c-1.802-12.073-2.745-24.426-2.745-37z" fill="#ffda45"/><path d="m437.02 74.98c-48.353-48.351-112.64-74.98-181.02-74.98s-132.667 26.629-181.02 74.98c-48.351 48.353-74.98 112.64-74.98 181.02s26.629 132.667 74.98 181.02c48.353 48.351 112.64 74.98 181.02 74.98s132.667-26.629 181.02-74.98c48.351-48.353 74.98-112.64 74.98-181.02s-26.629-132.667-74.98-181.02zm-406.717 265.52h34.429c4.142 0 7.5-3.358 7.5-7.5s-3.358-7.5-7.5-7.5h-39.501c-2.462-8.161-4.503-16.502-6.096-25h170.316c6.893 0 12.5 5.607 12.5 12.5s-5.607 12.5-12.5 12.5h-96.72c-4.142 0-7.5 3.358-7.5 7.5s3.358 7.5 7.5 7.5h96.719c15.164 0 27.5-12.336 27.5-27.5s-12.336-27.5-27.5-27.5h-172.642c-1.186-9.671-1.808-19.514-1.808-29.5 0-132.888 108.112-241 241-241 100.895 0 187.492 62.33 223.348 150.5h-156.299c-15.164 0-27.5 12.336-27.5 27.5 0 6.893-5.607 12.5-12.5 12.5h-86.667c-15.164 0-27.5 12.336-27.5 27.5s12.336 27.5 27.5 27.5h155.175c4.142 0 7.5-3.358 7.5-7.5s-3.358-7.5-7.5-7.5h-155.175c-6.893 0-12.5-5.607-12.5-12.5s5.607-12.5 12.5-12.5h86.667c15.164 0 27.5-12.336 27.5-27.5 0-6.893 5.607-12.5 12.5-12.5h161.824c6.809 20.588 10.91 42.394 11.884 65h-117.2c-4.142 0-7.5 3.358-7.5 7.5s3.358 7.5 7.5 7.5h117.386c-.415 22.552-3.944 44.355-10.174 65h-138.387c-15.164 0-27.5 12.336-27.5 27.5 0 6.893-5.607 12.5-12.5 12.5h-177.333c-15.164 0-27.5 12.336-27.5 27.5s12.336 27.5 27.5 27.5h64.667c6.893 0 12.5 5.607 12.5 12.5 0 15.164 12.336 27.5 27.5 27.5h147.654c-36.98 23.116-80.638 36.5-127.37 36.5-103.169 0-191.391-65.17-225.697-156.5zm374.437 105h-169.024c-6.893 0-12.5-5.607-12.5-12.5 0-15.164-12.336-27.5-27.5-27.5h-64.667c-6.893 0-12.5-5.607-12.5-12.5s5.607-12.5 12.5-12.5h177.333c15.164 0 27.5-12.336 27.5-27.5 0-6.893 5.607-12.5 12.5-12.5h133.314c-15.657 41.685-42.536 77.925-76.956 105z"/><path d="m121.551 165.5h-55.333c-15.164 0-27.5 12.336-27.5 27.5s12.336 27.5 27.5 27.5h55.333c15.164 0 27.5-12.336 27.5-27.5s-12.336-27.5-27.5-27.5zm0 40h-55.333c-6.893 0-12.5-5.607-12.5-12.5s5.607-12.5 12.5-12.5h55.333c6.893 0 12.5 5.607 12.5 12.5s-5.607 12.5-12.5 12.5z"/></svg>