      <svg version="1.1" id="Layer_1" xmlns="http://www.w3.org/2000/svg" xmlns:xlink="http://www.w3.org/1999/xlink" x="0px" y="0px"
	 viewBox="0 0 500 500" style="enable-background:new 0 0 500 500;" xml:space="preserve">
<style type="text/css">
	.st0{fill:#D4A377;}
	.st1{fill:#ED1C24;}
	.st2{fill:#FFFFFF;stroke:#CDCCCC;stroke-width:2;}
	.st3{fill:#60411E;}
	.st4{fill:#FFFFFF;}
	.st5{fill:#2FB44A;}
	.st6{fill:#1761A9;}
	.st7{fill:#F8EE4B;}
    .st8{fill:#ED1C24;}
</style>
<g id="XMLID_143_">
	<path id="XMLID_814_" class="st0" d="M373.4,250.5c-1.7-1.6-6.4-4.7-10.2-5.2c-0.5-5.8-3.2-11.4-9.5-12.6c-5.1-1-10.1,1.7-12.7,5.8
		c-4.6-3.2-13.2-0.7-18,1.6c-4.8,2.2-7.6,6-8.8,10.3c-5.6-0.7-11.5,0.4-16.9,3.7c-7.2-11.9-23.1-13.6-33.1-4.7
		c-3.6-7.9-13-12-21.2-9.6c5-10,2.4-22.7-6-30c3.4-5.4,5-11.8,4.3-18.2c-0.4-3.5-1.6-8.6-4.3-11.4c3.5-4.3,5.4-11.7,5.9-15.7
		c1-7.7-0.8-15.1-5-21.5c5.8-6.2,7.5-15.3,5.4-23.4c8-6,13.5-15.1,15.1-25.1c0.5-3.5,1.7-10.3-1.5-12.9c-3-2.4-9.4-0.2-12.7,0.6
		c-4.7,1.1-10.4,2.6-14.7,5.5c-1.1-1.5-2.3-2.9-3.9-4.1c-4.9-3.7-11.7-4.5-16.7-1.5c-3.9-7.6-11.7-13.2-20.8-12.8
		c-8.4,0.3-15.5,5.6-19.2,12.9c-5.6-7-14.8-11-23.9-8.9c-9.3,2.1-16,10.2-17.9,19.3c-0.6-0.6-1.3-1.2-2-1.8c-1-0.8-2.1-1.5-3.3-2.2
		c-4.3,8.1-10.1,15.6-17.1,21.5c-0.3,1.1-0.6,2.2-0.9,3.4c-0.2,0.6-0.5,1.1-0.8,1.5c0,0,0,0.1,0,0.1c1.3,1.5,2.7,2.5,4.3,3.2
		c-1.7,8.3,0,17.4,5.5,24.8c-7.9,8.5-6.6,23.6,2.5,30.7c-2.9,3.1-4.9,6.4-5.2,11.1c-0.2,3.1,0.5,6.3,1.7,9.2c0.8,1.8,1.7,3.4,2.8,5
		c1.6,2.3,1.1,3.2-0.6,5.4c-7.1,9.3-9.2,21.2-3.5,31.7c-2.1,4.1-4.4,7.6-4.9,12.4c-0.6,5.8,0.7,11.3,3.8,16.1
		c-1.3,1.3-3.3,2.4-4.3,3.8c-1.7,2.2-2.9,4.7-3.6,7.4c-0.7,2.9-0.9,5.9-0.3,8.9c1,4.7,4.7,7.4,1.2,12.2c-3.6,4.9-6.1,9.5-5.8,15.8
		c0.2,5.3,2.1,10.3,5.6,14.2c-9.1,11.5-7.3,29.1,3.9,38.7c-3.1,12.6,6.4,25.8,19.2,27.3c7.5,18.3,29.3,24.9,45.6,14.2
		c8.6,12.9,26.5,14.3,37.5,3.8c10.1,17.7,36,18.3,47,1c6.4,6.2,14.6,11.5,23.9,10.3c6.6-0.9,12.4-4.9,14.8-10.9
		c6,5,13.7,8.4,21.6,6.6c5.9-1.3,10.9-5.4,13.1-10.8c3.3,2.4,8,3,12,1.3c7.2-3.2,8.7-11.7,7.8-18.8c2.6-2.1,5.4-3.7,7.6-6.4
		c2.7-3.3,4.7-7.3,5.6-11.5c1.7-7.6,0.5-15.3-3.8-21.7c11.6-11.1,12.6-30.5,2.6-42.9c2.3-5.8,2.7-11.8,1.3-17.3
		c10.8-3.3,15.5-16.3,7.3-24.4C374.8,262.2,379.7,256.8,373.4,250.5z"/>
	<path id="XMLID_785_" class="st1" d="M111.8,76.8c0,0,19.4-54.4,58.9-46.2c56.2,11.7,93.8,32.4,92.1,57.8
		c-1.7,25.3-2.8,88.9-21.4,95.6c-18.6,6.7-5.8-63.6-11.9-70.4c-6.1-6.8-57.7-20.1-57.7-20.1L111.8,76.8z"/>
	<g id="XMLID_394_">
		<path id="XMLID_523_" class="st2" d="M223.6,127.2c0-8.7-6.2-15.7-13.9-15.7s-13.9,7-13.9,15.7c0,0.3,0,0.6,0,1
			c-6.6-4.4-15.2-7.1-24.4-7.1c-9.3,0-17.8,2.7-24.4,7.1c0-0.3,0-0.6,0-1c0-8.7-6.2-15.7-13.9-15.7s-13.9,7-13.9,15.7
			s6.2,15.7,13.9,15.7c0.6,0,1.2-0.1,1.7-0.1c-1.1,2.9-1.7,6-1.7,9.1c0,17,17.2,30.8,38.3,30.8c21.1,0,38.3-13.8,38.3-30.8
			c0-3.2-0.6-6.2-1.7-9.1c0.6,0.1,1.1,0.1,1.7,0.1C217.4,142.9,223.6,135.9,223.6,127.2z"/>
		<ellipse id="XMLID_546_" class="st2" cx="124.3" cy="152.3" rx="4.9" ry="4.5"/>
		<ellipse id="XMLID_612_" class="st2" cx="219.3" cy="152.3" rx="4.9" ry="4.5"/>
		<path id="XMLID_782_" class="st2" d="M168.8,98.9c20.6,0.5,44.5,12.9,55,16c10.5,3.1,18-15.5,19.6-27.7
			c1.7-12.2-20.3-21.2-52.2-26.9c-39.1-7-91,9.9-92.2,22.1l0,0c-6.8,14.3,1.9,31.5,8.5,26.8C114,104.4,120.2,97.6,168.8,98.9z"/>
		<path id="XMLID_783_" class="st2" d="M243.9,178.4c-9,0-21.3,4.8-21.3,13.3c0,8.5,8.7,15.4,17.7,15.4s16.3-6.9,16.3-15.4
			C256.7,183.2,253,178.4,243.9,178.4z"/>
	</g>
	<g id="XMLID_296_">
		<path id="XMLID_300_" class="st3" d="M329.1,404.7c-7,9.1-15.8,16.4-27.4,10.1c1.6,16.4,3.1,32.8,4.6,49.1
			c0.4,3.9,0.7,7.9,1.1,11.8c0.1,1.3,1,2.5,2.5,2.5h21.5c0.9,0,1.5-0.4,1.9-1c0.4-0.4,0.6-0.9,0.7-1.5c2.2-23.1,4.4-46.3,6.5-69.4
			C336.5,407.3,332.6,406.6,329.1,404.7z"/>
		<path id="XMLID_299_" class="st3" d="M140.2,406.7c-2.1-1-4-2.2-5.6-3.7c-0.4-0.1-0.9-0.3-1.3-0.7c-3.8-3.6-6-8.4-9.7-12
			c2.1,21.6,4.1,43.3,6.1,64.9c0.4,3.9,0.7,7.9,1.1,11.8c0.1,1.3,1,2.5,2.5,2.5h21.5c0.9,0,1.5-0.4,1.9-1c0.4-0.4,0.6-0.9,0.7-1.5
			c1.8-19.4,3.7-38.7,5.5-58.1C155.4,411.3,147.3,410.2,140.2,406.7z"/>
		<path id="XMLID_298_" class="st3" d="M209.9,411.6c-0.5-0.6-1-1.2-1.5-1.8c-0.3-0.4-0.7-0.8-1-1.1c-0.4,0.3-1.1,0.7-1.2,0.8
			c-0.9,0.6-1.7,1.3-2.6,1.9c-6.4,4.5-12.9,4.3-20.4,3.3c-0.4-0.1-0.8-0.2-1.1-0.4c1.6,16.6,3.1,33.1,4.6,49.7
			c0.4,3.9,0.7,7.9,1.1,11.8c0.1,1.3,1,2.5,2.5,2.5H212c1.1,0,1.8-0.6,2.2-1.3c0.2-0.3,0.3-0.7,0.4-1.2c1.8-18.7,3.5-37.4,5.3-56.1
			C216,417.8,212.7,414.8,209.9,411.6z"/>
		<path id="XMLID_297_" class="st3" d="M279.2,420.4c-8.1,0.5-16.3-3.6-22-9.1c1.4,14.6,2.8,29.3,4.1,43.9c0.4,3.9,0.7,7.9,1.1,11.8
			c0.1,1.3,1,2.5,2.5,2.5h21.5c0.9,0,1.5-0.4,1.9-1c0.4-0.4,0.6-0.9,0.7-1.5c1.8-18.7,3.6-37.4,5.3-56.1
			C290.1,415.4,286,420,279.2,420.4z"/>
	</g>
	<g id="XMLID_139_">
		<ellipse id="XMLID_142_" class="st3" cx="134.2" cy="128.3" rx="9.9" ry="10"/>
		<ellipse id="XMLID_141_" class="st3" cx="209.4" cy="128.3" rx="9.9" ry="10"/>
		<path id="XMLID_140_" class="st3" d="M180.5,158.1c-0.4,3-4,4.4-6.6,3.1c-3-1.5-3.7-5.4-3.4-8.5c0-0.2,0-0.4,0-0.5
			c2.1-1.7,4.9-4.5,4.9-6.4c0-3-3.1-5.5-7-5.5s-7,2.5-7,5.5c0,2,3,4.8,5,6.5c0,0.1,0,0.3,0,0.4c0.3,3.1-0.4,6.9-3.4,8.5
			c-2.6,1.4-6.2-0.1-6.6-3.1c-0.2-1.6-2.6-0.9-2.4,0.6c0.6,4,5.2,6.2,8.9,5.2c2.9-0.8,4.7-3.3,5.6-6c0.8,2.8,2.6,5.2,5.5,6
			c3.7,1.1,8.3-1.1,8.9-5.2C183.1,157.2,180.7,156.5,180.5,158.1z"/>
	</g>
	<g id="XMLID_136_">
		<path id="XMLID_138_" class="st4" d="M137.7,124.1c-3.3,0-3.3,5,0,5C140.9,129.1,140.9,124.1,137.7,124.1z"/>
		<path id="XMLID_137_" class="st4" d="M212,124.1c-3.2,0-3.2,5,0,5C215.2,129.1,215.2,124.1,212,124.1z"/>
	</g>
	<path id="XMLID_522_" class="st5" d="M122.4,268.9c1.1-0.6,2.2-0.9,3.4-0.9c1.2,0.1,2.3,0.5,3.3,1.2c0.3,0.2,0.6,0.5,0.9,0.7
		c3,2.7,5,7.6,4.8,11.4c-0.2,5.3-5.2,19.2-10.5,19c-0.8,0-1.7-0.4-2.4-1.1c-4-3.5-6.5-14.3-6.3-18.7
		C115.8,276.3,118.6,271,122.4,268.9z"/>
	<path id="XMLID_537_" class="st8" d="M167.4,255.6c1-0.8,2-1.3,3.2-1.4c1.2-0.1,2.3,0.1,3.5,0.6c0.4,0.2,0.7,0.3,1,0.6
		c3.4,2.1,6.2,6.7,6.6,10.4c0.6,5.3-1.9,19.8-7.2,20.5c-0.8,0.1-1.7-0.2-2.6-0.7c-4.5-2.8-8.8-13-9.3-17.4
		C162.1,263.9,164.1,258.2,167.4,255.6z"/>
	<path id="XMLID_539_" class="st8" d="M125.3,358.5c0.4-1.1,1.1-2.1,2-2.8c0.9-0.7,2.1-1.1,3.3-1.2c0.4,0,0.8-0.1,1.2,0
		c4,0.1,8.7,2.6,11,5.6c3.2,4.2,8.4,18,4.2,21.3c-0.7,0.5-1.5,0.7-2.6,0.7c-5.3-0.1-14.2-6.8-16.9-10.3
		C125,368.4,123.8,362.5,125.3,358.5z"/>
	<path id="XMLID_541_" class="st6" d="M165,324c0.4-1.2,1-2.2,1.9-2.9c0.9-0.8,2-1.2,3.2-1.4c0.4-0.1,0.8-0.1,1.2-0.1
		c4-0.1,8.8,2.2,11.2,5.1c3.4,4.1,9.3,17.6,5.2,21c-0.6,0.5-1.5,0.8-2.5,0.8c-5.3,0.1-14.5-6.1-17.4-9.5
		C165.2,333.9,163.6,328.1,165,324z"/>
	<path id="XMLID_543_" class="st7" d="M196,289.7c0.2-1.2,0.6-2.3,1.4-3.2c0.8-0.9,1.8-1.5,2.9-1.9c0.4-0.1,0.8-0.2,1.1-0.3
		c4-0.8,9,0.8,11.9,3.2c4,3.4,12,15.9,8.6,19.9c-0.5,0.6-1.4,1-2.4,1.2c-5.2,1-15.3-3.6-18.7-6.5C197.8,299.5,195.3,294,196,289.7z"
		/>
	<path id="XMLID_545_" class="st5" d="M225,250.7c0.2-1.2,0.6-2.3,1.4-3.2c0.8-0.9,1.8-1.5,2.9-1.9c0.4-0.1,0.8-0.2,1.1-0.3
		c4-0.8,9,0.8,11.9,3.2c4,3.4,12,15.9,8.6,19.9c-0.5,0.6-1.4,1-2.4,1.2c-5.2,1-15.3-3.6-18.7-6.5C226.8,260.5,224.3,255,225,250.7z"
		/>
	<g id="XMLID_1722_">
		<path id="XMLID_1723_" d="M235.2,208.2c-35.7,29.5-79.5,48.4-125.4,54.1c-3.1,0.4-3.2,5.4,0,5c4.3-0.5,8.5-1.2,12.7-1.9l-0.1,2.6
			c1.1-0.5,2.2-0.7,3.4-0.6c1.1,0.1,2.2,0.4,3.3,1l0.2-4.2c12.9-2.6,25.5-6.3,37.8-10.9l0.2,1.5c1-0.6,2.1-1.1,3.2-1.2
			c1.1-0.1,2.3,0,3.4,0.4l-0.4-3.2c21.7-8.8,42.1-20.7,60.6-35.3c-30.9,58.6-75.6,109.3-130,147.1c-2.6,1.8-0.1,6.1,2.5,4.3
			c5.4-3.8,10.8-7.7,16-11.7l2.1,2.7c0.5-1,1.2-2,2.2-2.7c0.9-0.7,2-1.2,3.1-1.4l-2.1-2.8c11.9-9.5,23.4-19.6,34.2-30.3l2.2,2.6
			c0.5-1.1,1.1-2,2-2.8c0.9-0.7,1.9-1.2,3.1-1.5l-2.6-3.1c9.1-9.2,17.7-18.9,25.9-28.9l2.5,2.2c0.3-1.1,0.8-2.2,1.6-3.1
			c0.7-0.9,1.7-1.5,2.8-2l-2.7-2.3c8.7-11,16.8-22.4,24.3-34.2l3.1,2.6c0.3-1.1,0.8-2.2,1.6-3.1c0.7-0.9,1.7-1.5,2.8-2l-3.7-3.2
			c0,0-0.1,0-0.2,0c5-8.1,9.7-16.4,14.2-24.9c1-1.9-0.6-3.6-2.2-3.7c0.6-0.5,1.3-1,1.9-1.6C241.2,209.7,237.6,206.2,235.2,208.2z"/>
		<path id="XMLID_1770_" d="M272.5,112.3c0.3-1.2,0.3-3.9,0.3-4.2c0.3,0,3.2-0.1,4.2-0.3c0.7-0.3,0.6-2.1-0.4-1.9
			c-1,0-2.5,0.3-3.8,0.3c0-0.7,0.2-13.7,0.2-13.7c1.2-0.2,5.3,0,6.9,0c0.9,0,1.2-2,0.1-2.1c-2,0-8.1-0.3-10.7,0.1
			c-1.3-0.1-1.6,2-1.6,2.2c-0.3,0.9-1,15,1.3,19.9C269.3,113.5,272.4,113.4,272.5,112.3z"/>
		<path id="XMLID_1776_" d="M280.5,108.1c0.3,0.1,0.4,0.1,0.7,0.1c0,0.9-0.1,3.2,0,4.3c0.1,1.2,2.4,0.9,2.3-0.3
			c0-0.3,0.3-3.2,0.3-4.4c1.8-0.1,4.1-0.2,6.3-0.5c0,0.5,0.1,2.8,0.2,3.8c0.3,1.9,5.3,1.8,5.3-0.2c0-0.5-0.2-3.3-0.2-3.8
			c0.3,0,1.5-0.2,2-0.6c0.6-0.3,0.4-1.2-0.2-1.5c-0.5-0.3-1.6-0.1-2.1-0.1c0-0.3-0.2-8.7-3.4-12.9c-2-2.5-5.5-2.1-7.1,0.1
			c-0.4,0.6-3.2,4-3.5,13.9c-0.3,0-0.5,0-0.8,0.3C279.9,106.6,280,107.8,280.5,108.1z M286.6,94.6c0.3-0.3,0.9-1.6,1.6,0.2
			c0.7,2.2,0.9,3.8,1.6,10.3c-2,0.3-3.7,0.2-5.6,0.5C284.4,98.6,286.3,95.2,286.6,94.6z"/>
		<path id="XMLID_1777_" d="M300.2,104.6c1.1,0,7.8,0,9.2,0.1c1.3,0,1.5-3.8-0.1-3.8c-0.9,0-7.1-0.1-9.1,0
			C298.9,101,298.8,104.5,300.2,104.6z"/>
		<path id="XMLID_1778_" d="M318.1,113.1c2.5-0.3,5.9-1.1,8.6-1.6c0.7-0.1,0.4-2.2-0.5-2c-0.6,0.1-8.1,1.9-8.7,1.8
			c-0.2-0.3,1.6-19.1,1.3-19.7c0.1-1.7-4.1-1.8-4.4-0.3c-0.2,0.6-2,13.6-0.4,19.6C314.5,112.1,315.1,113.5,318.1,113.1z"/>
		<path id="XMLID_1781_" d="M329.7,108.1c0.3,0.1,0.4,0.1,0.7,0.1c0,0.9-0.1,3.2,0,4.3c0.1,1.2,2.4,0.9,2.3-0.3
			c0-0.3,0.3-3.2,0.3-4.4c1.8-0.1,4.1-0.2,6.3-0.5c0,0.5,0.1,2.8,0.2,3.8c0.3,1.9,5.3,1.8,5.3-0.2c0-0.5-0.2-3.3-0.2-3.8
			c0.3,0,1.5-0.2,2-0.6c0.6-0.3,0.4-1.2-0.2-1.5c-0.5-0.3-1.6-0.1-2.1-0.1c0-0.3-0.2-8.7-3.4-12.9c-2-2.5-5.5-2.1-7.1,0.1
			c-0.4,0.6-3.2,4-3.5,13.9c-0.3,0-0.5,0-0.8,0.3C329.1,106.6,329.2,107.8,329.7,108.1z M335.8,94.6c0.3-0.3,0.9-1.6,1.6,0.2
			c0.7,2.2,0.9,3.8,1.6,10.3c-2,0.3-3.7,0.2-5.6,0.5C333.6,98.6,335.5,95.2,335.8,94.6z"/>
		<path id="XMLID_1782_" d="M349.3,104.6c1.1,0,7.8,0,9.2,0.1c1.3,0,1.5-3.8-0.1-3.8c-0.9,0-7.1-0.1-9.1,0
			C348.1,101,348,104.5,349.3,104.6z"/>
		<path id="XMLID_1783_" d="M367.2,113.1c2.5-0.3,5.9-1.1,8.6-1.6c0.7-0.1,0.4-2.2-0.5-2c-0.6,0.1-8.1,1.9-8.7,1.8
			c-0.2-0.3,1.6-19.1,1.3-19.7c0.1-1.7-4.1-1.8-4.4-0.3c-0.2,0.6-2,13.6-0.4,19.6C363.7,112.1,364.3,113.5,367.2,113.1z"/>
		<path id="XMLID_1786_" d="M381.9,112.2c0-0.3,0.3-3.2,0.3-4.4c1.8-0.1,4.1-0.2,6.3-0.5c0,0.5,0.1,2.8,0.2,3.8
			c0.3,1.9,5.3,1.8,5.3-0.2c0-0.5-0.2-3.3-0.2-3.8c0.3,0,1.5-0.2,2-0.6c0.6-0.3,0.4-1.2-0.2-1.5c-0.5-0.3-1.6-0.1-2.1-0.1
			c0-0.3-0.2-8.7-3.4-12.9c-2-2.5-5.5-2.1-7.1,0.1c-0.4,0.6-3.2,4-3.5,13.9c-0.3,0-0.5,0-0.8,0.3c-0.5,0.3-0.4,1.5,0.1,1.7
			c0.3,0.1,0.4,0.1,0.7,0.1c0,0.9-0.1,3.2,0,4.3C379.6,113.6,381.9,113.3,381.9,112.2z M385,94.6c0.3-0.3,0.9-1.6,1.6,0.2
			c0.7,2.2,0.9,3.8,1.6,10.3c-2,0.3-3.7,0.2-5.6,0.5C382.8,98.6,384.7,95.2,385,94.6z"/>
		<path id="XMLID_1787_" d="M295.8,136.2c0.1-1.7-4.1-1.8-4.4-0.3c-0.2,0.6-2,13.6-0.4,19.6c0.5,1.2,1.1,2.6,4,2.2
			c2.5-0.3,5.9-1.1,8.6-1.6c0.7-0.1,0.4-2.2-0.5-2c-0.6,0.1-8.1,1.9-8.7,1.8C294.3,155.6,296.1,136.8,295.8,136.2z"/>
		<path id="XMLID_1790_" d="M306.6,150.9c-0.5,0.3-0.4,1.5,0.1,1.7c0.3,0.1,0.4,0.1,0.7,0.1c0,0.9-0.1,3.2,0,4.3
			c0.1,1.2,2.4,0.9,2.3-0.3c0-0.3,0.3-3.2,0.3-4.4c1.8-0.1,4.1-0.2,6.3-0.5c0,0.5,0.1,2.8,0.2,3.8c0.3,1.9,5.3,1.8,5.3-0.2
			c0-0.5-0.2-3.3-0.2-3.8c0.3,0,1.5-0.2,2-0.6c0.6-0.3,0.4-1.2-0.2-1.5c-0.5-0.3-1.6-0.1-2.1-0.1c0-0.3-0.2-8.7-3.4-12.9
			c-2-2.5-5.5-2.1-7.1,0.1c-0.4,0.6-3.2,4-3.5,13.9C307.2,150.6,306.9,150.6,306.6,150.9z M312.8,139.2c0.3-0.3,0.9-1.6,1.6,0.2
			c0.7,2.2,0.9,3.8,1.6,10.3c-2,0.3-3.7,0.2-5.6,0.5C310.7,143.2,312.5,139.7,312.8,139.2z"/>
		<path id="XMLID_1791_" d="M326.4,149.2c1.1,0,7.8,0,9.2,0.1c1.3,0,1.5-3.8-0.1-3.8c-0.9,0-7.1-0.1-9.1,0
			C325.1,145.5,325,149.1,326.4,149.2z"/>
		<path id="XMLID_1792_" d="M352.9,156c0.7-0.1,0.4-2.2-0.5-2c-0.6,0.1-8.1,1.9-8.7,1.8c-0.2-0.3,1.6-19.1,1.3-19.7
			c0.1-1.7-4.1-1.8-4.4-0.3c-0.2,0.6-2,13.6-0.4,19.6c0.5,1.2,1.1,2.6,4,2.2C346.8,157.4,350.2,156.6,352.9,156z"/>
		<path id="XMLID_1795_" d="M355.8,150.9c-0.5,0.3-0.4,1.5,0.1,1.7c0.3,0.1,0.4,0.1,0.7,0.1c0,0.9-0.1,3.2,0,4.3
			c0.1,1.2,2.4,0.9,2.3-0.3c0-0.3,0.3-3.2,0.3-4.4c1.8-0.1,4.1-0.2,6.3-0.5c0,0.5,0.1,2.8,0.2,3.8c0.3,1.9,5.3,1.8,5.3-0.2
			c0-0.5-0.2-3.3-0.2-3.8c0.3,0,1.5-0.2,2-0.6c0.6-0.3,0.4-1.2-0.2-1.5c-0.5-0.3-1.6-0.1-2.1-0.1c0-0.3-0.2-8.7-3.4-12.9
			c-2-2.5-5.5-2.1-7.1,0.1c-0.4,0.6-3.2,4-3.5,13.9C356.3,150.6,356.1,150.6,355.8,150.9z M362,139.2c0.3-0.3,0.9-1.6,1.6,0.2
			c0.7,2.2,0.9,3.8,1.6,10.3c-2,0.3-3.7,0.2-5.6,0.5C359.8,143.2,361.7,139.7,362,139.2z"/>
		<path id="XMLID_1796_" d="M283.6,216.2c-0.9,0.2-12.6,3.8-13.7,3.5c-0.3-0.6,2.5-37,2.1-38.3c0.2-3.3-6.5-3.5-6.9-0.6
			c-0.3,1.2-3.2,26.4-0.6,38.2c0.8,2.3,1.7,5,6.3,4.2c4-0.5,9.3-2.2,13.5-3.2C285.4,219.7,285,215.8,283.6,216.2z"/>
		<path id="XMLID_1797_" d="M309.1,216.2c-0.9,0.2-12.6,3.8-13.7,3.5c-0.3-0.6,2.5-37,2.1-38.3c0.2-3.3-6.5-3.5-6.9-0.6
			c-0.3,1.2-3.2,26.4-0.6,38.2c0.8,2.3,1.7,5,6.3,4.2c4-0.5,9.3-2.2,13.5-3.2C310.9,219.7,310.5,215.8,309.1,216.2z"/>
		<path id="XMLID_1800_" d="M340.9,207.5c-0.8-0.5-2.4-0.2-3.3-0.2c0-0.5-0.3-17-5.4-25.1c-3.1-4.9-8.7-4-11.1,0.3
			c-0.6,1.2-5,7.8-5.5,27c-0.4,0-0.8,0-1.2,0.5c-0.8,0.5-0.7,2.9,0.1,3.4c0.4,0.1,0.7,0.2,1.1,0.2c0,1.8-0.2,6.2-0.1,8.3
			c0.1,2.2,3.7,1.7,3.7-0.5c0-0.5,0.5-6.3,0.5-8.6c2.9-0.3,6.4-0.4,9.8-0.9c0,1,0.1,5.4,0.3,7.4c0.5,3.7,8.4,3.5,8.3-0.4
			c0-1-0.3-6.4-0.3-7.4c0.4,0,2.3-0.4,3.2-1.1C342.1,209.7,341.8,208.1,340.9,207.5z M320.2,208.6c0.5-13.6,3.5-20.3,3.9-21.3
			c0.4-0.5,1.5-3.1,2.5,0.4c1,4.3,1.3,7.4,2.4,19.9C326,208.2,323.3,208.1,320.2,208.6z"/>
		<path id="XMLID_1801_" d="M365.3,180.8c-0.7,3.4-5.3,20.3-5.7,20.8c-1-2-7.2-18.7-8.6-21.3c-1-2.1-6.7-2.2-7,1.7
			c-1.2,14.2,0.5,37.3,0.9,40.2c0.3,1.6,5,1.5,4.7-0.6c-0.4-2.3-1.9-25.5-1.7-32.1c0.4,0.5,7.6,20.1,8.5,22c1.4,1.9,7.3,0.2,6.5-2.8
			c-0.1-1.1,4.3-20.1,4.7-21.1c0,1,3.3,31.9,3.7,34.4c0.3,1.8,5.1,2.2,5.3-0.7c0-3.5-1.8-35.9-2.9-39.4
			C372.8,178.5,366,177.4,365.3,180.8z"/>
		<path id="XMLID_1804_" d="M408,207.5c-0.8-0.5-2.4-0.2-3.3-0.2c0-0.5-0.3-17-5.4-25.1c-3.1-4.9-8.7-4-11.1,0.3
			c-0.6,1.2-5,7.8-5.5,27c-0.4,0-0.8,0-1.2,0.5c-0.8,0.5-0.7,2.9,0.1,3.4c0.4,0.1,0.7,0.2,1.1,0.2c0,1.8-0.2,6.2-0.1,8.3
			c0.1,2.2,3.7,1.7,3.7-0.5c0-0.5,0.5-6.3,0.5-8.6c2.9-0.3,6.4-0.4,9.8-0.9c0,1,0.1,5.4,0.3,7.4c0.5,3.7,8.4,3.5,8.3-0.4
			c0-1-0.3-6.4-0.3-7.4c0.4,0,2.3-0.4,3.2-1.1C409.2,209.7,408.9,208.1,408,207.5z M387.3,208.6c0.5-13.6,3.5-20.3,3.9-21.3
			c0.4-0.5,1.5-3.1,2.5,0.4c1,4.3,1.3,7.4,2.4,19.9C393.1,208.2,390.4,208.1,387.3,208.6z"/>
	</g>
</g>
</svg>