<?xml version="1.0" encoding="utf-8"?>
<!-- Generator: Adobe Illustrator 20.1.0, SVG Export Plug-In . SVG Version: 6.00 Build 0)  -->
<svg version="1.1" id="Calque_1" xmlns="http://www.w3.org/2000/svg" xmlns:xlink="http://www.w3.org/1999/xlink" x="0px" y="0px"
	 viewBox="0 0 432 432" style="enable-background:new 0 0 432 432;" xml:space="preserve">
<style type="text/css">
	.st0{fill:#E30613;}
	.st1{fill:#CB9A3E;}
	.st2{fill:#008D36;}
	.st3{fill:#D31C17;}
	.st4{fill:#E3E2E2;}
	.st5{fill:none;}
	.st6{fill:#3AAA35;}
	.st7{fill:#C9973C;}
	.st8{fill:#CC7B26;}
	.st9{fill:#432918;}
	.st10{fill:#936037;}
	.st11{fill:#B17F4A;}
	.st12{fill:#FFFFFF;}
	.st13{fill:#E7323B;}
	.st14{fill:#382C23;}
	.st15{fill:#020203;}
	.st16{fill:#F8AC14;}
	.st17{fill-rule:evenodd;clip-rule:evenodd;fill:#F8AC14;}
	.st18{fill-rule:evenodd;clip-rule:evenodd;fill:#CB9A3E;}
	.st19{fill-rule:evenodd;clip-rule:evenodd;fill:#C9973C;}
	.st20{fill:#D82116;}
	.st21{fill:#CF7913;}
	.st22{fill:#BDBABA;}
	.st23{fill:#13110C;}
	.st24{fill-rule:evenodd;clip-rule:evenodd;}
	.st25{fill-rule:evenodd;clip-rule:evenodd;fill:#008D36;}
	.st26{fill:#36A9E1;}
	.st27{fill:#E8E8E8;}
	.st28{fill:#030304;}
	.st29{fill:#ED6F2D;}
	.st30{fill:#2D8535;}
	.st31{fill:#442A19;}
</style>
<g>
	<g>
		<path class="st1" d="M67.7,134.8c-3.9,13.6,7.6,24.5,8,36.9c0.8,31.9-20.3,18.1-5.7,2.2c2.4-3.4-0.7-4-2.1-2.1
			c-19.4,26.7,18.2,31,16,1.4c-1.5-15.3-10.1-24.5-9.9-36.2c0.1-7.9,13.8-16.1,8.2,1.3c-0.7,2.1,0.3,4.2,2.3,1
			C92.4,123.2,72.2,119.1,67.7,134.8z"/>
		<path class="st1" d="M284.4,153.5c-6.5,22.1-18.2,41.5-22.8,43.3c-7-0.4,13.3-52.7-1.2-57.9c-9.1-3.3-19.2,27.1-22.1,32.7
			c-0.2-1.2,4.3-30.4,4.4-31c0.3-6.2-7.9-6.2-9.3-1.9c-0.5,2.4-1.3,8.3-2,15.3c-2.3,1.9-6.1,2.9-8.8,2.7c0.3-8-1.9-15.4-6.8-16.7
			c-8-2-14.5,4.8-17.2,13.1c-4.4,3.2-13,10.3-21.1,18.6c-0.8-3.4-1.8-6.6-2.7-9.5c-3.2-9.5-6.6-20.4-4-26.9c4.5-9.6,8.9-3.8,3.6,2.3
			c-1,1.7,0.8,4,2.4,1.9c8.9-10.9-3.4-18.6-9.7-8.8c-4.3,6.2-4.8,16.9-4,25.3c-5.7,11-13.2,34-19.4,37.7c-6.3,3.8,5.1-40,6.4-46
			c0-4.3-5.6-8.8-8.3-3.2c-14.8-5.9-23.9,6.9-24.6,18.8c-6.1,12.4-12.4,19.5-16.5,18.9c-4.9-0.6-4-11.8-4-22.1
			c9.3-2.6,14.7-20.8,5.1-21c-18-0.2-20.1,44.9-1.6,45.6c4.7,0.2,11.2-5.8,17.2-16.8c0.6,5,2.9,9.2,7,11.2
			c3.3,1.6,11.9-16.6,16.4-26.9c-4.8,12.1-8,41.5,0.7,44.9c7,2.8,16.2-21.9,22.4-35.9c0.2,1,0.3,2,0.5,2.9c1,4.9,3.1,10.8,4.8,16.7
			c-5.8,7.1-10.3,14.1-10.7,19.6c-0.9,11.2,12.1,11.8,18.8,1c4.1-6.6,3.2-17.1,1-26.9c6.4-6.7,14-13.4,19.5-17.5
			c-1.5,8.6,1.2,17.7,10.3,20c8.7,2.2,13.6-8,14.5-18.2c2.9,0.1,6-0.5,8.7-2.2c-0.6,6.6-1,13.8-0.9,19.6c0.1,2.5,5.1,8,7.8,3.4
			c11.2-29.6,17.8-37.5,19.1-38.2c3.1-1.6,3.4,3.3,3,5.4c-3.3,15.9-14.1,53.1,0.5,53.1c7.6,0,20.6-28,26-46.3
			C287.2,151.7,284.8,152.2,284.4,153.5z M104.2,142.6c1,1.7-1.8,13.2-7.5,15.2C97,151.3,102.5,139.7,104.2,142.6z M124.3,171.6
			c0.8-7,8.1-28.9,15.8-24.4C137.3,154.2,122.6,187,124.3,171.6z M171.7,198.8c-2.1,13-11.9,8.6-10.8,1.6c0.8-4.5,4.2-10.4,9-16.5
			C171.5,189.2,172.4,194.5,171.7,198.8z M210.7,174.1c-4.9-0.5-4.5-14.9-1.1-23.9c1.9,4.5,6,7.3,10.2,8.3
			C218.9,166.3,215.6,174.4,210.7,174.1z M220.1,156.1c-3.9-1.2-7.5-4.5-9-9c1.4-2.5,3-4,4.9-4C219.3,143.3,220.5,149.3,220.1,156.1
			z"/>
		<path class="st1" d="M291.3,131.3c-1.9-3.2-6.2,2.2-1.7,3c0,0.7-1.3,2.4-2,2.9c-0.3,1.1,0.1,1.2,0.6,1
			C289.2,137.7,293.1,134.2,291.3,131.3z"/>
		<path class="st1" d="M332.8,150.6c-3.3,2.1-13.4,10.1-23,19.8c-0.8-3.4-1.9-6.6-2.7-9.5c-3.2-9.5-6.6-20.4-4-26.9
			c4.5-9.6,8.9-3.8,3.6,2.3c-1,1.7,0.8,4,2.4,1.9c8.9-10.9-3.4-18.6-9.7-8.8c-6,8.6-4.5,25.5-2.9,33.5c1,4.9,3.1,10.8,4.8,16.7
			c-5.8,7.1-10.3,14.1-10.7,19.6c-0.9,11.2,12.1,11.8,18.8,1c4.1-6.6,3.2-17.1,1-26.9c8-8.4,18-16.7,23.2-20.2
			C335.4,151.6,333.4,150.2,332.8,150.6z M304,197.6c-2.1,13-11.9,8.6-10.8,1.6c0.8-4.5,4.2-10.4,9-16.5
			C303.7,188.1,304.6,193.3,304,197.6z"/>
	</g>
	<path class="st2" d="M74.6,235.9c-5.4,1.4-4.5,6.5,0.6,2.7c0.8-0.5,5.1,24-1.6,24.7c-15.6,1.7-15.1-58.5,3.5-61.1
		c4.5-0.6,6.1,4,6.1,11.1c1.2,1.5,4,1.9,3.6-0.8c-1.2-8-3.4-13.5-11.5-12.7c-24.9,2.5-22.8,42.6-19.1,55.2
		c3.6,12.2,12.3,12.5,19.1,11.2C89.2,262.7,88.2,232.3,74.6,235.9z"/>
	<path class="st2" d="M374.2,231.7c-3.3,2.1-13.4,10.1-23,19.8c-0.8-3.4-1.9-6.6-2.7-9.5c-3.2-9.5-6.6-20.4-4-26.9
		c4.5-9.6,8.9-3.8,3.6,2.3c-1,1.7,0.8,4,2.4,1.9c8.9-10.9-3.4-18.6-9.7-8.8c-4.1,5.9-4.7,15.8-4.1,24c-5.3,3.7-12.8,9.6-15.6,11.9
		c1-9.5,1.2-17.8,0.9-22c-0.6-6.7-6.9-6.6-8.1-3.5l-0.4,1c-5.7-1.1-18.8,1.9-21.7,15.1c-0.4,1.8-0.5,3.6-0.3,5.2
		c-6.6,18.2-15.9,32.8-19.8,34.4c-7-0.4,13.3-52.7-1.2-57.9c-9.1-3.3-19.2,27.1-22.1,32.7c-0.2-1.2,4.3-30.4,4.4-31
		c0.3-6.2-7.9-6.2-9.3-1.9c-0.6,2.7-1.5,10.1-2.3,18.4c-6.9,16.3-13.3,24.2-18.4,25.5c-1.7,0.4,0.6-21.2,3.2-35.9
		c0.4-4.1-6.9-3.7-8.2-1.2c0,0.1-1.6,7.6-2.3,16c-6.8,21-14.7,40.6-19.5,36.8c-2.8-2.3,0.5-52.5,5-74.8c1-0.1,10.3-0.5,11.8-1.1
		c1.9-0.8,1-2.1,0.7-2.5c-3.8,0.2-7.2,0.5-12,0.7c0.8-4.4,1.4-7,2.6-13.7c1.1-5.8-5.3-4.2-6.6-2c-1.3,1.4-2.6,10.2-4.3,17.1
		l-8.5,0.5c-1.2,1.1-1.3,2.1-0.1,2.7l8.1-0.5c-0.4,2.2-3.1,15.9-4.7,31.2c-7,16.9-15,27-19.9,26.3c-4.9-0.6-4-11.8-4-22.1
		c9.3-2.6,14.7-20.8,5.1-21c-8.4-0.1-13.4,9.7-14.4,20.3c-6.6,14.7-13.8,23.3-18.3,22.7c-4.9-0.6-4-11.8-4-22.1
		c9.3-2.6,14.7-20.8,5.1-21c-8.2-0.1-13,9.1-14.2,19.2c-6.1,14.9-17.8,38.6-23.5,39.2c-4.6,0.4,6.1-29,7.5-34.9
		c-1.5-2-10.8-6.3-14.1-9.8c2-6.4,0.6-15.5-5.5-14.1c-8.9,2.1,0.6,18.7,10.6,23.6c-2.3,5.9-14.9,38.2,1.2,37.4
		c7-0.3,16.6-18.9,23.4-34.6c0.5,10,4.6,19.2,12.8,19.5c5.1,0.2,12.3-6.8,18.8-19.8c0.4,10.1,4.5,19.4,12.8,19.8
		c5.4,0.2,13-7.6,19.8-21.8c-1.4,17.5-0.9,35,6.4,38.2c7.8,3.5,14.5-9.5,21.5-30.4c0.2,7.6,2,14,7.1,14c5.4,0,11.9-6.8,18.4-21.1
		c-0.3,4.4-0.4,8.7-0.4,12.4c0.1,2.5,5.1,8,7.8,3.4c11.2-29.6,17.8-37.5,19.1-38.2c3.1-1.6,3.4,3.3,3,5.4
		c-3.3,15.9-14.1,53.1,0.5,53.1c6,0,15.3-17.2,21.6-33.5c3.2,8.3,13.6,9.6,21.5-20.2c0.5,7.1-0.1,16.1-1.8,27
		c-7.3,7.7-12.6,13.8-16,20.8c-7.7,15.2-2.1,23.6,8.4,19.5c8.9-3.6,14.1-25.2,16.3-43.7c3.2-2.8,10.4-8.5,16.2-12.5
		c0.3,2.6,0.6,5,1,6.9c1,4.9,3.1,10.8,4.8,16.7c-5.8,7.1-10.3,14.1-10.7,19.6c-0.9,11.2,12.1,11.8,18.8,1c4.1-6.6,3.2-17.1,1-26.9
		c8-8.4,18-16.7,23.2-20.2C376.9,232.7,374.9,231.3,374.2,231.7z M171.8,222.5c1,1.7-1.8,13.2-7.5,15.2
		C164.6,231.2,170.1,219.6,171.8,222.5z M140.2,222.5c1,1.7-1.8,13.2-7.5,15.2C133,231.2,138.5,219.6,140.2,222.5z M90.8,230.4
		c-0.2,0.5-2.7-5.1-2.9-6C87.1,220,93.1,220.8,90.8,230.4z M299.8,248c-2.1-1.1,3.8-24.4,13-23.9C309,233.8,302.6,249.6,299.8,248z
		 M303.4,287.5c-5.5,10.5-12.6,2.1-5.5-11.9c2.5-4.9,7.1-13,13.6-19.3C311.2,269.3,306.9,280.8,303.4,287.5z M345.4,278.7
		c-2.1,13-11.9,8.6-10.8,1.6c0.8-4.5,4.3-10.4,9-16.5C345.2,269.1,346,274.3,345.4,278.7z"/>
	<g>
		<path class="st20" d="M357.1,193.4c-0.9-1.4-2.8-4.2-4.2-1.7c-1.7,4.4,1.6,8.7,4.3,11.8c0,0.1,0.8,0.8,0.9,0.4
			C358.7,200.1,359.1,196.8,357.1,193.4z"/>
		<path class="st20" d="M365,180.7c-0.2,0.5-0.2,1.1-0.1,1.6c0.2,1.1,0.9,1.9,1.9,2.3c1.2,0.5,2.5,0.7,3.7,0.7
			c1.4,0,2.8-0.1,4.1-0.3c1-0.2,2.1-0.4,3.1-0.6c0.7-0.2-0.1-1.2-0.4-1.4c-0.7-0.5-1.4-1-2.2-1.4c-1.3-0.8-2.7-1.5-4.1-2
			c-1.2-0.5-2.7-0.9-4-0.6c-0.5,0.1-1.1,0.3-1.4,0.8C365.3,180,365.1,180.4,365,180.7z"/>
		<path class="st20" d="M362,156.6c-2.2,2.1-8.8,10.3-3,12.1c4.7,1.5,5.4-9.3,5.5-12.1c0-0.4-0.8-1.6-1.2-1.1
			C362.8,155.8,362.4,156.2,362,156.6z"/>
		<path class="st20" d="M335.6,162.7c0.2,0.6,0.5,1.3,0.8,1.9c0.4,0.9,0.8,1.7,1.3,2.5c0.5,0.9,1.1,1.8,1.7,2.6
			c0.6,0.8,1.2,1.5,1.9,2.1c0.6,0.5,1.3,0.9,2,1c0.5,0.1,1.1,0,1.5-0.3c0.2-0.1,0.4-0.3,0.6-0.4c0.2-0.2,0.3-0.5,0.5-0.7
			c0.1-0.2,0.2-0.4,0.3-0.6c0.1-0.2,0.1-0.5,0.1-0.7c0-0.4,0-0.9-0.2-1.3c-0.3-1-1.1-1.8-1.8-2.4c-0.9-0.8-1.9-1.4-3-2
			c-1-0.6-2.1-1-3.2-1.5c-0.8-0.3-1.5-0.6-2.3-0.8C335.4,162,335.5,162.5,335.6,162.7z"/>
		<path class="st20" d="M338.1,190.9c6.4-3.3,2.6-9.2-4-4.8C326.6,191,331.7,194.2,338.1,190.9z"/>
		<path class="st20" d="M347.5,196.8c0.1-0.1,0.2-0.1,0.2-0.2c0,0,0,0,0,0c2.4-1.9,5.1-4.3,5.5-7.5c0.3-2.1-0.5-5.2-2.7-6.1
			c-2.5-1-4.9,1.7-5.9,3.6c-1.9,3.3-1.3,7.4-0.8,11.1c0.1,0.4,0.8,1.3,1.2,1C345.9,198.1,346.7,197.5,347.5,196.8
			C347.5,196.8,347.5,196.8,347.5,196.8z"/>
		<path class="st20" d="M362.7,183.4c-0.3-0.4-0.6-0.7-0.9-1.1c-0.8-0.8-1.8-1.6-3-1.7c-0.5-0.1-1.1,0-1.6,0.2
			c-0.3,0.1-0.6,0.2-0.8,0.4c-0.1,0.1-0.3,0.2-0.4,0.3c-0.3,0.2-0.5,0.4-0.7,0.7c-0.2,0.3-0.5,0.5-0.7,0.8c-0.5,0.8-0.8,1.8-0.7,2.8
			c0.1,0.9,0.6,1.8,1.2,2.5c0.7,0.8,1.6,1.5,2.5,2.1c1,0.6,2.1,1.2,3.2,1.6c1.1,0.4,2.1,0.8,3.2,1.2c0.9,0.3,1.8,0.5,2.7,0.7
			c0.2,0,0.3,0,0.3-0.2C366.2,190,364.9,186.3,362.7,183.4z"/>
		<path class="st20" d="M359.1,170.9c-3.3,2.1-4.4,6.6,0.1,8.5c5.4,2.3,9.4-4.5,11.6-8.3c0.2-0.4-0.7-1.4-1.1-1.4
			c-3.1-0.4-6-0.8-8.8,0.2C360.5,170.2,359.6,170.6,359.1,170.9z"/>
		<path class="st20" d="M349.9,174.8c0.2,0.2,0.3,0.3,0.5,0.4c0.3,0.2,0.6,0.5,1,0.6c0.5,0.2,1.1,0.2,1.6,0.1c0.6-0.2,1.1-0.6,1.6-1
			c0.9-1.1,1.4-2.6,1.6-4c0.5-4.3-2.5-8.2-5-11.3c0-0.1-0.7-0.7-0.8-0.5c-0.7,1.3-1.3,2.6-1.8,4c-0.5,1.4-1,2.9-1.2,4.4
			c-0.2,1.4-0.1,2.9,0.4,4.3c0.2,0.7,0.6,1.3,1,1.9c0.3,0.4,0.6,0.7,0.9,1C349.8,174.7,349.8,174.7,349.9,174.8z"/>
		<path class="st20" d="M349.3,180.6c0.1-0.2,0.1-0.3,0.2-0.5c0.1-0.2,0.1-0.5,0.1-0.7c0.1-0.7,0.1-1.4,0-2c-0.1-0.8-0.5-1.6-1-2.2
			c-0.5-0.6-1.3-0.9-2-1.1c-0.9-0.2-1.8-0.3-2.7-0.3c-1,0-2,0.2-3,0.4c-1,0.2-2,0.5-3,0.8c-0.9,0.3-1.8,0.6-2.7,1
			c-0.6,0.3-1.2,0.5-1.8,0.8c-0.4,0.2,0.1,1,0.3,1.2c0.7,0.7,1.5,1.3,2.3,1.8c1,0.7,2,1.3,3,1.9c1.1,0.6,2.2,1.1,3.3,1.4
			c1,0.3,2.1,0.5,3.1,0.5c0.9-0.1,1.8-0.4,2.5-1c0.4-0.4,0.7-0.8,0.9-1.2C349.1,181,349.2,180.8,349.3,180.6z"/>
		<path class="st20" d="M350.8,180.4c0.6,1.4,2.4,2.3,3.8,1.4c1.1-0.7,1.2-2.2,0.7-3.3c-0.3-0.6-0.7-1.2-1.3-1.5
			c-0.3-0.2-0.6-0.3-0.9-0.3c-0.4,0-0.7,0.1-1.1,0.2c-0.6,0.2-1.1,0.9-1.3,1.5C350.5,179.1,350.5,179.8,350.8,180.4z"/>
	</g>
	<g>
		<path class="st0" d="M198.4,132.2c-0.2-0.9-0.6-2.8-1.8-1.8c-1.9,1.9-1,4.9-0.2,7.2c0,0,0.3,0.6,0.4,0.4
			C197.9,136.1,198.8,134.4,198.4,132.2z"/>
		<path class="st0" d="M205.3,127.2c-0.2,0.2-0.3,0.5-0.4,0.8c-0.1,0.6,0.1,1.2,0.5,1.6c0.5,0.5,1.2,0.9,1.8,1.2
			c0.7,0.3,1.5,0.5,2.3,0.7c0.6,0.1,1.2,0.3,1.8,0.3c0.4,0.1,0.2-0.7,0.1-0.8c-0.3-0.4-0.6-0.8-0.9-1.2c-0.5-0.7-1.1-1.4-1.8-2
			c-0.6-0.5-1.2-1-2-1.2c-0.3-0.1-0.6,0-0.9,0.1C205.6,126.9,205.4,127,205.3,127.2z"/>
		<path class="st0" d="M208.8,113.8c-1.6,0.7-6.8,3.6-4.2,5.8c2.2,1.8,4.8-3.8,5.5-5.2c0.1-0.2-0.1-1-0.4-0.9
			C209.4,113.5,209.1,113.6,208.8,113.8z"/>
		<path class="st0" d="M193.6,111.4c0,0.4,0,0.8,0,1.2c0,0.5,0.1,1.1,0.2,1.6c0.1,0.6,0.2,1.2,0.3,1.7c0.1,0.5,0.3,1,0.6,1.5
			c0.2,0.4,0.5,0.7,0.9,1c0.3,0.1,0.6,0.2,0.9,0.2c0.1,0,0.3,0,0.4-0.1c0.1-0.1,0.3-0.2,0.4-0.3c0.1-0.1,0.2-0.2,0.3-0.3
			c0.1-0.1,0.2-0.2,0.2-0.3c0.1-0.2,0.2-0.5,0.2-0.7c0-0.6-0.2-1.1-0.4-1.7c-0.3-0.6-0.7-1.2-1.2-1.7c-0.4-0.5-0.9-1-1.4-1.4
			c-0.3-0.3-0.7-0.6-1.1-0.9C193.6,111,193.6,111.3,193.6,111.4z"/>
		<path class="st0" d="M189,126.8c4.1-0.4,3.3-4.3-1.1-3.4C182.8,124.5,184.9,127.2,189,126.8z"/>
		<path class="st0" d="M192.7,132c0.1,0,0.1,0,0.2-0.1c0,0,0,0,0,0c1.7-0.5,3.6-1.2,4.5-2.8c0.6-1.1,0.8-2.9-0.1-3.8
			c-1.1-1.1-2.9-0.1-3.9,0.6c-1.7,1.4-2.3,3.7-2.8,5.7c0,0.2,0.1,0.8,0.4,0.8C191.5,132.3,192.1,132.1,192.7,132
			C192.7,132,192.7,132,192.7,132z"/>
		<path class="st0" d="M203.5,128.1c-0.1-0.3-0.1-0.5-0.2-0.8c-0.2-0.6-0.6-1.2-1.2-1.5c-0.3-0.1-0.6-0.2-0.9-0.2
			c-0.2,0-0.3,0-0.5,0c-0.1,0-0.2,0-0.3,0.1c-0.2,0-0.4,0.1-0.5,0.2c-0.2,0.1-0.3,0.1-0.5,0.3c-0.5,0.3-0.8,0.8-1,1.3
			c-0.1,0.5-0.1,1.1,0.1,1.6c0.2,0.6,0.5,1.1,0.9,1.6c0.4,0.6,0.8,1.1,1.3,1.5c0.5,0.5,1,0.9,1.5,1.3c0.4,0.3,0.8,0.6,1.3,0.9
			c0.1,0,0.2,0.1,0.2-0.1C204,132.3,204.1,130.1,203.5,128.1z"/>
		<path class="st0" d="M204.3,120.7c-2.2,0.4-3.7,2.6-1.7,4.5c2.4,2.3,5.9-0.4,7.9-1.9c0.2-0.1-0.1-0.9-0.3-1
			c-1.5-0.9-3-1.7-4.7-1.7C205.2,120.7,204.6,120.7,204.3,120.7z"/>
		<path class="st0" d="M198.6,120.8c0.1,0.1,0.1,0.2,0.2,0.3c0.1,0.2,0.2,0.4,0.4,0.5c0.2,0.2,0.5,0.3,0.8,0.4c0.4,0,0.7-0.1,1-0.2
			c0.7-0.4,1.3-1.1,1.7-1.8c1.2-2.2,0.4-4.9-0.3-7.1c0,0-0.2-0.5-0.3-0.4c-0.6,0.5-1.2,1.1-1.8,1.7c-0.6,0.6-1.1,1.3-1.6,2.1
			c-0.4,0.7-0.7,1.5-0.7,2.3c0,0.4,0,0.8,0.1,1.2c0.1,0.3,0.2,0.5,0.3,0.7C198.6,120.7,198.6,120.8,198.6,120.8z"/>
		<path class="st0" d="M197.1,123.8c0.1-0.1,0.1-0.2,0.2-0.2c0.1-0.1,0.1-0.2,0.2-0.4c0.2-0.3,0.3-0.7,0.4-1.1
			c0.1-0.5,0.1-0.9-0.1-1.4c-0.2-0.4-0.5-0.7-0.8-1c-0.4-0.3-0.9-0.5-1.3-0.7c-0.5-0.2-1.1-0.3-1.7-0.4c-0.6-0.1-1.2-0.2-1.7-0.2
			c-0.5,0-1.1-0.1-1.6,0c-0.4,0-0.7,0-1.1,0.1c-0.3,0-0.1,0.6-0.1,0.7c0.2,0.5,0.5,1,0.8,1.5c0.4,0.6,0.8,1.1,1.2,1.6
			c0.4,0.5,0.9,1,1.4,1.5c0.5,0.4,1,0.7,1.6,0.9c0.5,0.2,1.1,0.2,1.6,0c0.3-0.1,0.5-0.3,0.7-0.5C196.9,124,197,123.9,197.1,123.8z"
			/>
		<path class="st0" d="M197.9,124c0,0.9,0.8,1.7,1.7,1.5c0.7-0.1,1.1-0.9,1.1-1.6c0-0.4-0.1-0.8-0.4-1.1c-0.1-0.1-0.3-0.3-0.4-0.4
			c-0.2-0.1-0.4-0.1-0.6-0.1c-0.4,0-0.8,0.3-1,0.5C198,123.2,197.9,123.6,197.9,124z"/>
	</g>
	<g>
		<path class="st0" d="M105.7,211.8c0.9-0.8,2.5-2.6,0.6-3.2c-3.4-0.6-5.9,2.4-7.7,4.9c0,0-0.5,0.7-0.1,0.7
			C101.2,214,103.6,213.8,105.7,211.8z"/>
		<path class="st0" d="M115.9,215.4c-0.4,0-0.8,0-1.1,0.2c-0.7,0.3-1.2,0.9-1.4,1.7c-0.2,0.9-0.1,1.9,0.1,2.7c0.2,1,0.5,1.9,0.9,2.9
			c0.3,0.7,0.6,1.4,0.9,2.1c0.2,0.5,0.8-0.3,0.9-0.5c0.3-0.6,0.5-1.2,0.7-1.8c0.3-1.1,0.6-2.1,0.8-3.3c0.1-0.9,0.2-2-0.2-2.9
			c-0.2-0.4-0.4-0.7-0.8-0.9C116.4,215.5,116.2,215.5,115.9,215.4z"/>
		<path class="st0" d="M132.5,209.6c-1.9-1.2-8.6-4.6-9-0.3c-0.3,3.6,7.4,2.4,9.4,2c0.3-0.1,1-0.8,0.6-1
			C133.2,210,132.8,209.8,132.5,209.6z"/>
		<path class="st0" d="M124,191.9c-0.4,0.3-0.8,0.5-1.2,0.8c-0.5,0.4-1.1,0.8-1.6,1.3c-0.5,0.5-1.1,1-1.6,1.6
			c-0.4,0.5-0.9,1.1-1.2,1.7c-0.2,0.5-0.4,1-0.4,1.6c0,0.4,0.2,0.7,0.4,1c0.1,0.1,0.3,0.3,0.4,0.4c0.2,0.1,0.4,0.2,0.6,0.2
			c0.2,0.1,0.3,0.1,0.5,0.1c0.2,0,0.3,0,0.5,0c0.3,0,0.6-0.2,0.9-0.3c0.6-0.4,1.1-1,1.4-1.7c0.4-0.8,0.7-1.6,0.9-2.4
			c0.2-0.8,0.4-1.6,0.5-2.5c0.1-0.6,0.2-1.2,0.2-1.7C124.5,191.6,124.2,191.8,124,191.9z"/>
		<path class="st0" d="M104.6,198c3.4,4,6.9,0.4,2.8-3.6C102.7,189.9,101.2,194,104.6,198z"/>
		<path class="st0" d="M101.8,205.6c0.1,0,0.1,0.1,0.2,0.1c0,0,0,0,0,0c1.7,1.4,3.8,2.9,6.1,2.7c1.6-0.1,3.6-1.2,3.9-2.9
			c0.3-1.9-1.9-3.2-3.5-3.6c-2.6-0.8-5.5,0.2-7.9,1.2c-0.2,0.1-0.8,0.7-0.5,1C100.7,204.6,101.2,205.1,101.8,205.6
			C101.8,205.6,101.8,205.6,101.8,205.6z"/>
		<path class="st0" d="M113.7,214.2c0.2-0.3,0.4-0.5,0.6-0.8c0.5-0.7,0.8-1.5,0.7-2.4c0-0.4-0.2-0.8-0.4-1.1
			c-0.1-0.2-0.2-0.4-0.4-0.5c-0.1-0.1-0.2-0.2-0.3-0.3c-0.2-0.2-0.4-0.3-0.6-0.4c-0.2-0.1-0.4-0.3-0.6-0.3c-0.7-0.2-1.4-0.3-2.1,0
			c-0.6,0.2-1.2,0.7-1.6,1.2c-0.5,0.6-0.8,1.4-1.1,2.1c-0.3,0.8-0.5,1.7-0.7,2.5c-0.2,0.8-0.3,1.6-0.3,2.5c-0.1,0.7-0.1,1.3,0,2
			c0,0.1,0.1,0.2,0.2,0.2C109.6,217.8,112,216.2,113.7,214.2z"/>
		<path class="st0" d="M121.9,209.8c-2-2-5.4-2-6,1.4c-0.8,4.2,4.6,5.9,7.7,6.9c0.3,0.1,0.8-0.7,0.8-1c-0.2-2.2-0.3-4.4-1.5-6.1
			C122.6,210.7,122.2,210,121.9,209.8z"/>
		<path class="st0" d="M117.8,203.9c-0.1,0.1-0.2,0.3-0.2,0.4c-0.1,0.3-0.2,0.5-0.3,0.8c0,0.4,0,0.8,0.2,1.1c0.2,0.4,0.6,0.7,1,0.9
			c0.9,0.5,2,0.6,3.1,0.5c3.1-0.3,5.4-3.1,7.2-5.3c0,0,0.4-0.6,0.3-0.6c-1-0.3-2.1-0.5-3.1-0.6c-1.1-0.2-2.2-0.2-3.3-0.1
			c-1,0.1-2.1,0.4-3,0.9c-0.5,0.3-0.9,0.6-1.2,1c-0.2,0.2-0.4,0.5-0.6,0.8C117.8,203.8,117.8,203.8,117.8,203.9z"/>
		<path class="st0" d="M113.6,204.4c0.1,0,0.3,0,0.4,0c0.2,0,0.3,0,0.5,0c0.5,0,1-0.1,1.4-0.3c0.6-0.2,1-0.6,1.4-1.1
			c0.3-0.5,0.4-1,0.5-1.6c0-0.6-0.1-1.3-0.2-1.9c-0.2-0.7-0.4-1.4-0.7-2.1c-0.3-0.7-0.6-1.3-1-2c-0.3-0.6-0.7-1.2-1.1-1.7
			c-0.3-0.4-0.6-0.8-0.9-1.1c-0.2-0.3-0.7,0.3-0.8,0.4c-0.4,0.6-0.7,1.3-0.9,1.9c-0.3,0.8-0.6,1.6-0.9,2.4c-0.2,0.8-0.4,1.7-0.5,2.6
			c-0.1,0.8,0,1.6,0.2,2.3c0.2,0.6,0.6,1.2,1.1,1.6c0.3,0.2,0.7,0.3,1,0.4C113.2,204.3,113.4,204.3,113.6,204.4z"/>
		<path class="st0" d="M113.9,205.4c-0.9,0.7-1.3,2-0.4,2.9c0.7,0.6,1.8,0.5,2.5,0c0.4-0.3,0.7-0.7,0.9-1.2c0.1-0.2,0.1-0.5,0.1-0.7
			c0-0.3-0.2-0.5-0.3-0.7c-0.2-0.4-0.8-0.6-1.3-0.7C114.8,204.9,114.3,205.1,113.9,205.4z"/>
	</g>
	<path class="st7" d="M241.5,306c0.5-3,0-5.9,0.1-7.5c0-0.2-0.2-0.7,0-0.7c2.4-1.5,4.5-3.4,5.8-5.4c1.3-1.8,2.7-4.5,3.3-6.8
		c1.5-5,0.2-9.8-4.2-13.2c-4-3.1-10.8-3.3-15.2-0.6c-1.9,1-4.8,4.3-3.3,6.3c2.4,3,5,1.5,5.8,0.2c0.5-1.1,1.1-2.3,1-3.4
		c-0.2-0.9,4-0.6,6.1,0.2c3.9,1.7,6.8,6.3,5.4,10c-2.1,5.9-4.8,8.1-7.5,9.3c-3.2-4.7-6.4-8.9-11.6-11.6c-3.2-1.6-13-4.4-15.6-0.7
		c-4.5,6.7,10.9,14.8,15,16.5c2.7,1.1,5.5,1.6,8.1,1.3c2,11.6-11.8,14.4-20.5,12.1c-8.7-2.3-16.5-8-22.6-14.3
		c-11.1-11.3-18.7-20.1-34.2-25.6c-24.9-8.8-42.5,12.2-42.8,35.8c0,2.8,4,2.4,4.2-0.2C120,290.3,131,271,151.4,276
		c13.1,3.3,24.3,13.2,33.2,22.7c5.2,5.5,10.7,11.3,17.1,15.5c2,1.3,4.9,2.9,7.2,3.8C222.7,323.4,238,322.2,241.5,306z M215.6,285.5
		c3.3,0.2,6.5,1.2,9.6,2.8c3.6,1.4,6.2,4.4,7.9,7.6C226.5,295.8,218.9,291.1,215.6,285.5z"/>
	<path class="st25" d="M231.9,210.5c-4.1,1.6-7.5,3.2-7.8,8.4c-2-3.9-4-7.4-9-8.1c4.6-1.3,7.5-3.9,8.7-8.7
		C224.7,206.9,227.1,209.7,231.9,210.5z"/>
	<path class="st18" d="M124,129.6c-3.5,1.4-6.5,2.8-6.8,7.3c-1.7-3.4-3.5-6.4-7.8-7c4-1.1,6.5-3.4,7.5-7.5
		C117.8,126.5,119.9,128.9,124,129.6z"/>
	<path class="st18" d="M285.6,294.2c-4.1,1.6-7.5,3.2-7.8,8.4c-2-3.9-4-7.4-9-8.1c4.6-1.3,7.5-3.9,8.7-8.7
		C278.4,290.6,280.8,293.4,285.6,294.2z"/>
	<path class="st18" d="M327.8,288.5c-2.4,0.9-4.3,1.9-4.5,4.9c-1.2-2.3-2.3-4.3-5.2-4.7c2.7-0.7,4.4-2.2,5-5
		C323.6,286.4,325,288,327.8,288.5z"/>
	<path class="st18" d="M85.2,275.9c-2.4,0.9-4.3,1.9-4.5,4.9c-1.2-2.3-2.3-4.3-5.2-4.7c2.7-0.7,4.4-2.2,5-5
		C81,273.8,82.4,275.4,85.2,275.9z"/>
	<path class="st18" d="M291.7,220.9c-2.4,0.9-4.3,1.9-4.5,4.9c-1.2-2.3-2.3-4.3-5.2-4.7c2.7-0.7,4.4-2.2,5-5
		C287.5,218.8,288.9,220.4,291.7,220.9z"/>
</g>
</svg>
