<svg id="Layer_1" data-name="Layer 1" xmlns="http://www.w3.org/2000/svg" viewBox="0 0 512 512"><defs><style>.cls-1{fill:#199cf4;}.cls-2{fill:#29d5fb;}.cls-3{fill:#15bdf9;}.cls-4{fill:#d7dee2;}.cls-5{opacity:0.1;}.cls-6{fill:#231f20;}</style></defs><title>ring-flat</title><polygon class="cls-1" points="512 100.32 451.55 121.24 461.84 50.16 512 100.32"/><polygon class="cls-2" points="496.36 165.96 451.55 121.24 512 100.32 496.36 165.96"/><polygon class="cls-1" points="461.84 50.16 390.66 60.47 411.68 0 461.84 50.16"/><polygon class="cls-2" points="390.66 60.47 346.02 15.91 411.68 0 390.66 60.47"/><polygon class="cls-3" points="339.2 172.8 346.02 15.91 390.66 60.47 339.2 172.8"/><polygon class="cls-3" points="496.36 165.96 339.2 172.8 451.55 121.24 496.36 165.96"/><polygon class="cls-3" points="451.55 121.24 390.66 60.47 461.84 50.16 461.84 50.16 451.55 121.24"/><polygon class="cls-1" points="451.55 121.24 339.2 172.8 390.66 60.47 451.55 121.24"/><path class="cls-4" d="M211.2,89.6C94.53,89.6,0,184.13,0,300.8S94.53,512,211.2,512s211.2-94.53,211.2-211.2S327.87,89.6,211.2,89.6Zm0,339.33A128.13,128.13,0,1,1,339.33,300.8,128.18,128.18,0,0,1,211.2,428.93Z"/><g class="cls-5"><path class="cls-6" d="M422.4,300.8c0,116.67-94.53,211.2-211.2,211.2V428.93a128.13,128.13,0,0,0,0-256.26V89.6C327.87,89.6,422.4,184.13,422.4,300.8Z"/></g></svg>