<svg id="Capa_1" enable-background="new 0 0 512 512" height="512" viewBox="0 0 512 512" width="512" xmlns="http://www.w3.org/2000/svg"><circle cx="256" cy="256" fill="#96e8ff" r="248.5"/><path d="m336 424.5c-137.243 0-248.5-111.257-248.5-248.5 0-48.13 13.698-93.054 37.386-131.114-70.47 43.858-117.386 122.001-117.386 211.114 0 137.243 111.257 248.5 248.5 248.5 89.113 0 167.256-46.916 211.114-117.386-38.06 23.688-82.984 37.386-131.114 37.386z" fill="#80dbff"/><path d="m477.585 143.415-30.639 30.639c-7.41 7.41-7.41 19.423 0 26.833l14.583 14.583c3.558 3.558 5.557 8.384 5.557 13.416 0 16.904-20.437 25.369-32.39 13.416l-45.299-45.299c-3.558-3.558-8.384-5.557-13.416-5.557h-91.122c-5.032 0-9.858 1.999-13.416 5.557l-53.416 53.416c-7.41 7.41-7.41 19.423 0 26.833l72.557 72.557c7.41 7.41 19.423 7.41 26.833 0l8.683-8.683c7.41-7.41 19.423-7.41 26.833 0l17.554 17.554c7.41 7.41 7.41 19.423 0 26.833l-46.927 46.927c-3.558 3.558-8.384 5.557-13.416 5.557h-74.17c-10.479 0-18.974 8.495-18.974 18.974v44.475c12.707 2.003 25.73 3.055 39 3.055 137.243 0 248.5-111.257 248.5-248.5 0-40.528-9.708-78.786-26.915-112.586z" fill="#06ccab"/><path d="m336 424.5c-1.486 0-2.964-.03-4.444-.056l-7.996 7.996c-3.558 3.558-8.384 5.557-13.416 5.557h-74.17c-10.479 0-18.974 8.495-18.974 18.974v44.475c12.707 2.003 25.73 3.055 39 3.055 89.113 0 167.256-46.916 211.114-117.386-38.06 23.687-82.984 37.385-131.114 37.385z" fill="#00bd9d"/><ellipse cx="172.435" cy="125.68" fill="#f2f6fc" rx="30.834" ry="24.555"/><ellipse cx="339.565" cy="125.68" fill="#f2f6fc" rx="30.834" ry="24.555"/><path d="m190.405 109.241c-4.142 0-7.5-3.358-7.5-7.5v-12c0-4.142 3.358-7.5 7.5-7.5s7.5 3.358 7.5 7.5v12c0 4.142-3.358 7.5-7.5 7.5z"/><path d="m256 117.046c-8.795 0-17.16-3.81-22.948-10.451-2.721-3.123-2.396-7.86.727-10.582 3.123-2.721 7.86-2.396 10.582.727 2.939 3.373 7.181 5.307 11.64 5.307 4.458 0 8.701-1.934 11.64-5.307 2.72-3.123 7.458-3.448 10.582-.727 3.122 2.722 3.448 7.459.727 10.582-5.79 6.642-14.154 10.451-22.95 10.451z"/><path d="m337.818 108.906c-4.143 0-7.5-3.358-7.5-7.5 0-3.532-2.874-6.406-6.406-6.406s-6.406 2.874-6.406 6.406c0 4.142-3.357 7.5-7.5 7.5s-7.5-3.358-7.5-7.5c0-11.803 9.603-21.406 21.406-21.406s21.406 9.603 21.406 21.406c0 4.142-3.357 7.5-7.5 7.5z"/><path d="m82.735 208.243c-7.81-7.811-20.474-7.811-28.284 0l-46.94 46.94c-.001.273-.011.544-.011.817 0 96.205 54.674 179.633 134.64 220.929v-67.9c0-10.609-4.214-20.783-11.716-28.284l-21.459-21.459c-7.81-7.81-7.81-20.474 0-28.284l34.122-34.122c7.81-7.811 7.81-20.474 0-28.284z" fill="#06ccab"/><path d="m108.966 359.286c-7.81-7.81-7.81-20.474 0-28.284l19.025-19.025c-18.601-28.397-31.54-60.829-37.225-95.703l-8.031-8.031c-7.81-7.811-20.474-7.811-28.284 0l-46.94 46.94c-.001.273-.011.544-.011.817 0 96.205 54.674 179.633 134.64 220.929v-67.9c0-10.609-4.214-20.783-11.716-28.284z" fill="#00bd9d"/><path d="m437.02 74.98c-48.352-48.351-112.64-74.98-181.02-74.98s-132.667 26.629-181.02 74.98c-48.171 48.172-74.773 112.162-74.971 180.257l-.003.206c-.003.185-.006.37-.006.557 0 63.147 23.187 123.799 65.291 170.784 2.764 3.084 7.505 3.344 10.591.58 3.084-2.764 3.344-7.506.58-10.591-39.128-43.665-60.886-99.873-61.435-158.5l44.727-44.727c2.361-2.361 5.5-3.661 8.839-3.661s6.478 1.3 8.839 3.661l60.354 60.353c4.874 4.874 4.874 12.804 0 17.678l-34.122 34.122c-10.722 10.722-10.722 28.168 0 38.891l21.458 21.458c6.139 6.139 9.519 14.3 9.519 22.981v55.202c-13.883-8.098-27.019-17.614-39.179-28.483-3.088-2.761-7.829-2.495-10.59.594s-2.495 7.83.594 10.59c16.174 14.456 33.964 26.672 52.914 36.479.282.164.573.315.877.442 23.864 12.234 49.547 20.66 76.149 24.919.308.067.623.114.944.141 13.034 2.037 26.286 3.087 39.65 3.087 68.38 0 132.668-26.629 181.02-74.98 48.351-48.353 74.98-112.64 74.98-181.02s-26.629-132.667-74.98-181.02zm-181.02 422.02c-10.595 0-21.113-.706-31.5-2.071v-37.959c0-6.327 5.147-11.474 11.474-11.474h74.17c7.072 0 13.72-2.754 18.721-7.754l46.926-46.925c10.321-10.322 10.321-27.117 0-37.439l-17.555-17.554c-5-5-11.648-7.754-18.72-7.754s-13.72 2.754-18.719 7.754l-8.685 8.683c-2.167 2.167-5.048 3.36-8.112 3.36s-5.945-1.193-8.112-3.36l-72.558-72.558c-4.474-4.474-4.474-11.752 0-16.226l53.416-53.416c2.168-2.167 5.05-3.361 8.114-3.361h91.122c3.064 0 5.946 1.193 8.113 3.36l13.759 13.759c2.93 2.93 7.678 2.929 10.607 0s2.929-7.678-.001-10.606l-13.759-13.759c-5-5-11.647-7.754-18.72-7.754h-91.122c-7.071 0-13.72 2.753-18.721 7.754l-53.416 53.417c-10.322 10.322-10.322 27.117 0 37.439l72.557 72.558c5 5 11.648 7.754 18.72 7.754s13.72-2.754 18.719-7.754l8.685-8.683c2.167-2.167 5.048-3.36 8.112-3.36s5.945 1.193 8.113 3.36l17.554 17.554c4.474 4.474 4.474 11.753 0 16.227l-46.926 46.925c-2.167 2.167-5.048 3.36-8.113 3.36h-74.17c-14.598 0-26.474 11.876-26.474 26.474v35.502c-20.789-4.078-40.911-10.862-59.86-20.185v-63.26c0-12.688-4.94-24.616-13.912-33.587l-21.459-21.458c-4.874-4.874-4.874-12.804 0-17.678l34.122-34.122c5.194-5.194 8.055-12.1 8.055-19.445s-2.86-14.251-8.055-19.445l-60.354-60.353c-5.194-5.194-12.1-8.055-19.445-8.055s-14.251 2.86-19.445 8.055l-33.335 33.335c10.07-123.696 113.943-221.275 240.189-221.275 91.704 0 171.601 51.49 212.32 127.073l-26.678 26.678c-10.321 10.322-10.321 27.117.001 37.439l14.583 14.583c2.167 2.167 3.36 5.049 3.36 8.114 0 4.801-2.647 8.763-7.083 10.601-4.435 1.837-9.108.907-12.503-2.487l-11.739-11.739c-2.93-2.929-7.678-2.929-10.607 0s-2.929 7.678 0 10.606l11.739 11.739c5.131 5.13 11.736 7.821 18.552 7.821 3.434 0 6.922-.684 10.299-2.083 10.08-4.175 16.343-13.547 16.343-24.458 0-7.07-2.753-13.718-7.754-18.72l-14.583-14.583c-4.474-4.474-4.474-11.752 0-16.226l23.115-23.115c13.886 30.414 21.635 64.197 21.635 99.757 0 132.888-108.112 241-241 241z"/></svg>