<svg version="1.1" id="Calque_1" xmlns="http://www.w3.org/2000/svg" x="0" y="0" viewBox="0 0 432 432" xml:space="preserve"><style>.st0{fill:#e30613}.st1{fill:#cb9a3e}.st2{fill:#008d36}.st18{fill-rule:evenodd;clip-rule:evenodd;fill:#cb9a3e}.st20{fill:#d82116}</style><path class="st1" d="M67.7 134.8c-3.9 13.6 7.6 24.5 8 36.9.8 31.9-20.3 18.1-5.7 2.2 2.4-3.4-.7-4-2.1-2.1-19.4 26.7 18.2 31 16 1.4-1.5-15.3-10.1-24.5-9.9-36.2.1-7.9 13.8-16.1 8.2 1.3-.7 2.1.3 4.2 2.3 1 7.9-16.1-12.3-20.2-16.8-4.5z"/><path class="st1" d="M284.4 153.5c-6.5 22.1-18.2 41.5-22.8 43.3-7-.4 13.3-52.7-1.2-57.9-9.1-3.3-19.2 27.1-22.1 32.7-.2-1.2 4.3-30.4 4.4-31 .3-6.2-7.9-6.2-9.3-1.9-.5 2.4-1.3 8.3-2 15.3-2.3 1.9-6.1 2.9-8.8 2.7.3-8-1.9-15.4-6.8-16.7-8-2-14.5 4.8-17.2 13.1-4.4 3.2-13 10.3-21.1 18.6-.8-3.4-1.8-6.6-2.7-9.5-3.2-9.5-6.6-20.4-4-26.9 4.5-9.6 8.9-3.8 3.6 2.3-1 1.7.8 4 2.4 1.9 8.9-10.9-3.4-18.6-9.7-8.8-4.3 6.2-4.8 16.9-4 25.3-5.7 11-13.2 34-19.4 37.7-6.3 3.8 5.1-40 6.4-46 0-4.3-5.6-8.8-8.3-3.2-14.8-5.9-23.9 6.9-24.6 18.8-6.1 12.4-12.4 19.5-16.5 18.9-4.9-.6-4-11.8-4-22.1 9.3-2.6 14.7-20.8 5.1-21-18-.2-20.1 44.9-1.6 45.6 4.7.2 11.2-5.8 17.2-16.8.6 5 2.9 9.2 7 11.2 3.3 1.6 11.9-16.6 16.4-26.9-4.8 12.1-8 41.5.7 44.9 7 2.8 16.2-21.9 22.4-35.9.2 1 .3 2 .5 2.9 1 4.9 3.1 10.8 4.8 16.7-5.8 7.1-10.3 14.1-10.7 19.6-.9 11.2 12.1 11.8 18.8 1 4.1-6.6 3.2-17.1 1-26.9 6.4-6.7 14-13.4 19.5-17.5-1.5 8.6 1.2 17.7 10.3 20 8.7 2.2 13.6-8 14.5-18.2 2.9.1 6-.5 8.7-2.2-.6 6.6-1 13.8-.9 19.6.1 2.5 5.1 8 7.8 3.4 11.2-29.6 17.8-37.5 19.1-38.2 3.1-1.6 3.4 3.3 3 5.4-3.3 15.9-14.1 53.1.5 53.1 7.6 0 20.6-28 26-46.3.4-1.9-2-1.4-2.4-.1zm-180.2-10.9c1 1.7-1.8 13.2-7.5 15.2.3-6.5 5.8-18.1 7.5-15.2zm20.1 29c.8-7 8.1-28.9 15.8-24.4-2.8 7-17.5 39.8-15.8 24.4zm47.4 27.2c-2.1 13-11.9 8.6-10.8 1.6.8-4.5 4.2-10.4 9-16.5 1.6 5.3 2.5 10.6 1.8 14.9zm39-24.7c-4.9-.5-4.5-14.9-1.1-23.9 1.9 4.5 6 7.3 10.2 8.3-.9 7.8-4.2 15.9-9.1 15.6zm9.4-18c-3.9-1.2-7.5-4.5-9-9 1.4-2.5 3-4 4.9-4 3.3.2 4.5 6.2 4.1 13zM291.3 131.3c-1.9-3.2-6.2 2.2-1.7 3 0 .7-1.3 2.4-2 2.9-.3 1.1.1 1.2.6 1 1-.5 4.9-4 3.1-6.9zM332.8 150.6c-3.3 2.1-13.4 10.1-23 19.8-.8-3.4-1.9-6.6-2.7-9.5-3.2-9.5-6.6-20.4-4-26.9 4.5-9.6 8.9-3.8 3.6 2.3-1 1.7.8 4 2.4 1.9 8.9-10.9-3.4-18.6-9.7-8.8-6 8.6-4.5 25.5-2.9 33.5 1 4.9 3.1 10.8 4.8 16.7-5.8 7.1-10.3 14.1-10.7 19.6-.9 11.2 12.1 11.8 18.8 1 4.1-6.6 3.2-17.1 1-26.9 8-8.4 18-16.7 23.2-20.2 1.8-1.5-.2-2.9-.8-2.5zm-28.8 47c-2.1 13-11.9 8.6-10.8 1.6.8-4.5 4.2-10.4 9-16.5 1.5 5.4 2.4 10.6 1.8 14.9z"/><path class="st2" d="M74.6 235.9c-5.4 1.4-4.5 6.5.6 2.7.8-.5 5.1 24-1.6 24.7-15.6 1.7-15.1-58.5 3.5-61.1 4.5-.6 6.1 4 6.1 11.1 1.2 1.5 4 1.9 3.6-.8-1.2-8-3.4-13.5-11.5-12.7-24.9 2.5-22.8 42.6-19.1 55.2 3.6 12.2 12.3 12.5 19.1 11.2 13.9-3.5 12.9-33.9-.7-30.3z"/><path class="st2" d="M374.2 231.7c-3.3 2.1-13.4 10.1-23 19.8-.8-3.4-1.9-6.6-2.7-9.5-3.2-9.5-6.6-20.4-4-26.9 4.5-9.6 8.9-3.8 3.6 2.3-1 1.7.8 4 2.4 1.9 8.9-10.9-3.4-18.6-9.7-8.8-4.1 5.9-4.7 15.8-4.1 24-5.3 3.7-12.8 9.6-15.6 11.9 1-9.5 1.2-17.8.9-22-.6-6.7-6.9-6.6-8.1-3.5l-.4 1c-5.7-1.1-18.8 1.9-21.7 15.1-.4 1.8-.5 3.6-.3 5.2-6.6 18.2-15.9 32.8-19.8 34.4-7-.4 13.3-52.7-1.2-57.9-9.1-3.3-19.2 27.1-22.1 32.7-.2-1.2 4.3-30.4 4.4-31 .3-6.2-7.9-6.2-9.3-1.9-.6 2.7-1.5 10.1-2.3 18.4-6.9 16.3-13.3 24.2-18.4 25.5-1.7.4.6-21.2 3.2-35.9.4-4.1-6.9-3.7-8.2-1.2 0 .1-1.6 7.6-2.3 16-6.8 21-14.7 40.6-19.5 36.8-2.8-2.3.5-52.5 5-74.8 1-.1 10.3-.5 11.8-1.1 1.9-.8 1-2.1.7-2.5-3.8.2-7.2.5-12 .7.8-4.4 1.4-7 2.6-13.7 1.1-5.8-5.3-4.2-6.6-2-1.3 1.4-2.6 10.2-4.3 17.1l-8.5.5c-1.2 1.1-1.3 2.1-.1 2.7l8.1-.5c-.4 2.2-3.1 15.9-4.7 31.2-7 16.9-15 27-19.9 26.3-4.9-.6-4-11.8-4-22.1 9.3-2.6 14.7-20.8 5.1-21-8.4-.1-13.4 9.7-14.4 20.3-6.6 14.7-13.8 23.3-18.3 22.7-4.9-.6-4-11.8-4-22.1 9.3-2.6 14.7-20.8 5.1-21-8.2-.1-13 9.1-14.2 19.2-6.1 14.9-17.8 38.6-23.5 39.2-4.6.4 6.1-29 7.5-34.9-1.5-2-10.8-6.3-14.1-9.8 2-6.4.6-15.5-5.5-14.1-8.9 2.1.6 18.7 10.6 23.6-2.3 5.9-14.9 38.2 1.2 37.4 7-.3 16.6-18.9 23.4-34.6.5 10 4.6 19.2 12.8 19.5 5.1.2 12.3-6.8 18.8-19.8.4 10.1 4.5 19.4 12.8 19.8 5.4.2 13-7.6 19.8-21.8-1.4 17.5-.9 35 6.4 38.2 7.8 3.5 14.5-9.5 21.5-30.4.2 7.6 2 14 7.1 14 5.4 0 11.9-6.8 18.4-21.1-.3 4.4-.4 8.7-.4 12.4.1 2.5 5.1 8 7.8 3.4 11.2-29.6 17.8-37.5 19.1-38.2 3.1-1.6 3.4 3.3 3 5.4-3.3 15.9-14.1 53.1.5 53.1 6 0 15.3-17.2 21.6-33.5 3.2 8.3 13.6 9.6 21.5-20.2.5 7.1-.1 16.1-1.8 27-7.3 7.7-12.6 13.8-16 20.8-7.7 15.2-2.1 23.6 8.4 19.5 8.9-3.6 14.1-25.2 16.3-43.7 3.2-2.8 10.4-8.5 16.2-12.5.3 2.6.6 5 1 6.9 1 4.9 3.1 10.8 4.8 16.7-5.8 7.1-10.3 14.1-10.7 19.6-.9 11.2 12.1 11.8 18.8 1 4.1-6.6 3.2-17.1 1-26.9 8-8.4 18-16.7 23.2-20.2 2-1.1 0-2.5-.7-2.1zm-202.4-9.2c1 1.7-1.8 13.2-7.5 15.2.3-6.5 5.8-18.1 7.5-15.2zm-31.6 0c1 1.7-1.8 13.2-7.5 15.2.3-6.5 5.8-18.1 7.5-15.2zm-49.4 7.9c-.2.5-2.7-5.1-2.9-6-.8-4.4 5.2-3.6 2.9 6zm209 17.6c-2.1-1.1 3.8-24.4 13-23.9-3.8 9.7-10.2 25.5-13 23.9zm3.6 39.5c-5.5 10.5-12.6 2.1-5.5-11.9 2.5-4.9 7.1-13 13.6-19.3-.3 13-4.6 24.5-8.1 31.2zm42-8.8c-2.1 13-11.9 8.6-10.8 1.6.8-4.5 4.3-10.4 9-16.5 1.6 5.3 2.4 10.5 1.8 14.9z"/><path class="st20" d="M357.1 193.4c-.9-1.4-2.8-4.2-4.2-1.7-1.7 4.4 1.6 8.7 4.3 11.8 0 .1.8.8.9.4.6-3.8 1-7.1-1-10.5zM365 180.7c-.2.5-.2 1.1-.1 1.6.2 1.1.9 1.9 1.9 2.3 1.2.5 2.5.7 3.7.7 1.4 0 2.8-.1 4.1-.3 1-.2 2.1-.4 3.1-.6.7-.2-.1-1.2-.4-1.4-.7-.5-1.4-1-2.2-1.4-1.3-.8-2.7-1.5-4.1-2-1.2-.5-2.7-.9-4-.6-.5.1-1.1.3-1.4.8-.3.2-.5.6-.6.9zM362 156.6c-2.2 2.1-8.8 10.3-3 12.1 4.7 1.5 5.4-9.3 5.5-12.1 0-.4-.8-1.6-1.2-1.1-.5.3-.9.7-1.3 1.1zM335.6 162.7c.2.6.5 1.3.8 1.9.4.9.8 1.7 1.3 2.5.5.9 1.1 1.8 1.7 2.6.6.8 1.2 1.5 1.9 2.1.6.5 1.3.9 2 1 .5.1 1.1 0 1.5-.3.2-.1.4-.3.6-.4.2-.2.3-.5.5-.7l.3-.6c.1-.2.1-.5.1-.7 0-.4 0-.9-.2-1.3-.3-1-1.1-1.8-1.8-2.4-.9-.8-1.9-1.4-3-2-1-.6-2.1-1-3.2-1.5-.8-.3-1.5-.6-2.3-.8-.4-.1-.3.4-.2.6zM338.1 190.9c6.4-3.3 2.6-9.2-4-4.8-7.5 4.9-2.4 8.1 4 4.8zM347.5 196.8c.1-.1.2-.1.2-.2 2.4-1.9 5.1-4.3 5.5-7.5.3-2.1-.5-5.2-2.7-6.1-2.5-1-4.9 1.7-5.9 3.6-1.9 3.3-1.3 7.4-.8 11.1.1.4.8 1.3 1.2 1 .9-.6 1.7-1.2 2.5-1.9zM362.7 183.4c-.3-.4-.6-.7-.9-1.1-.8-.8-1.8-1.6-3-1.7-.5-.1-1.1 0-1.6.2-.3.1-.6.2-.8.4-.1.1-.3.2-.4.3-.3.2-.5.4-.7.7-.2.3-.5.5-.7.8-.5.8-.8 1.8-.7 2.8.1.9.6 1.8 1.2 2.5.7.8 1.6 1.5 2.5 2.1 1 .6 2.1 1.2 3.2 1.6 1.1.4 2.1.8 3.2 1.2.9.3 1.8.5 2.7.7.2 0 .3 0 .3-.2-.8-3.7-2.1-7.4-4.3-10.3zM359.1 170.9c-3.3 2.1-4.4 6.6.1 8.5 5.4 2.3 9.4-4.5 11.6-8.3.2-.4-.7-1.4-1.1-1.4-3.1-.4-6-.8-8.8.2-.4.3-1.3.7-1.8 1z"/><path class="st20" d="M349.9 174.8c.2.2.3.3.5.4.3.2.6.5 1 .6.5.2 1.1.2 1.6.1.6-.2 1.1-.6 1.6-1 .9-1.1 1.4-2.6 1.6-4 .5-4.3-2.5-8.2-5-11.3 0-.1-.7-.7-.8-.5-.7 1.3-1.3 2.6-1.8 4s-1 2.9-1.2 4.4c-.2 1.4-.1 2.9.4 4.3.2.7.6 1.3 1 1.9.3.4.6.7.9 1 .1 0 .1 0 .2.1zM349.3 180.6c.1-.2.1-.3.2-.5s.1-.5.1-.7c.1-.7.1-1.4 0-2-.1-.8-.5-1.6-1-2.2-.5-.6-1.3-.9-2-1.1-.9-.2-1.8-.3-2.7-.3-1 0-2 .2-3 .4s-2 .5-3 .8c-.9.3-1.8.6-2.7 1-.6.3-1.2.5-1.8.8-.4.2.1 1 .3 1.2.7.7 1.5 1.3 2.3 1.8 1 .7 2 1.3 3 1.9 1.1.6 2.2 1.1 3.3 1.4 1 .3 2.1.5 3.1.5.9-.1 1.8-.4 2.5-1 .4-.4.7-.8.9-1.2.3-.4.4-.6.5-.8zM350.8 180.4c.6 1.4 2.4 2.3 3.8 1.4 1.1-.7 1.2-2.2.7-3.3-.3-.6-.7-1.2-1.3-1.5-.3-.2-.6-.3-.9-.3-.4 0-.7.1-1.1.2-.6.2-1.1.9-1.3 1.5-.2.7-.2 1.4.1 2z"/><g><path class="st0" d="M198.4 132.2c-.2-.9-.6-2.8-1.8-1.8-1.9 1.9-1 4.9-.2 7.2 0 0 .3.6.4.4 1.1-1.9 2-3.6 1.6-5.8zM205.3 127.2c-.2.2-.3.5-.4.8-.1.6.1 1.2.5 1.6.5.5 1.2.9 1.8 1.2.7.3 1.5.5 2.3.7.6.1 1.2.3 1.8.3.4.1.2-.7.1-.8l-.9-1.2c-.5-.7-1.1-1.4-1.8-2-.6-.5-1.2-1-2-1.2-.3-.1-.6 0-.9.1-.2.2-.4.3-.5.5zM208.8 113.8c-1.6.7-6.8 3.6-4.2 5.8 2.2 1.8 4.8-3.8 5.5-5.2.1-.2-.1-1-.4-.9-.3 0-.6.1-.9.3zM193.6 111.4v1.2c0 .5.1 1.1.2 1.6.1.6.2 1.2.3 1.7.1.5.3 1 .6 1.5.2.4.5.7.9 1 .3.1.6.2.9.2.1 0 .3 0 .4-.1.1-.1.3-.2.4-.3l.3-.3c.1-.1.2-.2.2-.3.1-.2.2-.5.2-.7 0-.6-.2-1.1-.4-1.7-.3-.6-.7-1.2-1.2-1.7-.4-.5-.9-1-1.4-1.4-.3-.3-.7-.6-1.1-.9-.3-.2-.3.1-.3.2zM189 126.8c4.1-.4 3.3-4.3-1.1-3.4-5.1 1.1-3 3.8 1.1 3.4zM192.7 132c.1 0 .1 0 .2-.1 1.7-.5 3.6-1.2 4.5-2.8.6-1.1.8-2.9-.1-3.8-1.1-1.1-2.9-.1-3.9.6-1.7 1.4-2.3 3.7-2.8 5.7 0 .2.1.8.4.8.5-.1 1.1-.3 1.7-.4zM203.5 128.1c-.1-.3-.1-.5-.2-.8-.2-.6-.6-1.2-1.2-1.5-.3-.1-.6-.2-.9-.2h-.5c-.1 0-.2 0-.3.1-.2 0-.4.1-.5.2-.2.1-.3.1-.5.3-.5.3-.8.8-1 1.3-.1.5-.1 1.1.1 1.6.2.6.5 1.1.9 1.6.4.6.8 1.1 1.3 1.5.5.5 1 .9 1.5 1.3.4.3.8.6 1.3.9.1 0 .2.1.2-.1.3-2 .4-4.2-.2-6.2zM204.3 120.7c-2.2.4-3.7 2.6-1.7 4.5 2.4 2.3 5.9-.4 7.9-1.9.2-.1-.1-.9-.3-1-1.5-.9-3-1.7-4.7-1.7-.3.1-.9.1-1.2.1z"/><path class="st0" d="M198.6 120.8c.1.1.1.2.2.3.1.2.2.4.4.5.2.2.5.3.8.4.4 0 .7-.1 1-.2.7-.4 1.3-1.1 1.7-1.8 1.2-2.2.4-4.9-.3-7.1 0 0-.2-.5-.3-.4-.6.5-1.2 1.1-1.8 1.7-.6.6-1.1 1.3-1.6 2.1-.4.7-.7 1.5-.7 2.3 0 .4 0 .8.1 1.2.1.3.2.5.3.7.2.2.2.3.2.3zM197.1 123.8c.1-.1.1-.2.2-.2.1-.1.1-.2.2-.4.2-.3.3-.7.4-1.1.1-.5.1-.9-.1-1.4-.2-.4-.5-.7-.8-1-.4-.3-.9-.5-1.3-.7-.5-.2-1.1-.3-1.7-.4-.6-.1-1.2-.2-1.7-.2s-1.1-.1-1.6 0c-.4 0-.7 0-1.1.1-.3 0-.1.6-.1.7.2.5.5 1 .8 1.5.4.6.8 1.1 1.2 1.6.4.5.9 1 1.4 1.5.5.4 1 .7 1.6.9.5.2 1.1.2 1.6 0 .3-.1.5-.3.7-.5.1-.2.2-.3.3-.4zM197.9 124c0 .9.8 1.7 1.7 1.5.7-.1 1.1-.9 1.1-1.6 0-.4-.1-.8-.4-1.1l-.4-.4c-.2-.1-.4-.1-.6-.1-.4 0-.8.3-1 .5-.3.4-.4.8-.4 1.2z"/></g><g><path class="st0" d="M105.7 211.8c.9-.8 2.5-2.6.6-3.2-3.4-.6-5.9 2.4-7.7 4.9 0 0-.5.7-.1.7 2.7-.2 5.1-.4 7.2-2.4zM115.9 215.4c-.4 0-.8 0-1.1.2-.7.3-1.2.9-1.4 1.7-.2.9-.1 1.9.1 2.7.2 1 .5 1.9.9 2.9l.9 2.1c.2.5.8-.3.9-.5.3-.6.5-1.2.7-1.8.3-1.1.6-2.1.8-3.3.1-.9.2-2-.2-2.9-.2-.4-.4-.7-.8-.9-.3-.1-.5-.1-.8-.2zM132.5 209.6c-1.9-1.2-8.6-4.6-9-.3-.3 3.6 7.4 2.4 9.4 2 .3-.1 1-.8.6-1-.3-.3-.7-.5-1-.7zM124 191.9c-.4.3-.8.5-1.2.8-.5.4-1.1.8-1.6 1.3s-1.1 1-1.6 1.6c-.4.5-.9 1.1-1.2 1.7-.2.5-.4 1-.4 1.6 0 .4.2.7.4 1l.4.4c.2.1.4.2.6.2.2.1.3.1.5.1h.5c.3 0 .6-.2.9-.3.6-.4 1.1-1 1.4-1.7.4-.8.7-1.6.9-2.4.2-.8.4-1.6.5-2.5.1-.6.2-1.2.2-1.7.2-.4-.1-.2-.3-.1zM104.6 198c3.4 4 6.9.4 2.8-3.6-4.7-4.5-6.2-.4-2.8 3.6zM101.8 205.6c.1 0 .1.1.2.1 1.7 1.4 3.8 2.9 6.1 2.7 1.6-.1 3.6-1.2 3.9-2.9.3-1.9-1.9-3.2-3.5-3.6-2.6-.8-5.5.2-7.9 1.2-.2.1-.8.7-.5 1 .6.5 1.1 1 1.7 1.5zM113.7 214.2c.2-.3.4-.5.6-.8.5-.7.8-1.5.7-2.4 0-.4-.2-.8-.4-1.1-.1-.2-.2-.4-.4-.5l-.3-.3c-.2-.2-.4-.3-.6-.4-.2-.1-.4-.3-.6-.3-.7-.2-1.4-.3-2.1 0-.6.2-1.2.7-1.6 1.2-.5.6-.8 1.4-1.1 2.1-.3.8-.5 1.7-.7 2.5-.2.8-.3 1.6-.3 2.5-.1.7-.1 1.3 0 2 0 .1.1.2.2.2 2.5-1.1 4.9-2.7 6.6-4.7zM121.9 209.8c-2-2-5.4-2-6 1.4-.8 4.2 4.6 5.9 7.7 6.9.3.1.8-.7.8-1-.2-2.2-.3-4.4-1.5-6.1-.3-.3-.7-1-1-1.2zM117.8 203.9c-.1.1-.2.3-.2.4-.1.3-.2.5-.3.8 0 .4 0 .8.2 1.1.2.4.6.7 1 .9.9.5 2 .6 3.1.5 3.1-.3 5.4-3.1 7.2-5.3 0 0 .4-.6.3-.6-1-.3-2.1-.5-3.1-.6-1.1-.2-2.2-.2-3.3-.1-1 .1-2.1.4-3 .9-.5.3-.9.6-1.2 1-.2.2-.4.5-.6.8-.1.1-.1.1-.1.2zM113.6 204.4h.9c.5 0 1-.1 1.4-.3.6-.2 1-.6 1.4-1.1.3-.5.4-1 .5-1.6 0-.6-.1-1.3-.2-1.9-.2-.7-.4-1.4-.7-2.1-.3-.7-.6-1.3-1-2-.3-.6-.7-1.2-1.1-1.7-.3-.4-.6-.8-.9-1.1-.2-.3-.7.3-.8.4-.4.6-.7 1.3-.9 1.9l-.9 2.4c-.2.8-.4 1.7-.5 2.6-.1.8 0 1.6.2 2.3.2.6.6 1.2 1.1 1.6.3.2.7.3 1 .4.1.1.3.1.5.2zM113.9 205.4c-.9.7-1.3 2-.4 2.9.7.6 1.8.5 2.5 0 .4-.3.7-.7.9-1.2.1-.2.1-.5.1-.7 0-.3-.2-.5-.3-.7-.2-.4-.8-.6-1.3-.7-.6-.1-1.1.1-1.5.4z"/></g><path d="M241.5 306c.5-3 0-5.9.1-7.5 0-.2-.2-.7 0-.7 2.4-1.5 4.5-3.4 5.8-5.4 1.3-1.8 2.7-4.5 3.3-6.8 1.5-5 .2-9.8-4.2-13.2-4-3.1-10.8-3.3-15.2-.6-1.9 1-4.8 4.3-3.3 6.3 2.4 3 5 1.5 5.8.2.5-1.1 1.1-2.3 1-3.4-.2-.9 4-.6 6.1.2 3.9 1.7 6.8 6.3 5.4 10-2.1 5.9-4.8 8.1-7.5 9.3-3.2-4.7-6.4-8.9-11.6-11.6-3.2-1.6-13-4.4-15.6-.7-4.5 6.7 10.9 14.8 15 16.5 2.7 1.1 5.5 1.6 8.1 1.3 2 11.6-11.8 14.4-20.5 12.1-8.7-2.3-16.5-8-22.6-14.3-11.1-11.3-18.7-20.1-34.2-25.6-24.9-8.8-42.5 12.2-42.8 35.8 0 2.8 4 2.4 4.2-.2C120 290.3 131 271 151.4 276c13.1 3.3 24.3 13.2 33.2 22.7 5.2 5.5 10.7 11.3 17.1 15.5 2 1.3 4.9 2.9 7.2 3.8 13.8 5.4 29.1 4.2 32.6-12zm-25.9-20.5c3.3.2 6.5 1.2 9.6 2.8 3.6 1.4 6.2 4.4 7.9 7.6-6.6-.1-14.2-4.8-17.5-10.4z" fill="#c9973c"/><path d="M231.9 210.5c-4.1 1.6-7.5 3.2-7.8 8.4-2-3.9-4-7.4-9-8.1 4.6-1.3 7.5-3.9 8.7-8.7.9 4.8 3.3 7.6 8.1 8.4z" fill-rule="evenodd" clip-rule="evenodd" fill="#008d36"/><path class="st18" d="M124 129.6c-3.5 1.4-6.5 2.8-6.8 7.3-1.7-3.4-3.5-6.4-7.8-7 4-1.1 6.5-3.4 7.5-7.5.9 4.1 3 6.5 7.1 7.2zM285.6 294.2c-4.1 1.6-7.5 3.2-7.8 8.4-2-3.9-4-7.4-9-8.1 4.6-1.3 7.5-3.9 8.7-8.7.9 4.8 3.3 7.6 8.1 8.4zM327.8 288.5c-2.4.9-4.3 1.9-4.5 4.9-1.2-2.3-2.3-4.3-5.2-4.7 2.7-.7 4.4-2.2 5-5 .5 2.7 1.9 4.3 4.7 4.8zM85.2 275.9c-2.4.9-4.3 1.9-4.5 4.9-1.2-2.3-2.3-4.3-5.2-4.7 2.7-.7 4.4-2.2 5-5 .5 2.7 1.9 4.3 4.7 4.8zM291.7 220.9c-2.4.9-4.3 1.9-4.5 4.9-1.2-2.3-2.3-4.3-5.2-4.7 2.7-.7 4.4-2.2 5-5 .5 2.7 1.9 4.3 4.7 4.8z"/></svg>