<svg width="28" height="36" xmlns="http://www.w3.org/2000/svg">
 <!-- Created with Method Draw - http://github.com/duopixel/Method-Draw/ -->
 <g>
  <title>background</title>
  <rect fill="#fff" id="canvas_background" height="38" width="30" y="-1" x="-1"/>
  <g display="none" overflow="visible" y="0" x="0" height="100%" width="100%" id="canvasGrid">
   <rect fill="url(#gridpattern)" stroke-width="0" y="0" x="0" height="100%" width="100%"/>
  </g>
 </g>
 <g>
  <title>Layer 1</title>
  <path id="svg_2" d="m0.75,35.322365c0.064789,-1.14769 3.00383,-0.581894 1.385818,-1.700012c0.539703,-1.379257 2.215546,-2.297806 3.228485,-3.480957c0.776505,-1.007233 2.525681,-2.2211 1.679886,-3.466484c-1.553329,-0.652702 -1.112518,-2.103951 0.787384,-1.785225c1.221725,-0.886528 1.305847,-2.367386 1.719254,-3.574455c0.375244,-1.444725 0.604874,-2.915634 0.544983,-4.391708c-2.22702,0.00428 -4.49588,-0.079666 -6.643753,-0.554863c0.416077,-1.309067 3.097885,-1.027733 4.196671,-1.831924c-1.020966,-0.722412 2.064056,-0.650169 1.256821,-1.792763c-0.055405,-1.308571 -1.365707,-1.687225 -2.415451,-2.641319c-1.402359,-1.490936 0.796219,-2.980659 2.017303,-3.988625c1.361069,-1.095512 2.91774,-2.262726 3.334335,-3.812187c-0.560501,-0.362366 -1.840881,-0.881203 -0.534393,-1.376564c1.784332,-0.237991 3.687943,-0.266983 5.436676,0.123444c1.160721,0.889778 -1.771652,0.938309 -0.509979,2.060188c1.495926,1.410378 -0.52092,2.138245 -1.711731,2.953499c-0.69313,0.688866 -2.761932,1.597321 -2.405991,2.311356c2.025467,-0.055557 3.205627,-1.598244 4.650375,-2.511566c1.58461,-1.599091 3.117615,0.985016 4.130936,1.863152c1.248322,1.330841 0.387085,3.119545 -1.493225,3.691093c-0.932571,0.755585 -1.551758,2.907867 0.679626,2.58744c1.295853,0.37059 -1.266647,0.410515 0.204346,0.753105c0.977554,0.295341 4.790268,0.97036 2.689911,1.875717c-1.782669,0.317039 -3.624115,0.303963 -5.435028,0.175934c-0.111679,2.164299 0.281372,4.320061 1.092117,6.390259c0.201218,0.588982 0.402466,1.177963 0.603699,1.766937c0.968399,-0.015076 2.967834,-0.181656 2.043808,1.072891c-1.943832,0.843445 -0.754211,2.618462 0.323318,3.628181c1.335663,1.328613 3.327591,2.572418 3.412903,4.391418c0.534195,0.250488 2.312042,0.938644 1.797775,1.477402c-8.510025,-0.034317 -17.024948,0.099182 -25.53064,-0.146103l-0.295364,-0.021317l-0.240875,-0.045959l0,0z" opacity="0.5" stroke-width="1.5" stroke="#000" fill="#000000"/>
 </g>
</svg>